<svg width="9" height="11" viewBox="0 0 9 11" fill="none" xmlns="http://www.w3.org/2000/svg">
<path d="M8.57142 2.70229C8.57142 3.98419 6.65238 5.02371 4.28571 5.02371C1.91905 5.02371 0 3.98419 0 2.70229C0 1.42038 1.91905 0.380859 4.28571 0.380859C6.65238 0.380859 8.57142 1.42038 8.57142 2.70229Z" fill="#AEB9E1"/>
<path d="M4.28571 5.73801C5.56428 5.73801 6.75714 5.45896 7.65619 4.97182C7.98707 4.79615 8.29123 4.57424 8.55952 4.31277C8.56714 4.37039 8.57142 4.42897 8.57142 4.48801C8.57142 5.76992 6.65238 6.80944 4.28571 6.80944C1.91905 6.80944 0 5.76992 0 4.48801C0 4.42897 0.00428576 4.37039 0.0119048 4.31277C0.280199 4.57423 0.584364 4.79614 0.915238 4.97182C1.81381 5.45896 3.00714 5.73801 4.28571 5.73801Z" fill="#AEB9E1"/>
<path d="M4.28571 7.52372C5.56428 7.52372 6.75714 7.24467 7.65619 6.75753C7.98707 6.58186 8.29124 6.35995 8.55952 6.09848C8.56714 6.1561 8.57142 6.21467 8.57142 6.27372C8.57142 7.55562 6.65238 8.59515 4.28571 8.59515C1.91905 8.59515 0 7.55562 0 6.27372C0 6.21467 0.00428576 6.1561 0.0119048 6.09848C0.280194 6.35994 0.58436 6.58185 0.915238 6.75753C1.81381 7.24467 3.00714 7.52372 4.28571 7.52372Z" fill="#AEB9E1"/>
<path d="M4.28571 9.30944C5.56428 9.30944 6.75714 9.03039 7.65619 8.54325C7.98707 8.36759 8.29124 8.14567 8.55952 7.8842C8.56714 7.94182 8.57142 8.00039 8.57142 8.05944C8.57142 9.34134 6.65238 10.3809 4.28571 10.3809C1.91905 10.3809 0 9.34134 0 8.05944C0 8.00039 0.00428576 7.94182 0.0119048 7.8842C0.280194 8.14566 0.58436 8.36757 0.915238 8.54325C1.81381 9.03039 3.00714 9.30944 4.28571 9.30944Z" fill="#AEB9E1"/>
</svg>
