<svg width="10" height="15" viewBox="0 0 10 15" fill="none" xmlns="http://www.w3.org/2000/svg">
  <path d="M8 0.630859H2C1.60268 0.632505 1.22211 0.791068 0.941158 1.07202C0.660209 1.35297 0.501645 1.73354 0.5 2.13086V13.1309C0.501645 13.5282 0.660209 13.9088 0.941158 14.1897C1.22211 14.4707 1.60268 14.6292 2 14.6309H8C8.39732 14.6292 8.77789 14.4707 9.05884 14.1897C9.33979 13.9088 9.49835 13.5282 9.5 13.1309V2.13086C9.49835 1.73354 9.33979 1.35297 9.05884 1.07202C8.77789 0.791068 8.39732 0.632505 8 0.630859ZM5 4.13086C4.85166 4.13086 4.70666 4.08687 4.58332 4.00446C4.45999 3.92205 4.36386 3.80492 4.30709 3.66787C4.25032 3.53083 4.23547 3.38003 4.26441 3.23454C4.29335 3.08906 4.36478 2.95542 4.46967 2.85053C4.57456 2.74564 4.7082 2.67421 4.85368 2.64527C4.99917 2.61633 5.14997 2.63118 5.28701 2.68795C5.42406 2.74472 5.54119 2.84084 5.6236 2.96418C5.70601 3.08752 5.75 3.23252 5.75 3.38086C5.75 3.57977 5.67098 3.77054 5.53033 3.91119C5.38968 4.05184 5.19891 4.13086 5 4.13086Z" fill="white" />
</svg>
