<svg width="30" height="31" viewBox="0 0 30 31" fill="none" xmlns="http://www.w3.org/2000/svg">
<path fill-rule="evenodd" clip-rule="evenodd" d="M15 27.2178C8.26875 27.2178 2.8125 21.7615 2.8125 15.0303C2.8125 8.29902 8.26875 2.84277 15 2.84277C21.7313 2.84277 27.1875 8.29902 27.1875 15.0303C27.1875 21.7615 21.7313 27.2178 15 27.2178ZM14.3375 9.68027C14.5133 9.50471 14.7516 9.4061 15 9.4061C15.2484 9.4061 15.4867 9.50471 15.6625 9.68027L19.4125 13.4303C19.5046 13.5161 19.5785 13.6196 19.6297 13.7346C19.681 13.8496 19.7085 13.9737 19.7107 14.0996C19.713 14.2255 19.6898 14.3505 19.6427 14.4673C19.5955 14.584 19.5253 14.69 19.4363 14.7791C19.3473 14.8681 19.2412 14.9383 19.1245 14.9854C19.0078 15.0326 18.8827 15.0557 18.7568 15.0535C18.631 15.0513 18.5068 15.0237 18.3918 14.9725C18.2768 14.9213 18.1733 14.8474 18.0875 14.7553L15.9375 12.6053V19.7178C15.9375 19.9664 15.8387 20.2049 15.6629 20.3807C15.4871 20.5565 15.2486 20.6553 15 20.6553C14.7514 20.6553 14.5129 20.5565 14.3371 20.3807C14.1613 20.2049 14.0625 19.9664 14.0625 19.7178V12.6053L11.9125 14.7553C11.7348 14.9209 11.4997 15.011 11.2568 15.0067C11.014 15.0025 10.7822 14.9041 10.6105 14.7323C10.4387 14.5605 10.3403 14.3288 10.336 14.0859C10.3317 13.843 10.4219 13.608 10.5875 13.4303L14.3375 9.68027Z" fill="white"/>
</svg>
