<svg width="13" height="12" viewBox="0 0 13 12" fill="none" xmlns="http://www.w3.org/2000/svg">
  <path d="M11.4744 2.5335H9.12632C9.01525 1.89028 8.68054 1.30696 8.18126 0.886506C7.68197 0.466049 7.05022 0.235474 6.39748 0.235474C5.74474 0.235474 5.11298 0.466049 4.61369 0.886506C4.11441 1.30696 3.7797 1.89028 3.66863 2.5335H1.32055C1.07574 2.5335 0.84095 2.63075 0.667839 2.80386C0.494729 2.97697 0.397476 3.21176 0.397476 3.45657V10.8412C0.397476 11.086 0.494729 11.3208 0.667839 11.4939C0.84095 11.667 1.07574 11.7643 1.32055 11.7643H11.4744C11.7192 11.7643 11.954 11.667 12.1271 11.4939C12.3002 11.3208 12.3975 11.086 12.3975 10.8412V3.45657C12.3975 3.21176 12.3002 2.97697 12.1271 2.80386C11.954 2.63075 11.7192 2.5335 11.4744 2.5335V2.5335ZM6.39748 1.14888C6.80667 1.14966 7.20408 1.28594 7.52764 1.53644C7.8512 1.78694 8.08268 2.13754 8.18594 2.5335H4.60901C4.71227 2.13754 4.94375 1.78694 5.26731 1.53644C5.59087 1.28594 5.98828 1.14966 6.39748 1.14888V1.14888Z" fill="#CB3CFF" />
</svg>
