<svg width="22" height="22" viewBox="0 0 22 22" fill="none" xmlns="http://www.w3.org/2000/svg">
<path d="M17.4222 3.39629C17.5936 3.33405 17.7333 3.20627 17.8104 3.04107C17.8876 2.87587 17.896 2.68677 17.8338 2.51537C17.7715 2.34397 17.6438 2.20432 17.4786 2.12714C17.3134 2.04995 17.1243 2.04155 16.9529 2.10379L5.50004 6.2682V2.75004C5.50004 2.5677 5.4276 2.39283 5.29867 2.2639C5.16974 2.13497 4.99487 2.06254 4.81254 2.06254H3.43754C3.2552 2.06254 3.08033 2.13497 2.9514 2.2639C2.82247 2.39283 2.75004 2.5677 2.75004 2.75004V7.2692L1.82787 7.60379C1.65647 7.66603 1.51682 7.7938 1.43964 7.959C1.36245 8.12421 1.35405 8.31331 1.41629 8.4847C1.47852 8.6561 1.6063 8.79575 1.7715 8.87294C1.93671 8.95013 2.12581 8.95853 2.2972 8.89629L17.4222 3.39629Z" fill="#AEB9E1"/>
<path fill-rule="evenodd" clip-rule="evenodd" d="M2.76742 10.1879L16.5 5.19482V8.33074L20.1722 9.66632C20.3436 9.72856 20.4832 9.85634 20.5604 10.0215C20.6376 10.1867 20.646 10.3758 20.5837 10.5472C20.5215 10.7186 20.3937 10.8583 20.2285 10.9355C20.0633 11.0127 19.8742 11.0211 19.7028 10.9588L19.25 10.7938V18.5626H19.9375C20.1198 18.5626 20.2947 18.635 20.4236 18.7639C20.5526 18.8929 20.625 19.0677 20.625 19.2501C20.625 19.4324 20.5526 19.6073 20.4236 19.7362C20.2947 19.8651 20.1198 19.9376 19.9375 19.9376H2.0625C1.88016 19.9376 1.7053 19.8651 1.57636 19.7362C1.44743 19.6073 1.375 19.4324 1.375 19.2501C1.375 19.0677 1.44743 18.8929 1.57636 18.7639C1.7053 18.635 1.88016 18.5626 2.0625 18.5626H2.75V10.1943L2.76742 10.1879ZM16.5 18.5626V9.79374L17.875 10.2942V18.5626H16.5ZM8.25 13.0626C8.06766 13.0626 7.8928 13.135 7.76386 13.2639C7.63493 13.3929 7.5625 13.5677 7.5625 13.7501V17.8751C7.5625 18.2546 7.8705 18.5626 8.25 18.5626H11C11.1823 18.5626 11.3572 18.4901 11.4861 18.3612C11.6151 18.2323 11.6875 18.0574 11.6875 17.8751V13.7501C11.6875 13.5677 11.6151 13.3929 11.4861 13.2639C11.3572 13.135 11.1823 13.0626 11 13.0626H8.25Z" fill="#AEB9E1"/>
</svg>
