<svg width="13" height="13" viewBox="0 0 13 13" fill="none" xmlns="http://www.w3.org/2000/svg">
  <path d="M12.2178 11.5853C12.2178 11.7077 12.1691 11.8251 12.0826 11.9116C11.996 11.9982 11.8786 12.0468 11.7562 12.0468H0.679312C0.556904 12.0468 0.43951 11.9982 0.352955 11.9116C0.2664 11.8251 0.217773 11.7077 0.217773 11.5853V2.35448C0.217773 2.23208 0.2664 2.11468 0.352955 2.02813C0.43951 1.94157 0.556904 1.89294 0.679312 1.89294C0.80172 1.89294 0.919114 1.94157 1.00567 2.02813C1.09222 2.11468 1.14085 2.23208 1.14085 2.35448V8.62564L4.04277 5.71794C4.13028 5.63128 4.24846 5.58266 4.37162 5.58266C4.49478 5.58266 4.61296 5.63128 4.70047 5.71794L6.21777 7.24102L9.02739 4.43141L8.19662 3.60641C8.13401 3.53967 8.09157 3.45658 8.07421 3.36673C8.05686 3.27689 8.06529 3.18396 8.09854 3.09871C8.13447 3.01516 8.19401 2.94391 8.26984 2.89369C8.34567 2.84348 8.43451 2.81648 8.52547 2.81602H10.8332C10.9556 2.81602 11.073 2.86465 11.1595 2.9512C11.2461 3.03776 11.2947 3.15515 11.2947 3.27756V5.58525C11.295 5.67637 11.2683 5.76554 11.218 5.84151C11.1677 5.91748 11.096 5.97687 11.012 6.01218C10.9551 6.03478 10.8944 6.04652 10.8332 6.04679C10.7106 6.04627 10.5929 5.99878 10.5043 5.9141L9.67931 5.08333L6.54662 8.22179C6.45911 8.30846 6.34093 8.35708 6.21777 8.35708C6.09461 8.35708 5.97643 8.30846 5.88893 8.22179L4.37162 6.69871L1.14085 9.92948V11.1237H11.7562C11.8786 11.1237 11.996 11.1723 12.0826 11.2589C12.1691 11.3455 12.2178 11.4628 12.2178 11.5853Z" fill="#AEB9E1" />
</svg>
