<svg width="13" height="15" viewBox="0 0 13 15" fill="none" xmlns="http://www.w3.org/2000/svg">
  <path d="M12.4522 7.14012C12.5521 7.24276 12.6075 7.38068 12.6062 7.52391C12.6049 7.66713 12.5472 7.80406 12.4455 7.90493L6.9442 13.3995C6.23959 14.1042 5.28393 14.5 4.28746 14.5C3.29099 14.5 2.33534 14.1042 1.63073 13.3995C0.926119 12.6949 0.530273 11.7393 0.530273 10.7428C0.530273 9.74634 0.926119 8.79068 1.63073 8.08607L8.29269 1.33689C8.53918 1.077 8.8352 0.86908 9.16331 0.725391C9.49141 0.581701 9.84496 0.505151 10.2031 0.500251C10.5613 0.495352 10.9168 0.562202 11.2487 0.696863C11.5806 0.831523 11.8822 1.03127 12.1357 1.28432C12.3892 1.53738 12.5895 1.83862 12.7247 2.1703C12.86 2.50197 12.9275 2.85737 12.9232 3.21553C12.9189 3.5737 12.843 3.92739 12.6999 4.25575C12.5568 4.58411 12.3494 4.88049 12.0899 5.12744L5.42798 11.8766C5.27907 12.0278 5.10151 12.1478 4.90568 12.2296C4.70985 12.3114 4.49968 12.3533 4.28746 12.353C3.96843 12.3537 3.65636 12.2597 3.39085 12.0829C3.12533 11.906 2.91834 11.6542 2.79615 11.3595C2.67396 11.0648 2.64206 10.7405 2.70452 10.4276C2.76698 10.1147 2.92096 9.82749 3.14695 9.60229L8.73548 3.92654C8.78384 3.8723 8.84271 3.82844 8.90853 3.79763C8.97434 3.76681 9.04573 3.74969 9.11836 3.74728C9.19099 3.74488 9.26335 3.75725 9.33106 3.78365C9.39876 3.81005 9.4604 3.84992 9.51224 3.90085C9.56408 3.95178 9.60503 4.0127 9.63263 4.07993C9.66022 4.14716 9.67387 4.21929 9.67275 4.29195C9.67163 4.36461 9.65577 4.43629 9.62613 4.50264C9.59649 4.56899 9.55368 4.62863 9.5003 4.67794L3.91176 10.3604C3.86089 10.4103 3.82045 10.4698 3.79281 10.5354C3.76516 10.6011 3.75087 10.6716 3.75075 10.7428C3.75272 10.8484 3.78541 10.9511 3.84483 11.0384C3.90425 11.1257 3.98782 11.1938 4.08533 11.2344C4.18283 11.275 4.29005 11.2863 4.39386 11.2669C4.49767 11.2475 4.59359 11.1983 4.66987 11.1252L11.3251 4.36933C11.4763 4.22042 11.5963 4.04286 11.6781 3.84703C11.7599 3.6512 11.8018 3.44103 11.8015 3.22881C11.8022 2.90978 11.7082 2.59771 11.5314 2.33219C11.3545 2.06668 11.1027 1.85969 10.808 1.7375C10.5133 1.6153 10.189 1.58341 9.87611 1.64587C9.56325 1.70832 9.276 1.86231 9.0508 2.08829L2.39555 8.84418C2.13565 9.09067 1.92773 9.38669 1.78404 9.7148C1.64035 10.0429 1.5638 10.3965 1.5589 10.7546C1.554 11.1128 1.62085 11.4683 1.75551 11.8002C1.89017 12.1321 2.08992 12.4337 2.34297 12.6872C2.59603 12.9407 2.89727 13.141 3.22895 13.2762C3.56062 13.4115 3.91602 13.479 4.27418 13.4747C4.63235 13.4704 4.98604 13.3945 5.3144 13.2514C5.64276 13.1083 5.93914 12.9009 6.18609 12.6414L11.6874 7.14012C11.7892 7.03933 11.9266 6.98279 12.0698 6.98279C12.213 6.98279 12.3505 7.03933 12.4522 7.14012V7.14012Z" fill="white" />
</svg>
