<svg width="30" height="31" viewBox="0 0 30 31" fill="none" xmlns="http://www.w3.org/2000/svg">
<path fill-rule="evenodd" clip-rule="evenodd" d="M14.9876 2.83403C14.182 2.83324 13.3857 3.00587 12.6528 3.34018C11.9199 3.6745 11.2675 4.16267 10.7401 4.77153C9.93698 4.71418 9.13097 4.83029 8.37673 5.11197C7.6225 5.39365 6.93769 5.83431 6.3688 6.40403C5.79876 6.97299 5.35782 7.65796 5.07592 8.41242C4.79403 9.16688 4.67777 9.97316 4.73505 10.7765C4.12688 11.3041 3.63932 11.9564 3.30545 12.6891C2.97158 13.4217 2.79921 14.2176 2.80005 15.0228C2.80005 16.719 3.55005 18.239 4.73505 19.269C4.67777 20.0724 4.79403 20.8787 5.07592 21.6331C5.35782 22.3876 5.79876 23.0726 6.3688 23.6415C6.93772 24.2116 7.62268 24.6526 8.37715 24.9345C9.13162 25.2164 9.93793 25.3326 10.7413 25.2753C11.2688 25.8837 11.921 26.3716 12.6536 26.7057C13.3863 27.0398 14.1823 27.2123 14.9876 27.2115C15.7928 27.2123 16.5888 27.0398 17.3215 26.7057C18.0541 26.3716 18.7064 25.8837 19.2338 25.2753C20.037 25.3325 20.843 25.2161 21.5973 24.9343C22.3515 24.6524 23.0363 24.2115 23.6051 23.6415C24.1747 23.0726 24.6153 22.3878 24.897 21.6336C25.1787 20.8793 25.2948 20.0733 25.2376 19.2703C25.8463 18.7428 26.3345 18.0904 26.6688 17.3575C27.0031 16.6246 27.1758 15.8283 27.1751 15.0228C27.1751 13.3265 26.4238 11.8065 25.2388 10.7765C25.2961 9.97316 25.1798 9.16688 24.8979 8.41242C24.616 7.65796 24.1751 6.97299 23.6051 6.40403C23.0361 5.83392 22.3512 5.39293 21.5967 5.11103C20.8422 4.82913 20.0359 4.71291 19.2326 4.77028C18.7052 4.16197 18.0532 3.67422 17.3208 3.34013C16.5883 3.00605 15.7926 2.83344 14.9876 2.83403ZM19.4001 11.934C19.5657 11.7563 19.6558 11.5212 19.6515 11.2784C19.6472 11.0355 19.5488 10.8038 19.3771 10.632C19.2053 10.4602 18.9736 10.3618 18.7307 10.3576C18.4878 10.3533 18.2528 10.4434 18.0751 10.609L10.5751 18.109C10.4829 18.1949 10.4091 18.2984 10.3578 18.4134C10.3066 18.5284 10.279 18.6525 10.2768 18.7784C10.2746 18.9043 10.2977 19.0293 10.3449 19.146C10.392 19.2628 10.4622 19.3688 10.5513 19.4578C10.6403 19.5468 10.7463 19.617 10.8631 19.6642C10.9798 19.7113 11.1048 19.7345 11.2307 19.7323C11.3566 19.73 11.4807 19.7025 11.5957 19.6513C11.7107 19.6 11.8142 19.5261 11.9001 19.434L19.4001 11.934ZM12.1751 10.8028C11.8021 10.8028 11.4444 10.9509 11.1807 11.2147C10.917 11.4784 10.7688 11.8361 10.7688 12.209C10.7688 12.582 10.917 12.9397 11.1807 13.2034C11.4444 13.4671 11.8021 13.6153 12.1751 13.6153C12.548 13.6153 12.9057 13.4671 13.1694 13.2034C13.4331 12.9397 13.5813 12.582 13.5813 12.209C13.5813 11.8361 13.4331 11.4784 13.1694 11.2147C12.9057 10.9509 12.548 10.8028 12.1751 10.8028ZM17.8001 16.4278C17.4271 16.4278 17.0694 16.5759 16.8057 16.8397C16.542 17.1034 16.3938 17.4611 16.3938 17.834C16.3938 18.207 16.542 18.5647 16.8057 18.8284C17.0694 19.0921 17.4271 19.2403 17.8001 19.2403C18.173 19.2403 18.5307 19.0921 18.7944 18.8284C19.0581 18.5647 19.2063 18.207 19.2063 17.834C19.2063 17.4611 19.0581 17.1034 18.7944 16.8397C18.5307 16.5759 18.173 16.4278 17.8001 16.4278Z" fill="white"/>
</svg>
