<svg width="20" height="20" viewBox="0 0 20 20" fill="none" xmlns="http://www.w3.org/2000/svg">
<g clip-path="url(#clip0_172_1930)">
<path d="M7.5 12.5C7.5 10.143 7.5 8.9645 8.23223 8.23223C8.9645 7.5 10.143 7.5 12.5 7.5H13.3333C15.6903 7.5 16.8688 7.5 17.6011 8.23223C18.3333 8.9645 18.3333 10.143 18.3333 12.5V13.3333C18.3333 15.6903 18.3333 16.8688 17.6011 17.6011C16.8688 18.3333 15.6903 18.3333 13.3333 18.3333H12.5C10.143 18.3333 8.9645 18.3333 8.23223 17.6011C7.5 16.8688 7.5 15.6903 7.5 13.3333V12.5Z" stroke="#F79C03" stroke-width="1.5" stroke-linecap="round" stroke-linejoin="round"/>
<path d="M14.1666 7.49999C14.1646 5.03575 14.1273 3.75933 13.41 2.88535C13.2715 2.71656 13.1167 2.56181 12.948 2.42329C12.026 1.66666 10.6562 1.66666 7.91666 1.66666C5.17709 1.66666 3.80731 1.66666 2.88535 2.42329C2.71656 2.5618 2.56181 2.71656 2.42329 2.88535C1.66666 3.80731 1.66666 5.17709 1.66666 7.91666C1.66666 10.6562 1.66666 12.026 2.42329 12.948C2.5618 13.1167 2.71656 13.2715 2.88535 13.41C3.75933 14.1273 5.03575 14.1646 7.49999 14.1666" stroke="#F79C03" stroke-width="1.5" stroke-linecap="round" stroke-linejoin="round"/>
</g>
<defs>
<clipPath id="clip0_172_1930">
<rect width="20" height="20" fill="white"/>
</clipPath>
</defs>
</svg>
