<svg width="24" height="24" viewBox="0 0 24 24" fill="none" xmlns="http://www.w3.org/2000/svg">
<g clip-path="url(#clip0_180_2010)">
<path d="M21.6014 0H2.39838C1.76311 0.00276294 1.15464 0.256348 0.705435 0.705557C0.256226 1.15477 0.00264087 1.76323 -0.00012207 2.3985V21.6015C0.00264087 22.2368 0.256226 22.8452 0.705435 23.2944C1.15464 23.7437 1.76311 23.9972 2.39838 24H21.6014C22.2366 23.9972 22.8451 23.7437 23.2943 23.2944C23.7435 22.8452 23.9971 22.2368 23.9999 21.6015V2.3985C23.9971 1.76323 23.7435 1.15477 23.2943 0.705557C22.8451 0.256348 22.2366 0.00276294 21.6014 0V0ZM7.04688 14.4645C7.29875 14.5795 7.57082 14.6437 7.84753 14.6535C8.12424 14.6633 8.40017 14.6185 8.65955 14.5216C8.91893 14.4247 9.15667 14.2777 9.3592 14.0889C9.56173 13.9001 9.72506 13.6732 9.83988 13.4213H11.5004C10.4654 17.6595 4.22688 16.9095 4.22688 12.546C4.22688 8.17875 10.4654 7.42875 11.5004 11.6707H9.83988C9.23013 10.3313 7.46913 10.0103 6.42963 11.0535C5.38638 12.0922 5.70663 13.854 7.04688 14.4637V14.4645ZM18.3906 15.3082C18.0764 15.5802 17.7166 15.7944 17.3279 15.9412C16.7743 16.1553 16.1772 16.2324 15.5874 16.1657C14.9977 16.0991 14.4328 15.8909 13.9409 15.5588V15.9412H12.4289V5.37075H13.9289V9.48C14.4645 9.11783 15.085 8.901 15.7296 8.85075H15.9989C19.4129 8.84325 20.9834 13.0927 18.3899 15.3075L18.3906 15.3082ZM18.1679 12.543C18.1732 12.8226 18.1227 13.1004 18.0193 13.3602C17.916 13.62 17.7619 13.8566 17.5661 14.0562C17.3702 14.2558 17.1366 14.4143 16.8787 14.5225C16.6209 14.6307 16.3441 14.6865 16.0645 14.6865C15.7849 14.6865 15.5081 14.6307 15.2503 14.5225C14.9924 14.4143 14.7588 14.2558 14.563 14.0562C14.3671 13.8566 14.213 13.62 14.1097 13.3602C14.0064 13.1004 13.9558 12.8226 13.9611 12.543C14.0196 9.801 18.1056 9.801 18.1679 12.543Z" fill="white"/>
</g>
<defs>
<clipPath id="clip0_180_2010">
<rect width="24" height="24" fill="white"/>
</clipPath>
</defs>
</svg>
