<svg width="13" height="13" viewBox="0 0 13 13" fill="none" xmlns="http://www.w3.org/2000/svg">
  <path d="M11.8262 11.5004L10.2427 3.5998C10.2207 3.39627 10.1236 3.2081 9.97006 3.07174C9.81655 2.93538 9.61762 2.86054 9.4118 2.86172H8.49724C8.39663 2.28221 8.09343 1.75668 7.64115 1.37787C7.18888 0.999057 6.6166 0.791321 6.02531 0.791321C5.43403 0.791321 4.86175 0.999057 4.40948 1.37787C3.9572 1.75668 3.654 2.28221 3.55339 2.86172H2.63883C2.43301 2.86054 2.23408 2.93538 2.08057 3.07174C1.92705 3.2081 1.82989 3.39627 1.80788 3.5998L0.224387 11.5004C0.21173 11.6172 0.22379 11.7354 0.259792 11.8473C0.295794 11.9592 0.354941 12.0623 0.43343 12.1501C0.511657 12.2371 0.607521 12.3066 0.714712 12.3541C0.821903 12.4016 0.93799 12.426 1.05533 12.4256H10.9953C11.1126 12.426 11.2287 12.4016 11.3359 12.3541C11.4431 12.3066 11.539 12.2371 11.6172 12.1501C11.6957 12.0623 11.7548 11.9592 11.7908 11.8473C11.8268 11.7354 11.8389 11.6172 11.8262 11.5004ZM6.02531 1.61425C6.39598 1.61496 6.75598 1.73774 7.04907 1.96342C7.34217 2.18911 7.55186 2.50498 7.64539 2.86172H4.40524C4.49877 2.50498 4.70846 2.18911 5.00155 1.96342C5.29465 1.73774 5.65465 1.61496 6.02531 1.61425Z" fill="#F79C03" />
</svg>
