<svg width="16" height="17" viewBox="0 0 16 17" fill="none" xmlns="http://www.w3.org/2000/svg">
  <path d="M7.86155 9.82003C8.51935 9.82003 9.0526 9.2732 9.0526 8.59864C9.0526 7.92409 8.51935 7.37726 7.86155 7.37726C7.20375 7.37726 6.6705 7.92409 6.6705 8.59864C6.6705 9.2732 7.20375 9.82003 7.86155 9.82003Z" fill="#D9E1FA" />
  <path d="M13.4893 9.82003C14.1471 9.82003 14.6803 9.2732 14.6803 8.59864C14.6803 7.92409 14.1471 7.37726 13.4893 7.37726C12.8315 7.37726 12.2982 7.92409 12.2982 8.59864C12.2982 9.2732 12.8315 9.82003 13.4893 9.82003Z" fill="#D9E1FA" />
  <path d="M2.23383 9.82003C2.89163 9.82003 3.42488 9.2732 3.42488 8.59864C3.42488 7.92409 2.89163 7.37726 2.23383 7.37726C1.57604 7.37726 1.04279 7.92409 1.04279 8.59864C1.04279 9.2732 1.57604 9.82003 2.23383 9.82003Z" fill="#D9E1FA" />
</svg>
