<svg width="13" height="12" viewBox="0 0 13 12" fill="none" xmlns="http://www.w3.org/2000/svg">
<path d="M11.3671 0.905167C11.1968 0.735573 10.9946 0.601406 10.7721 0.510416C10.5497 0.419425 10.3114 0.373415 10.071 0.375042C9.83068 0.376669 9.59304 0.425901 9.37182 0.519895C9.15061 0.61389 8.95022 0.750782 8.78221 0.922667L1.79424 7.91074C1.62286 8.08213 1.50068 8.29643 1.4405 8.53121L0.760939 11.1823C0.709881 11.3815 0.890966 11.5625 1.09014 11.5115L3.7413 10.8315C3.97602 10.7713 4.19025 10.6491 4.3616 10.4778L11.3496 3.48963C11.5216 3.3217 11.6585 3.12135 11.7525 2.90017C11.8465 2.679 11.8958 2.44137 11.8974 2.20105C11.899 1.96072 11.853 1.72245 11.762 1.50002C11.671 1.27759 11.5368 1.07541 11.3671 0.905167Z" fill="white" stroke="white" stroke-width="0.676194" stroke-linecap="round" stroke-linejoin="round"/>
</svg>
