<svg width="14" height="14" viewBox="0 0 14 14" fill="none" xmlns="http://www.w3.org/2000/svg">
<path fill-rule="evenodd" clip-rule="evenodd" d="M7.00357 0C7.51784 0 7.93473 0.416896 7.93473 0.931162V1.40222C8.36312 1.40237 8.7873 1.48682 9.18308 1.65076C9.57923 1.81485 9.93917 2.05535 10.2424 2.35855C10.5456 2.66174 10.7861 3.02169 10.9502 3.41783C11.1142 3.81398 11.1987 4.23856 11.1987 4.66734C11.1987 5.18161 10.7818 5.59851 10.2675 5.59851C9.75327 5.59851 9.33637 5.18161 9.33638 4.66734C9.33638 4.48312 9.30009 4.30071 9.22959 4.13051C9.1591 3.96032 9.05577 3.80567 8.9255 3.67541C8.79524 3.54515 8.6406 3.44182 8.4704 3.37132C8.3002 3.30082 8.11779 3.26454 7.93357 3.26454H5.833C5.46095 3.26454 5.10414 3.41233 4.84107 3.67541C4.57799 3.93849 4.43019 4.2953 4.43019 4.66734C4.43019 5.03939 4.57799 5.3962 4.84107 5.65928C5.10414 5.92235 5.46095 6.07015 5.833 6.07015H8.40036C9.26633 6.07015 10.0968 6.41415 10.7092 7.02648C11.3215 7.63881 11.6655 8.46931 11.6655 9.33528C11.6655 10.2012 11.3215 11.0317 10.7092 11.6441C10.0968 12.2564 9.26633 12.6004 8.40036 12.6004H7.93473V13.0688C7.93473 13.5831 7.51784 14 7.00357 14C6.48931 14 6.07241 13.5831 6.07241 13.0688V12.6004H5.5996C4.73364 12.6004 3.90314 12.2564 3.29081 11.6441C2.67848 11.0317 2.33447 10.2012 2.33447 9.33528C2.33447 8.82101 2.75137 8.40412 3.26563 8.40412C3.7799 8.40412 4.1968 8.82101 4.1968 9.33528C4.1968 9.70733 4.34459 10.0641 4.60767 10.3272C4.87075 10.5903 5.22756 10.7381 5.5996 10.7381H6.96485C6.97769 10.7376 6.9906 10.7373 7.00357 10.7373C7.01654 10.7373 7.02945 10.7376 7.0423 10.7381H8.40036C8.77241 10.7381 9.12922 10.5903 9.3923 10.3272C9.65537 10.0641 9.80317 9.70733 9.80317 9.33528C9.80317 8.96323 9.65537 8.60642 9.3923 8.34335C9.12922 8.08027 8.77241 7.93247 8.40036 7.93247H5.833C4.96703 7.93247 4.13653 7.58847 3.5242 6.97614C2.91187 6.36381 2.56787 5.53331 2.56787 4.66734C2.56787 3.80138 2.91187 2.97088 3.5242 2.35855C4.13653 1.74622 4.96703 1.40221 5.833 1.40221H6.07241V0.931162C6.07241 0.416896 6.48931 0 7.00357 0Z" fill="#AEB9E1"/>
</svg>
