<svg width="12" height="12" viewBox="0 0 12 12" fill="none" xmlns="http://www.w3.org/2000/svg">
<path fill-rule="evenodd" clip-rule="evenodd" d="M6.02539 0.308412C5.64946 0.308043 5.27786 0.388604 4.93584 0.544619C4.59381 0.700634 4.28938 0.928447 4.04323 1.21258C3.66846 1.18582 3.29232 1.24 2.94034 1.37145C2.58837 1.5029 2.26879 1.70854 2.00331 1.97441C1.73729 2.23993 1.53152 2.55958 1.39997 2.91166C1.26841 3.26374 1.21416 3.64001 1.24089 4.01491C0.957078 4.26113 0.729548 4.56553 0.573743 4.90743C0.417937 5.24934 0.337501 5.62076 0.337892 5.9965C0.337892 6.78808 0.687892 7.49741 1.24089 7.97808C1.21416 8.35298 1.26841 8.72925 1.39997 9.08133C1.53152 9.43341 1.73729 9.75306 2.00331 10.0186C2.26881 10.2846 2.58845 10.4904 2.94054 10.622C3.29263 10.7535 3.6689 10.8078 4.04381 10.781C4.28995 11.0649 4.59431 11.2926 4.93623 11.4485C5.27815 11.6044 5.64961 11.6849 6.02539 11.6846C6.40118 11.6849 6.77264 11.6044 7.11455 11.4485C7.45647 11.2926 7.76083 11.0649 8.00698 10.781C8.38179 10.8077 8.75795 10.7534 9.10993 10.6219C9.46191 10.4903 9.78146 10.2846 10.0469 10.0186C10.3127 9.75307 10.5183 9.43349 10.6498 9.08152C10.7812 8.72955 10.8354 8.35343 10.8087 7.97866C11.0928 7.73248 11.3206 7.42805 11.4766 7.08603C11.6326 6.74401 11.7132 6.37242 11.7129 5.9965C11.7129 5.20491 11.3623 4.49558 10.8093 4.01491C10.836 3.64001 10.7818 3.26374 10.6502 2.91166C10.5187 2.55958 10.3129 2.23993 10.0469 1.97441C9.7814 1.70836 9.46175 1.50257 9.10966 1.37101C8.75757 1.23946 8.3813 1.18523 8.00639 1.212C7.76031 0.928119 7.45604 0.700504 7.11424 0.544596C6.77243 0.388689 6.40108 0.308138 6.02539 0.308412ZM8.08456 4.55508C8.16184 4.47214 8.20391 4.36245 8.20191 4.24911C8.19991 4.13577 8.154 4.02762 8.07384 3.94747C7.99368 3.86731 7.88554 3.82139 7.7722 3.81939C7.65885 3.81739 7.54916 3.85947 7.46623 3.93675L3.96623 7.43675C3.92324 7.4768 3.88876 7.5251 3.86485 7.57876C3.84094 7.63243 3.82808 7.69036 3.82705 7.74911C3.82601 7.80785 3.83682 7.8662 3.85882 7.92068C3.88082 7.97515 3.91358 8.02464 3.95512 8.06618C3.99666 8.10773 4.04615 8.14048 4.10063 8.16248C4.1551 8.18449 4.21345 8.19529 4.2722 8.19426C4.33094 8.19322 4.38887 8.18036 4.44254 8.15645C4.49621 8.13254 4.54451 8.09806 4.58456 8.05508L8.08456 4.55508ZM4.71289 4.02716C4.53884 4.02716 4.37192 4.0963 4.24885 4.21937C4.12578 4.34244 4.05664 4.50936 4.05664 4.68341C4.05664 4.85746 4.12578 5.02438 4.24885 5.14745C4.37192 5.27052 4.53884 5.33966 4.71289 5.33966C4.88694 5.33966 5.05386 5.27052 5.17693 5.14745C5.3 5.02438 5.36914 4.85746 5.36914 4.68341C5.36914 4.50936 5.3 4.34244 5.17693 4.21937C5.05386 4.0963 4.88694 4.02716 4.71289 4.02716ZM7.33789 6.65216C7.16384 6.65216 6.99692 6.7213 6.87385 6.84437C6.75078 6.96744 6.68164 7.13436 6.68164 7.30841C6.68164 7.48246 6.75078 7.64938 6.87385 7.77245C6.99692 7.89552 7.16384 7.96466 7.33789 7.96466C7.51194 7.96466 7.67886 7.89552 7.80193 7.77245C7.925 7.64938 7.99414 7.48246 7.99414 7.30841C7.99414 7.13436 7.925 6.96744 7.80193 6.84437C7.67886 6.7213 7.51194 6.65216 7.33789 6.65216Z" fill="#AEB9E1"/>
</svg>
