<svg width="16" height="16" viewBox="0 0 16 16" fill="none" xmlns="http://www.w3.org/2000/svg">
<g clip-path="url(#clip0_2046_4112)">
<path d="M15.04 8.16699C15.04 7.64699 14.9933 7.14699 14.9067 6.66699H8V9.50699H11.9467C11.7733 10.4203 11.2533 11.1937 10.4733 11.7137V13.5603H12.8533C14.24 12.2803 15.04 10.4003 15.04 8.16699Z" fill="#4285F4"/>
<path d="M7.99979 15.3337C9.97979 15.3337 11.6398 14.6804 12.8531 13.5604L10.4731 11.7137C9.81979 12.1537 8.98646 12.4204 7.99979 12.4204C6.09312 12.4204 4.47313 11.1337 3.89313 9.40039H1.45312V11.2937C2.65979 13.6871 5.13312 15.3337 7.99979 15.3337Z" fill="#34A853"/>
<path d="M3.89366 9.39289C3.74699 8.95289 3.66033 8.48622 3.66033 7.99956C3.66033 7.51289 3.74699 7.04622 3.89366 6.60622V4.71289H1.45366C0.953659 5.69956 0.666992 6.81289 0.666992 7.99956C0.666992 9.18622 0.953659 10.2996 1.45366 11.2862L3.35366 9.80622L3.89366 9.39289Z" fill="#FBBC05"/>
<path d="M7.99979 3.58699C9.07979 3.58699 10.0398 3.96033 10.8065 4.68033L12.9065 2.58033C11.6331 1.39366 9.97979 0.666992 7.99979 0.666992C5.13312 0.666992 2.65979 2.31366 1.45312 4.71366L3.89313 6.60699C4.47313 4.87366 6.09312 3.58699 7.99979 3.58699Z" fill="#EA4335"/>
</g>
<defs>
<clipPath id="clip0_2046_4112">
<rect width="16" height="16" fill="white"/>
</clipPath>
</defs>
</svg>
