<svg width="22" height="22" viewBox="0 0 22 22" fill="none" xmlns="http://www.w3.org/2000/svg">
<path d="M10.6746 19.1676L10.6682 19.1648L10.648 19.1538C10.53 19.0889 10.413 19.0223 10.2969 18.954C8.90158 18.1248 7.59759 17.1508 6.40658 16.0481C4.29733 14.0801 2.0625 11.1596 2.0625 7.56257C2.0625 4.87857 4.32117 2.75007 7.04733 2.75007C7.80519 2.74635 8.55413 2.91354 9.23846 3.2392C9.92279 3.56486 10.5249 4.04061 11 4.63107C11.4752 4.04049 12.0775 3.56467 12.762 3.239C13.4465 2.91334 14.1956 2.74622 14.9536 2.75007C17.6788 2.75007 19.9375 4.87857 19.9375 7.56257C19.9375 11.1605 17.7027 14.081 15.5934 16.0472C14.4024 17.15 13.0984 18.124 11.7031 18.9531C11.587 19.0217 11.47 19.0886 11.352 19.1538L11.3318 19.1648L11.3254 19.1685L11.3227 19.1694C11.2233 19.2221 11.1125 19.2496 11 19.2496C10.8875 19.2496 10.7767 19.2221 10.6773 19.1694L10.6746 19.1676Z" fill="#AEB9E1"/>
</svg>
