<svg width="10" height="13" viewBox="0 0 10 13" fill="none" xmlns="http://www.w3.org/2000/svg">
  <path d="M5.0006 0.400391C3.75068 0.401809 2.55236 0.898965 1.66853 1.78279C0.784707 2.66662 0.287551 3.86494 0.286133 5.11486C0.286133 9.14894 4.57201 12.1973 4.75416 12.3259C4.82716 12.3745 4.9129 12.4004 5.0006 12.4004C5.0883 12.4004 5.17404 12.3745 5.24704 12.3259C5.42919 12.1973 9.71507 9.14894 9.71507 5.11486C9.71365 3.86494 9.21649 2.66662 8.33267 1.78279C7.44884 0.898965 6.25052 0.401809 5.0006 0.400391V0.400391ZM5.0006 3.40051C5.33967 3.40051 5.67112 3.50105 5.95304 3.68943C6.23497 3.8778 6.4547 4.14555 6.58446 4.4588C6.71421 4.77206 6.74816 5.11676 6.68201 5.44931C6.61586 5.78186 6.45259 6.08733 6.21283 6.32709C5.97307 6.56685 5.66761 6.73012 5.33505 6.79627C5.0025 6.86242 4.6578 6.82847 4.34455 6.69871C4.03129 6.56896 3.76355 6.34923 3.57517 6.0673C3.38679 5.78538 3.28625 5.45393 3.28625 5.11486C3.28625 4.66018 3.46687 4.22413 3.78837 3.90263C4.10987 3.58113 4.54593 3.40051 5.0006 3.40051V3.40051Z" fill="white" />
</svg>
