<svg width="24" height="24" viewBox="0 0 24 24" fill="none" xmlns="http://www.w3.org/2000/svg">
<path d="M4.37212 7.264C4.38437 7.14227 4.36796 7.01935 4.32421 6.9051C4.28045 6.79084 4.21056 6.68841 4.12012 6.606L2.25212 4.339V4H8.05012L12.5321 13.905L16.4721 4H22.0001V4.339L20.4031 5.88C20.3354 5.93225 20.2832 6.00189 20.2521 6.0815C20.2209 6.16111 20.2119 6.24769 20.2261 6.332V17.666C20.2119 17.7503 20.2209 17.8369 20.2521 17.9165C20.2832 17.9961 20.3354 18.0658 20.4031 18.118L21.9631 19.66V20H14.1191V19.661L15.7351 18.081C15.8941 17.921 15.8941 17.874 15.8941 17.63V8.468L11.4021 19.962H10.7961L5.56612 8.468V16.172C5.52312 16.495 5.63012 16.822 5.85612 17.056L7.95712 19.624V19.962H2.00012V19.624L4.10012 17.056C4.21123 16.9401 4.2937 16.7997 4.34092 16.6462C4.38815 16.4928 4.39884 16.3304 4.37212 16.172V7.264Z" fill="white"/>
</svg>
