<svg width="16" height="20" viewBox="0 0 16 20" fill="none" xmlns="http://www.w3.org/2000/svg">
<path d="M12.5833 7.25V5.41667C12.5833 2.85 10.5666 0.833336 7.99996 0.833336C5.43329 0.833336 3.41663 2.85 3.41663 5.41667V7.25C1.85829 7.25 0.666626 8.44167 0.666626 10V16.4167C0.666626 17.975 1.85829 19.1667 3.41663 19.1667H12.5833C14.1416 19.1667 15.3333 17.975 15.3333 16.4167V10C15.3333 8.44167 14.1416 7.25 12.5833 7.25ZM5.24996 5.41667C5.24996 3.85834 6.44163 2.66667 7.99996 2.66667C9.55829 2.66667 10.75 3.85834 10.75 5.41667V7.25H5.24996V5.41667Z" fill="#AEB9E1"/>
</svg>
