<svg width="24" height="24" viewBox="0 0 24 24" fill="none" xmlns="http://www.w3.org/2000/svg">
<path d="M22.7427 11.7586C22.7427 10.3935 21.6315 9.28329 20.2671 9.28329C19.676 9.28329 19.123 9.49953 18.6769 9.87777C18.6625 9.88665 18.6476 9.89505 18.6334 9.90417C17.0238 8.87433 14.8892 8.21673 12.5281 8.12745L13.9374 4.11993L17.4548 4.96089C17.4577 6.07281 18.3622 6.97689 19.4756 6.97689C20.5897 6.97689 21.4969 6.07041 21.4969 4.95585C21.4969 3.84081 20.5897 2.93433 19.4756 2.93433C18.6286 2.93433 17.905 3.45801 17.605 4.19673L13.4377 3.20073L11.707 8.11833C9.24488 8.16465 7.0136 8.83089 5.34392 9.89529C4.8944 9.50529 4.33352 9.28305 3.7316 9.28305C2.36672 9.28305 1.2572 10.3935 1.2572 11.7584C1.2572 12.6027 1.6928 13.3827 2.39864 13.8368C2.35357 14.0841 2.33005 14.3349 2.32832 14.5863C2.32832 18.159 6.65864 21.0656 11.9809 21.0656C17.3041 21.0656 21.6346 18.159 21.6346 14.5863C21.6333 14.3421 21.6115 14.0985 21.5694 13.8579C22.2942 13.4072 22.7427 12.6159 22.7427 11.7586ZM15.2634 14.9634C15.0636 14.9634 14.8659 14.9241 14.6814 14.8476C14.4969 14.7712 14.3292 14.6591 14.188 14.5179C14.0469 14.3766 13.9349 14.2089 13.8586 14.0243C13.7822 13.8398 13.743 13.642 13.7432 13.4422C13.7432 13.1414 13.8325 12.8474 13.9997 12.5973C14.1669 12.3472 14.4044 12.1523 14.6824 12.0372C14.9603 11.9222 15.2662 11.8921 15.5612 11.9509C15.8562 12.0097 16.1272 12.1546 16.3398 12.3674C16.5525 12.5802 16.6973 12.8512 16.7558 13.1463C16.8144 13.4414 16.7842 13.7472 16.669 14.0251C16.5537 14.3029 16.3587 14.5404 16.1085 14.7074C15.8583 14.8744 15.5642 14.9635 15.2634 14.9634ZM15.566 17.5568C15.5204 17.6034 14.4301 18.7138 11.9638 18.7138C9.48392 18.7138 8.49272 17.5885 8.4512 17.54C8.38444 17.4616 8.35145 17.3599 8.35946 17.2572C8.36746 17.1545 8.41581 17.0592 8.49392 16.9921C8.5721 16.9258 8.67318 16.8928 8.77543 16.9002C8.87767 16.9077 8.97291 16.955 9.04064 17.0319C9.06272 17.0569 9.89024 17.937 11.9638 17.937C14.072 17.937 14.9972 17.0254 15.007 17.0166C15.0793 16.9454 15.1766 16.9053 15.278 16.9048C15.3795 16.9043 15.4771 16.9435 15.5501 17.014C15.623 17.0845 15.6655 17.1807 15.6685 17.2822C15.6715 17.3836 15.6347 17.4821 15.566 17.5568ZM7.394 13.4422C7.39051 13.2403 7.42729 13.0396 7.50218 12.852C7.57708 12.6644 7.6886 12.4936 7.83023 12.3496C7.97186 12.2056 8.14076 12.0912 8.32707 12.0132C8.51338 11.9351 8.71338 11.895 8.91537 11.8951C9.11737 11.8952 9.31733 11.9355 9.50357 12.0137C9.68981 12.0919 9.8586 12.2065 10.0001 12.3506C10.1416 12.4948 10.2529 12.6657 10.3277 12.8534C10.4024 13.041 10.439 13.2417 10.4353 13.4437C10.428 13.8423 10.2645 14.2221 9.97997 14.5014C9.69544 14.7807 9.31262 14.937 8.91393 14.9368C8.51525 14.9366 8.13258 14.7799 7.84831 14.5004C7.56404 14.2209 7.40089 13.8409 7.394 13.4422Z" fill="white"/>
</svg>
