<svg width="15" height="15" viewBox="0 0 15 15" fill="none" xmlns="http://www.w3.org/2000/svg">
  <path d="M7.72656 0.5C6.3421 0.5 4.98872 0.910543 3.83757 1.67971C2.68643 2.44888 1.78922 3.54213 1.25941 4.82122C0.729595 6.1003 0.590972 7.50776 0.861069 8.86563C1.13117 10.2235 1.79785 11.4708 2.77682 12.4497C3.75579 13.4287 5.00307 14.0954 6.36093 14.3655C7.7188 14.6356 9.12626 14.497 10.4053 13.9672C11.6844 13.4373 12.7777 12.5401 13.5468 11.389C14.316 10.2378 14.7266 8.88447 14.7266 7.5C14.723 5.64458 13.9844 3.86617 12.6724 2.55418C11.3604 1.2422 9.58199 0.503558 7.72656 0.5V0.5ZM10.1496 5.34615C10.3094 5.34615 10.4655 5.39352 10.5984 5.48227C10.7312 5.57102 10.8347 5.69717 10.8959 5.84475C10.957 5.99234 10.973 6.15474 10.9418 6.31142C10.9106 6.4681 10.8337 6.61201 10.7208 6.72497C10.6078 6.83793 10.4639 6.91485 10.3072 6.94602C10.1505 6.97718 9.98814 6.96119 9.84055 6.90006C9.69296 6.83892 9.56682 6.7354 9.47807 6.60257C9.38932 6.46975 9.34195 6.31359 9.34195 6.15385C9.34195 5.93963 9.42704 5.73419 9.57852 5.58272C9.72999 5.43125 9.93543 5.34615 10.1496 5.34615ZM5.30349 5.34615C5.46323 5.34615 5.61939 5.39352 5.75222 5.48227C5.88504 5.57102 5.98857 5.69717 6.0497 5.84475C6.11083 5.99234 6.12683 6.15474 6.09566 6.31142C6.0645 6.4681 5.98757 6.61201 5.87461 6.72497C5.76165 6.83793 5.61774 6.91485 5.46106 6.94602C5.30438 6.97718 5.14198 6.96119 4.9944 6.90006C4.84681 6.83892 4.72067 6.7354 4.63192 6.60257C4.54317 6.46975 4.4958 6.31359 4.4958 6.15385C4.4958 5.93963 4.58089 5.73419 4.73236 5.58272C4.88383 5.43125 5.08927 5.34615 5.30349 5.34615ZM10.991 9.38461C10.6602 9.95769 10.1844 10.4336 9.61133 10.7645C9.0383 11.0953 8.38826 11.2695 7.72656 11.2695C7.06487 11.2695 6.41483 11.0953 5.8418 10.7645C5.26877 10.4336 4.79294 9.95769 4.46214 9.38461C4.42 9.32348 4.39096 9.25428 4.37684 9.18139C4.36273 9.10849 4.36384 9.03345 4.38011 8.96101C4.39639 8.88856 4.42747 8.82026 4.47141 8.7604C4.51535 8.70054 4.57119 8.65041 4.63543 8.61317C4.69967 8.57593 4.77092 8.55238 4.8447 8.544C4.91847 8.53562 4.99319 8.54258 5.06415 8.56446C5.1351 8.58634 5.20077 8.62266 5.25702 8.67114C5.31326 8.71962 5.35888 8.7792 5.39099 8.84615C5.62813 9.25559 5.96873 9.59549 6.37865 9.83178C6.78858 10.0681 7.25341 10.1925 7.72656 10.1925C8.19971 10.1925 8.66455 10.0681 9.07447 9.83178C9.4844 9.59549 9.825 9.25559 10.0621 8.84615C10.1391 8.73456 10.2552 8.65608 10.3875 8.62638C10.5197 8.59667 10.6583 8.61793 10.7755 8.6859C10.8928 8.75388 10.9801 8.86357 11.02 8.99308C11.06 9.1226 11.0496 9.26241 10.991 9.38461Z" fill="white" />
</svg>
