<svg width="16" height="16" viewBox="0 0 16 16" fill="none" xmlns="http://www.w3.org/2000/svg">
<path fill-rule="evenodd" clip-rule="evenodd" d="M12.9663 5.63201L10.9256 7.33335C11.0254 7.77264 11.0254 8.22872 10.9256 8.66801L12.9663 10.368C13.3178 9.62821 13.5002 8.81942 13.5002 8.00035C13.5002 7.18128 13.3178 6.37248 12.9663 5.63268V5.63201ZM10.3683 12.9667L8.66698 10.9253C8.22769 11.0251 7.77161 11.0251 7.33232 10.9253L5.63232 12.966C6.37212 13.3175 7.18091 13.4999 7.99998 13.4999C8.81905 13.4999 9.62785 13.3175 10.3676 12.966L10.3683 12.9667ZM3.03365 10.368L5.07498 8.66668C4.97522 8.22739 4.97522 7.77131 5.07498 7.33202L3.03432 5.63335C2.68278 6.37315 2.5004 7.18194 2.5004 8.00101C2.5004 8.82009 2.68278 9.62888 3.03432 10.3687L3.03365 10.368ZM5.63232 3.03335L7.33365 5.07468C7.77294 4.97492 8.22902 4.97492 8.66832 5.07468L10.3683 3.03401C9.62852 2.68248 8.81972 2.50009 8.00065 2.50009C7.18158 2.50009 6.37278 2.68248 5.63298 3.03401L5.63232 3.03335ZM11.4036 2.46001C11.8369 2.7268 12.2374 3.0434 12.597 3.40335C12.9566 3.76256 13.273 4.16261 13.5396 4.59535C14.1679 5.61949 14.5004 6.79753 14.5004 7.99901C14.5004 9.2005 14.1679 10.3785 13.5396 11.4027C13.2729 11.8359 12.9563 12.2364 12.5963 12.596C12.2371 12.9556 11.837 13.272 11.4043 13.5387C10.3801 14.1671 9.20193 14.4997 8.00032 14.4997C6.7987 14.4997 5.62053 14.1671 4.59632 13.5387C4.16355 13.2718 3.76349 12.9552 3.40432 12.5953C3.04445 12.2362 2.72785 11.8361 2.46098 11.4033C1.83261 10.3791 1.5 9.20096 1.5 7.99935C1.5 6.79773 1.83261 5.61957 2.46098 4.59535C2.72784 4.16257 3.04444 3.76252 3.40432 3.40335C3.76348 3.04347 4.16354 2.72688 4.59632 2.46001C5.62046 1.83177 6.7985 1.49924 7.99998 1.49924C9.20146 1.49924 10.3795 1.83177 11.4036 2.46001ZM9.41432 6.58668C9.20559 6.3772 8.95279 6.21687 8.67432 6.11735C8.23838 5.96218 7.76225 5.96218 7.32632 6.11735C7.04784 6.21687 6.79505 6.3772 6.58632 6.58668C6.36898 6.80335 6.21298 7.05668 6.11698 7.32668C5.96182 7.76262 5.96182 8.23874 6.11698 8.67468C6.21298 8.94468 6.36898 9.19801 6.58632 9.41468C6.80298 9.63201 7.05632 9.78802 7.32632 9.88402C7.76098 10.0393 8.23965 10.0393 8.67432 9.88402C8.95279 9.7845 9.20559 9.62417 9.41432 9.41468C9.63165 9.19801 9.78765 8.94468 9.88365 8.67468C10.0388 8.23873 10.0388 7.76263 9.88365 7.32668C9.78413 7.04821 9.6238 6.79541 9.41432 6.58668Z" fill="#AEB9E1"/>
</svg>
