<svg width="17" height="16" viewBox="0 0 17 16" fill="none" xmlns="http://www.w3.org/2000/svg">
  <path fill-rule="evenodd" clip-rule="evenodd" d="M11.416 1C10.7598 0.99993 10.1115 1.14338 9.51655 1.42031C8.92162 1.69723 8.39445 2.10093 7.972 2.60309C7.54955 3.10526 7.24204 3.69374 7.07102 4.32729C6.90001 4.96085 6.86963 5.62413 6.98202 6.27067C7.02668 6.53067 6.96068 6.74867 6.83468 6.87467L2.50135 11.2073C2.12649 11.5824 1.91595 12.091 1.91602 12.6213V14.5C1.91602 14.776 2.14002 15 2.41602 15H4.91602C5.04862 15 5.1758 14.9473 5.26957 14.8536C5.36334 14.7598 5.41602 14.6326 5.41602 14.5V13.5H6.41602C6.54862 13.5 6.6758 13.4473 6.76957 13.3536C6.86334 13.2598 6.91602 13.1326 6.91602 13V12H7.91602C8.04858 11.9999 8.17567 11.9471 8.26935 11.8533L10.0413 10.0813C10.168 9.95533 10.386 9.88933 10.6453 9.93467C11.2593 10.0404 11.8885 10.0176 12.4931 9.86753C13.0978 9.71749 13.6647 9.44353 14.158 9.06301C14.6512 8.68249 15.0601 8.2037 15.3587 7.65694C15.6573 7.11019 15.8392 6.50739 15.8927 5.88671C15.9462 5.26603 15.8703 4.641 15.6697 4.05119C15.4692 3.46137 15.1483 2.91963 14.7275 2.46027C14.3067 2.0009 13.795 1.63392 13.225 1.38256C12.655 1.13119 12.039 1.00092 11.416 1ZM11.416 3C11.2834 3 11.1562 3.05268 11.0625 3.14645C10.9687 3.24021 10.916 3.36739 10.916 3.5C10.916 3.63261 10.9687 3.75979 11.0625 3.85355C11.1562 3.94732 11.2834 4 11.416 4C11.8138 4 12.1954 4.15804 12.4767 4.43934C12.758 4.72064 12.916 5.10218 12.916 5.5C12.916 5.63261 12.9687 5.75979 13.0625 5.85355C13.1562 5.94732 13.2834 6 13.416 6C13.5486 6 13.6758 5.94732 13.7696 5.85355C13.8633 5.75979 13.916 5.63261 13.916 5.5C13.916 4.83696 13.6526 4.20107 13.1838 3.73223C12.7149 3.26339 12.0791 3 11.416 3Z" fill="white" />
</svg>
