<svg width="24" height="24" viewBox="0 0 24 24" fill="none" xmlns="http://www.w3.org/2000/svg">
<g clip-path="url(#clip0_10_1234)">
<path d="M23.6398 14.9029C22.0371 21.3315 15.5256 25.2435 9.09618 23.6408C2.66981 22.038 -1.24257 15.5265 0.36056 9.09825C1.96256 2.66888 8.47368 -1.24387 14.9012 0.358877C21.3302 1.96163 25.2426 8.47388 23.6398 14.9029Z" fill="#F7931A"/>
<path d="M17.2911 10.2904C17.5296 8.69363 16.3138 7.83525 14.6514 7.26263L15.1907 5.09963L13.8737 4.7715L13.3487 6.8775C13.0029 6.79125 12.6474 6.70988 12.2942 6.62925L12.8229 4.50938L11.5071 4.18125L10.9674 6.3435C10.6809 6.27825 10.3997 6.21375 10.1267 6.14588L10.1282 6.13913L8.31244 5.68575L7.96219 7.092C7.96219 7.092 8.93906 7.31588 8.91844 7.32975C9.45169 7.46288 9.54844 7.81575 9.53194 8.0955L8.91769 10.5596C8.95444 10.569 9.00206 10.5825 9.05456 10.6035L8.91581 10.569L8.05444 14.0209C7.98919 14.1829 7.82381 14.4259 7.45106 14.3336C7.46419 14.3528 6.49406 14.0948 6.49406 14.0948L5.84044 15.6023L7.55419 16.0294C7.87294 16.1093 8.18531 16.1929 8.49244 16.2716L7.94756 18.4598L9.26269 18.7879L9.80269 16.6234C10.1616 16.7209 10.5103 16.8109 10.8516 16.8956L10.3138 19.05L11.6304 19.3781L12.1753 17.1945C14.4204 17.6194 16.1091 17.448 16.8189 15.4178C17.3916 13.7828 16.7908 12.8396 15.6096 12.2243C16.4698 12.0251 17.1182 11.4593 17.2911 10.2904ZM14.2824 14.5087C13.8752 16.1438 11.1227 15.2603 10.2298 15.0383L10.9528 12.1399C11.8453 12.3626 14.7066 12.8036 14.2824 14.5087ZM14.6893 10.2668C14.3181 11.754 12.0268 10.9984 11.2832 10.8131L11.9387 8.18438C12.6823 8.36963 15.0763 8.71538 14.6893 10.2668Z" fill="white"/>
</g>
<defs>
<clipPath id="clip0_10_1234">
<rect width="24" height="24" fill="white"/>
</clipPath>
</defs>
</svg>
