<svg width="24" height="24" viewBox="0 0 24 24" fill="none" xmlns="http://www.w3.org/2000/svg">
<g clip-path="url(#clip0_14_879)">
<path d="M7.3416 10.0845L12.0028 5.42516L16.666 10.0883L19.3767 7.37572L12.0028 0L4.62902 7.37383L7.3416 10.0845Z" fill="#F3BA2F"/>
<path d="M0 12.0009L2.71069 9.28836L5.42327 12.0009L2.71069 14.7116L0 12.0009Z" fill="#F3BA2F"/>
<path d="M7.3416 13.9155L12.0028 18.5767L16.666 13.9136L19.3786 16.6224L12.0047 23.9981L4.62902 16.6281L7.3416 13.9155Z" fill="#F3BA2F"/>
<path d="M18.5767 12.0009L21.2874 9.28836L24 11.999L21.2874 14.7135L18.5767 12.0009Z" fill="#F3BA2F"/>
<path d="M14.7533 11.999L12.0028 9.24666L9.96888 11.2806L9.73383 11.5138L9.25235 11.9953L12.0028 14.7439L14.7533 12.0009V11.999Z" fill="#F3BA2F"/>
</g>
<defs>
<clipPath id="clip0_14_879">
<rect width="24" height="24" fill="white"/>
</clipPath>
</defs>
</svg>
