<svg width="21" height="24" viewBox="0 0 21 24" fill="none" xmlns="http://www.w3.org/2000/svg">
<path d="M10.2836 8.50226C9.90483 8.50226 9.54154 8.3478 9.27353 8.07281C9.00551 7.79781 8.85468 7.42477 8.85416 7.0356C8.85201 6.67774 8.97998 6.33195 9.213 6.06597C9.63726 5.57296 9.87143 4.93758 9.87143 4.27949C9.87143 3.62141 9.63726 2.98603 9.213 2.49302C8.98081 2.22652 8.85296 1.88107 8.85416 1.52339C8.847 1.32605 8.87865 1.12925 8.94721 0.94477C9.01577 0.760286 9.11984 0.591904 9.25319 0.449691C9.38654 0.307478 9.54643 0.194356 9.72331 0.11709C9.90018 0.0398238 10.0904 0 10.2826 0C10.4748 0 10.665 0.0398238 10.8419 0.11709C11.0188 0.194356 11.1787 0.307478 11.312 0.449691C11.4454 0.591904 11.5494 0.760286 11.618 0.94477C11.6866 1.12925 11.7182 1.32605 11.711 1.52339C11.7137 1.88317 11.5858 2.23106 11.3522 2.49913C10.9279 2.99214 10.6938 3.62752 10.6938 4.2856C10.6938 4.94369 10.9279 5.57907 11.3522 6.07208C11.5852 6.33806 11.7132 6.68385 11.711 7.04171C11.709 7.42947 11.5577 7.80064 11.2903 8.07425C11.0229 8.34787 10.661 8.50173 10.2836 8.50226Z" fill="#F79C03"/>
<path d="M6.07469 10.9997C5.8235 10.9973 5.57735 10.927 5.36096 10.796C5.05735 10.6211 4.82878 10.3353 4.72059 9.99541C4.54532 9.46076 4.21105 8.99618 3.76496 8.66723C3.31888 8.33828 2.78352 8.16158 2.23444 8.16208C2.05726 8.16131 1.88049 8.17975 1.70707 8.21708C1.61499 8.23574 1.52139 8.24529 1.42753 8.2456C1.17639 8.24293 0.930306 8.1727 0.713804 8.04189C0.388021 7.84617 0.150786 7.52602 0.0538478 7.15128C-0.0430901 6.77654 0.00813625 6.37762 0.196352 6.04153C0.289815 5.87433 0.41449 5.72773 0.563225 5.61015C0.711961 5.49257 0.881828 5.40633 1.06308 5.35636C1.24433 5.3064 1.43341 5.2937 1.61945 5.31899C1.80549 5.34428 1.98484 5.40707 2.14721 5.50375C2.44448 5.68363 2.66734 5.96914 2.7737 6.30634C2.97601 6.93112 3.39426 7.45801 3.94925 7.78724C4.50425 8.11646 5.15746 8.22519 5.78523 8.09282C5.87844 8.07249 5.97346 8.06225 6.06874 8.06227C6.44785 8.06227 6.81143 8.217 7.0795 8.49244C7.34758 8.76787 7.49818 9.14144 7.49818 9.53097C7.49818 9.92049 7.34758 10.2941 7.0795 10.5695C6.81143 10.8449 6.44785 10.9997 6.06874 10.9997H6.07469Z" fill="#F79C03"/>
<path d="M1.42944 18.7485C1.05033 18.7485 0.686744 18.5938 0.418672 18.3184C0.150601 18.0429 0 17.6694 0 17.2798C0 16.8903 0.150601 16.5167 0.418672 16.2413C0.686744 15.9659 1.05033 15.8111 1.42944 15.8111C1.52406 15.8112 1.61841 15.8215 1.71096 15.8417C2.33902 15.9744 2.99264 15.8656 3.54778 15.5359C4.10292 15.2062 4.52093 14.6786 4.72249 14.0532C4.83272 13.7144 5.06075 13.4293 5.36287 13.2526C5.52523 13.1559 5.70458 13.0932 5.89062 13.0679C6.07667 13.0426 6.26574 13.0553 6.44699 13.1052C6.62824 13.1552 6.79811 13.2414 6.94685 13.359C7.09558 13.4766 7.22026 13.6232 7.31372 13.7904C7.40755 13.9573 7.46845 14.1416 7.49293 14.3327C7.5174 14.5237 7.50498 14.7179 7.45637 14.9041C7.40776 15.0902 7.32392 15.2647 7.20963 15.4176C7.09535 15.5704 6.95286 15.6986 6.79032 15.7948C6.57492 15.9266 6.32923 15.9969 6.07858 15.9985C5.98406 15.9983 5.88978 15.9888 5.79705 15.97C5.6237 15.932 5.44694 15.9129 5.26968 15.913C4.72068 15.9128 4.18545 16.0896 3.73943 16.4185C3.2934 16.7474 2.95907 17.2118 2.78354 17.7463C2.67422 18.0855 2.4469 18.3713 2.14515 18.5489C1.92768 18.6786 1.68089 18.7475 1.42944 18.7485Z" fill="#F79C03"/>
<path d="M10.2836 24C9.90483 24 9.54154 23.8455 9.27353 23.5706C9.00551 23.2956 8.85468 22.9225 8.85416 22.5333C8.85201 22.1755 8.97998 21.8297 9.213 21.5637C9.63726 21.0707 9.87143 20.4353 9.87143 19.7772C9.87143 19.1191 9.63726 18.4838 9.213 17.9908C8.98081 17.7243 8.85296 17.3788 8.85416 17.0211C8.847 16.8238 8.87865 16.627 8.94721 16.4425C9.01577 16.258 9.11984 16.0896 9.25319 15.9474C9.38654 15.8052 9.54643 15.6921 9.72331 15.6148C9.90018 15.5376 10.0904 15.4977 10.2826 15.4977C10.4748 15.4977 10.665 15.5376 10.8419 15.6148C11.0188 15.6921 11.1787 15.8052 11.312 15.9474C11.4454 16.0896 11.5494 16.258 11.618 16.4425C11.6866 16.627 11.7182 16.8238 11.711 17.0211C11.7128 17.3789 11.5849 17.7246 11.3522 17.9908C10.9279 18.4838 10.6938 19.1191 10.6938 19.7772C10.6938 20.4353 10.9279 21.0707 11.3522 21.5637C11.5837 21.8305 11.7108 22.1759 11.7091 22.5333C11.7085 22.9218 11.5583 23.2942 11.2911 23.5691C11.0239 23.844 10.6617 23.9989 10.2836 24Z" fill="#F79C03"/>
<path d="M19.1358 18.7485C18.8846 18.7459 18.6386 18.6756 18.4221 18.5448C18.1202 18.3679 17.8933 18.0818 17.7857 17.7422C17.6092 17.2079 17.2744 16.7438 16.8282 16.415C16.3819 16.0862 15.8467 15.9092 15.2975 15.9089C15.1203 15.9089 14.9435 15.9281 14.7702 15.9659C14.6781 15.9846 14.5845 15.9942 14.4906 15.9945C14.2395 15.9918 13.9934 15.9216 13.7769 15.7908C13.6144 15.6945 13.4719 15.5663 13.3576 15.4135C13.2433 15.2607 13.1594 15.0862 13.1108 14.9C13.0622 14.7138 13.0498 14.5197 13.0743 14.3286C13.0988 14.1375 13.1597 13.9532 13.2535 13.7863C13.3471 13.6191 13.472 13.4724 13.6209 13.3548C13.7698 13.2372 13.9399 13.151 14.1213 13.101C14.3027 13.051 14.4919 13.0384 14.6781 13.0637C14.8643 13.089 15.0438 13.1518 15.2063 13.2485C15.5082 13.4255 15.7351 13.7116 15.8427 14.0511C16.0192 14.5854 16.354 15.0496 16.8002 15.3784C17.2465 15.7072 17.7817 15.8842 18.3309 15.8845C18.5073 15.8841 18.6833 15.8657 18.8562 15.8295C18.9488 15.8092 19.0432 15.799 19.1378 15.7989C19.3889 15.8016 19.635 15.8718 19.8515 16.0026C20.014 16.0988 20.1565 16.227 20.2708 16.3799C20.3851 16.5327 20.4689 16.7072 20.5176 16.8934C20.5662 17.0795 20.5786 17.2737 20.5541 17.4648C20.5296 17.6559 20.4687 17.8402 20.3749 18.0071C20.2498 18.2314 20.0694 18.418 19.8519 18.5482C19.6344 18.6783 19.3875 18.7474 19.1358 18.7485Z" fill="#F79C03"/>
<path d="M14.4926 10.9997C14.1135 10.9997 13.7499 10.8449 13.4818 10.5695C13.2138 10.2941 13.0632 9.9205 13.0632 9.53098C13.0632 9.14146 13.2138 8.76789 13.4818 8.49245C13.7499 8.21702 14.1135 8.06228 14.4926 8.06228C14.5866 8.06226 14.6803 8.0725 14.7721 8.09283C14.9457 8.12906 15.1224 8.14749 15.2995 8.14783C15.8488 8.14814 16.3843 7.97141 16.8307 7.64251C17.277 7.31362 17.6117 6.84915 17.7876 6.3145C17.8953 5.97499 18.1222 5.68885 18.424 5.51191C18.5866 5.41519 18.7661 5.35236 18.9523 5.32704C19.1385 5.30172 19.3277 5.3144 19.5091 5.36436C19.6905 5.41432 19.8605 5.50057 20.0095 5.61817C20.1584 5.73578 20.2832 5.88242 20.3769 6.04969C20.4707 6.21659 20.5316 6.40085 20.5561 6.59194C20.5806 6.78304 20.5681 6.97722 20.5195 7.16337C20.4709 7.34953 20.3871 7.52402 20.2728 7.67686C20.1585 7.82971 20.016 7.95791 19.8535 8.05413C19.6371 8.1852 19.3909 8.25545 19.1398 8.25783C19.0459 8.25752 18.9523 8.24797 18.8602 8.22932C18.6868 8.19143 18.5101 8.17232 18.3328 8.17228C17.7837 8.17258 17.2485 8.34955 16.8022 8.67836C16.356 9.00717 16.0211 9.4713 15.8447 10.0056C15.7371 10.3451 15.5102 10.6313 15.2083 10.8082C14.9901 10.9351 14.7433 11.0011 14.4926 10.9997Z" fill="#F79C03"/>
<path d="M10.2836 13.4971C11.073 13.4971 11.713 12.8395 11.713 12.0284C11.713 11.2172 11.073 10.5597 10.2836 10.5597C9.49412 10.5597 8.85414 11.2172 8.85414 12.0284C8.85414 12.8395 9.49412 13.4971 10.2836 13.4971Z" fill="#F79C03"/>
<path d="M14.1992 6.52431C14.9886 6.52431 15.6286 5.86676 15.6286 5.05561C15.6286 4.24447 14.9886 3.58691 14.1992 3.58691C13.4097 3.58691 12.7697 4.24447 12.7697 5.05561C12.7697 5.86676 13.4097 6.52431 14.1992 6.52431Z" fill="#F79C03"/>
<path d="M6.36603 6.52431C7.15548 6.52431 7.79547 5.86676 7.79547 5.05561C7.79547 4.24447 7.15548 3.58691 6.36603 3.58691C5.57657 3.58691 4.93659 4.24447 4.93659 5.05561C4.93659 5.86676 5.57657 6.52431 6.36603 6.52431Z" fill="#F79C03"/>
<path d="M2.44844 13.4971C3.2379 13.4971 3.87788 12.8395 3.87788 12.0284C3.87788 11.2172 3.2379 10.5597 2.44844 10.5597C1.65899 10.5597 1.019 11.2172 1.019 12.0284C1.019 12.8395 1.65899 13.4971 2.44844 13.4971Z" fill="#F79C03"/>
<path d="M6.36603 20.4678C7.15548 20.4678 7.79547 19.8102 7.79547 18.9991C7.79547 18.188 7.15548 17.5304 6.36603 17.5304C5.57657 17.5304 4.93659 18.188 4.93659 18.9991C4.93659 19.8102 5.57657 20.4678 6.36603 20.4678Z" fill="#F79C03"/>
<path d="M14.1992 20.4678C14.9886 20.4678 15.6286 19.8102 15.6286 18.9991C15.6286 18.188 14.9886 17.5304 14.1992 17.5304C13.4097 17.5304 12.7697 18.188 12.7697 18.9991C12.7697 19.8102 13.4097 20.4678 14.1992 20.4678Z" fill="#F79C03"/>
<path d="M18.1167 13.4971C18.9062 13.4971 19.5462 12.8395 19.5462 12.0284C19.5462 11.2172 18.9062 10.5597 18.1167 10.5597C17.3273 10.5597 16.6873 11.2172 16.6873 12.0284C16.6873 12.8395 17.3273 13.4971 18.1167 13.4971Z" fill="#F79C03"/>
</svg>
