<svg width="24" height="24" viewBox="0 0 24 24" fill="none" xmlns="http://www.w3.org/2000/svg">
<path d="M12 24C18.6299 24 24 18.6262 24 12C24 5.37385 18.6299 0 12 0C5.37012 0 0 5.37385 0 12C0 18.6262 5.37471 24 12 24Z" fill="#FF060A"/>
<path d="M19.3095 9.58405C18.6075 8.96005 17.6325 8.00943 16.8427 7.33668L16.794 7.30743C16.716 7.24893 16.6283 7.20018 16.5356 7.16605C14.6246 6.8248 5.73262 5.23068 5.562 5.25018C5.51325 5.25505 5.4645 5.27455 5.4255 5.29893L5.38162 5.33305C5.328 5.38668 5.28412 5.45005 5.25975 5.52318L5.25 5.55243V5.7133V5.73768C6.24938 8.40918 10.203 17.1549 10.983 19.2122C11.0317 19.3536 11.1195 19.6168 11.2852 19.6314H11.3242C11.412 19.6314 11.7922 19.1488 11.7922 19.1488C11.7922 19.1488 18.5831 11.2611 19.2705 10.4226C19.3582 10.3202 19.4362 10.2081 19.5045 10.0911C19.524 9.99843 19.5142 9.9058 19.4801 9.81805C19.446 9.7303 19.3826 9.64743 19.3095 9.58405ZM13.5278 10.5054L16.4235 8.20443L18.1249 9.70593L13.5278 10.5054ZM12.4016 10.3543L7.4145 6.4348L15.4875 7.86318L12.4016 10.3543ZM12.8501 11.3781L17.9542 10.5883L12.1189 17.3304L12.8501 11.3781ZM6.73688 6.82968L11.9872 11.0953L11.2267 17.3353L6.73688 6.82968Z" fill="white"/>
</svg>
