<svg width="35" height="14" viewBox="0 0 35 14" fill="none" xmlns="http://www.w3.org/2000/svg">
<path d="M6.6416 13.2534V7.90076H12.3097L12.9178 8.69343L13.5461 7.90076H34.1199V12.8843C34.1199 12.8843 33.5818 13.248 32.9596 13.2534H21.5674L20.8818 12.4096V13.2534H18.635V11.8131C18.635 11.8131 18.3281 12.0141 17.6646 12.0141H16.8998V13.2534H13.498L12.8907 12.4437L12.2741 13.2534H6.6416Z" fill="#016FD0"/>
<path d="M0.0234375 3.86663L1.30162 0.887085H3.5121L4.23748 2.5561V0.887085H6.98531L7.41713 2.0934L7.83576 0.887085H20.1707V1.49354C20.1707 1.49354 20.8191 0.887085 21.8848 0.887085L25.887 0.90107L26.5998 2.54824V0.887085H28.8994L29.5323 1.83325V0.887085H31.8529V6.23972H29.5323L28.9257 5.29048V6.23972H25.5472L25.2075 5.39595H24.2992L23.965 6.23972H21.6738C20.7568 6.23972 20.1707 5.64565 20.1707 5.64565V6.23972H16.7161L16.0305 5.39595V6.23972H3.18463L2.8451 5.39595H1.93974L1.60262 6.23972H0.0234375V3.86663Z" fill="#016FD0"/>
<path d="M1.75328 1.54675L0.0292969 5.5551H1.1517L1.4698 4.75245H3.31904L3.63549 5.5551H4.78262L3.06028 1.54675H1.75328ZM2.39112 2.47962L2.9548 3.88221H1.8258L2.39112 2.47962Z" fill="white"/>
<path d="M4.90137 5.55413V1.54578L6.49637 1.5517L7.42407 4.13603L8.32956 1.54578H9.9118V5.55413H8.90972V2.60061L7.84748 5.55413H6.96865L5.90345 2.60061V5.55413H4.90137Z" fill="white"/>
<path d="M10.5977 5.55416V1.54578H13.8677V2.44239H11.6103V3.12803H13.8149V3.97191H11.6103V4.68392H13.8677V5.55416H10.5977Z" fill="white"/>
<path d="M14.4473 1.54675V5.55514H15.4494V4.13111H15.8713L17.0728 5.55514H18.2974L16.9789 4.07837C17.52 4.0327 18.0782 3.56825 18.0782 2.84717C18.0782 2.00367 17.4162 1.54675 16.6773 1.54675H14.4473ZM15.4494 2.44336H16.5949C16.8696 2.44336 17.0695 2.65831 17.0695 2.8653C17.0695 3.1316 16.8105 3.28724 16.6097 3.28724H15.4494V2.44336Z" fill="white"/>
<path d="M19.5125 5.55416H18.4893V1.54578H19.5125V5.55416Z" fill="white"/>
<path d="M21.9373 5.55416H21.7164C20.6478 5.55416 19.999 4.71227 19.999 3.56645C19.999 2.39232 20.6406 1.54578 21.99 1.54578H23.0976V2.49513H21.9495C21.4017 2.49513 21.0143 2.92264 21.0143 3.57634C21.0143 4.35261 21.4573 4.67865 22.0955 4.67865H22.3592L21.9373 5.55416Z" fill="white"/>
<path d="M24.1185 1.54675L22.3945 5.5551H23.5169L23.835 4.75245H25.6843L26.0007 5.5551H27.1479L25.4255 1.54675H24.1185ZM24.7564 2.47962L25.32 3.88221H24.191L24.7564 2.47962Z" fill="white"/>
<path d="M27.2646 5.55416V1.54578H28.5387L30.1655 4.06421V1.54578H31.1676V5.55416H29.9347L28.2667 2.96981V5.55416H27.2646Z" fill="white"/>
<path d="M7.32812 12.5684V8.56006H10.5981V9.45667H8.34077V10.1423H10.5454V10.9862H8.34077V11.6982H10.5981V12.5684H7.32812Z" fill="white"/>
<path d="M23.3506 12.5684V8.56006H26.6206V9.45667H24.3632V10.1423H26.5573V10.9862H24.3632V11.6982H26.6206V12.5684H23.3506Z" fill="white"/>
<path d="M10.7254 12.5684L12.3175 10.589L10.6875 8.56006H11.95L12.9208 9.81431L13.8948 8.56006H15.1079L13.4993 10.5642L15.0943 12.5684H13.832L12.8895 11.3339L11.9698 12.5684H10.7254Z" fill="white"/>
<path d="M15.2119 8.56055V12.5689H16.2404V11.3031H17.2952C18.1878 11.3031 18.8643 10.8296 18.8643 9.90876C18.8643 9.14593 18.3337 8.56055 17.4254 8.56055H15.2119ZM16.2404 9.46705H17.3513C17.6396 9.46705 17.8457 9.64378 17.8457 9.92854C17.8457 10.1961 17.6406 10.39 17.348 10.39H16.2404V9.46705Z" fill="white"/>
<path d="M19.3008 8.56006V12.5684H20.3029V11.1444H20.7248L21.9263 12.5684H23.1509L21.8324 11.0917C22.3735 11.046 22.9317 10.5816 22.9317 9.86048C22.9317 9.01697 22.2697 8.56006 21.5308 8.56006H19.3008ZM20.3029 9.45667H21.4484C21.7232 9.45667 21.923 9.67162 21.923 9.87861C21.923 10.1449 21.6641 10.3005 21.4632 10.3005H20.3029V9.45667Z" fill="white"/>
<path d="M27.0852 12.5684V11.6982H29.0908C29.3875 11.6982 29.516 11.5378 29.516 11.362C29.516 11.1935 29.3879 11.0231 29.0908 11.0231H28.1845C27.3967 11.0231 26.958 10.5432 26.958 9.82257C26.958 9.17986 27.3598 8.56006 28.5304 8.56006H30.4818L30.0599 9.46194H28.3722C28.0495 9.46194 27.9502 9.63124 27.9502 9.7929C27.9502 9.95907 28.0729 10.1423 28.3194 10.1423H29.2688C30.1469 10.1423 30.528 10.6404 30.528 11.2928C30.528 11.994 30.1034 12.5684 29.221 12.5684H27.0852Z" fill="white"/>
<path d="M30.762 12.5684V11.6982H32.7675C33.0643 11.6982 33.1927 11.5378 33.1927 11.362C33.1927 11.1935 33.0647 11.0231 32.7675 11.0231H31.8612C31.0735 11.0231 30.6348 10.5432 30.6348 9.82257C30.6348 9.17986 31.0365 8.56006 32.2071 8.56006H34.1187L33.7366 9.46194H32.0489C31.7263 9.46194 31.627 9.63124 31.627 9.7929C31.627 9.95907 31.7497 10.1423 31.9962 10.1423H32.9455C33.8237 10.1423 34.2047 10.6404 34.2047 11.2928C34.2047 11.994 33.7801 12.5684 32.8977 12.5684H30.762Z" fill="white"/>
</svg>
