<svg width="22" height="14" viewBox="0 0 22 14" fill="none" xmlns="http://www.w3.org/2000/svg">
<path fill-rule="evenodd" clip-rule="evenodd" d="M11.1139 12.056C9.98308 13.0317 8.51624 13.6207 6.9134 13.6207C3.33686 13.6207 0.4375 10.688 0.4375 7.07034C0.4375 3.4527 3.33686 0.52002 6.9134 0.52002C8.51624 0.52002 9.98308 1.10902 11.1139 2.08472C12.2447 1.10902 13.7115 0.52002 15.3144 0.52002C18.8909 0.52002 21.7903 3.4527 21.7903 7.07034C21.7903 10.688 18.8909 13.6207 15.3144 13.6207C13.7115 13.6207 12.2447 13.0317 11.1139 12.056Z" fill="#ED0006"/>
<path fill-rule="evenodd" clip-rule="evenodd" d="M11.1162 12.056C12.5087 10.8545 13.3916 9.06673 13.3916 7.07034C13.3916 5.07396 12.5087 3.28616 11.1162 2.08471C12.247 1.10902 13.7139 0.52002 15.3167 0.52002C18.8932 0.52002 21.7926 3.4527 21.7926 7.07034C21.7926 10.688 18.8932 13.6207 15.3167 13.6207C13.7139 13.6207 12.247 13.0317 11.1162 12.056Z" fill="#F9A000"/>
<path fill-rule="evenodd" clip-rule="evenodd" d="M11.1143 12.056C12.5068 10.8545 13.3897 9.06673 13.3897 7.07035C13.3897 5.07396 12.5068 3.28617 11.1143 2.08472C9.72183 3.28617 8.83887 5.07396 8.83887 7.07035C8.83887 9.06673 9.72183 10.8545 11.1143 12.056Z" fill="#FF5E00"/>
</svg>
