<svg width="31" height="10" viewBox="0 0 31 10" fill="none" xmlns="http://www.w3.org/2000/svg">
<path d="M13.6352 9.82473H11.1895L12.7192 0.345581H15.1647L13.6352 9.82473Z" fill="white"/>
<path d="M22.4995 0.577393C22.0171 0.385596 21.252 0.173828 20.3059 0.173828C17.8907 0.173828 16.1899 1.46454 16.1795 3.30987C16.1595 4.67135 17.3972 5.42754 18.323 5.8815C19.2692 6.34538 19.5908 6.64816 19.5908 7.06164C19.5812 7.69668 18.8262 7.9894 18.1221 7.9894C17.1456 7.9894 16.6225 7.83848 15.8274 7.48518L15.5053 7.33372L15.1631 9.46159C15.7367 9.72348 16.7935 9.95589 17.8907 9.96608C20.4569 9.96608 22.1276 8.69534 22.1474 6.72884C22.1572 5.64977 21.5036 4.82293 20.0945 4.14729C19.2391 3.71357 18.7152 3.42111 18.7152 2.97734C18.7253 2.57391 19.1583 2.16069 20.1239 2.16069C20.919 2.14045 21.5032 2.33198 21.9457 2.52365L22.1669 2.6243L22.4995 0.577393Z" fill="white"/>
<path d="M25.7517 6.4666C25.9531 5.92204 26.7281 3.81442 26.7281 3.81442C26.718 3.83465 26.9291 3.2598 27.0499 2.9069L27.2208 3.72368C27.2208 3.72368 27.684 5.99267 27.7845 6.4666C27.4023 6.4666 26.2348 6.4666 25.7517 6.4666ZM28.7706 0.345581H26.8788C26.2955 0.345581 25.8523 0.516872 25.6006 1.13207L21.9678 9.8246H24.534C24.534 9.8246 24.9565 8.65465 25.0473 8.40267C25.3288 8.40267 27.8252 8.40267 28.1874 8.40267C28.2576 8.73547 28.4792 9.8246 28.4792 9.8246H30.7437L28.7706 0.345581Z" fill="white"/>
<path d="M9.14664 0.345581L6.75148 6.80945L6.48975 5.4985C6.04694 3.98584 4.65818 2.34236 3.1084 1.52518L5.30227 9.81468H7.88854L11.7328 0.345581H9.14664Z" fill="white"/>
<path d="M4.52692 0.345581H0.592013L0.551758 0.537132C3.62123 1.32385 5.65408 3.22019 6.48929 5.4995L5.63389 1.14248C5.49306 0.536998 5.06027 0.365554 4.52692 0.345581Z" fill="white"/>
</svg>
