<svg width="107" height="22" viewBox="0 0 107 22" fill="none" xmlns="http://www.w3.org/2000/svg">
<g clip-path="url(#clip0_56_858)">
<path d="M6.5141 8.91193L10.651 4.79435L14.7895 8.91528L17.1952 6.5181L10.651 0L4.10669 6.51643L6.5141 8.91193Z" fill="#BCBCBC"/>
<path d="M-0.000732422 10.605L2.4058 8.20868L4.81234 10.605L2.4058 13.0013L-0.000732422 10.605Z" fill="#BCBCBC"/>
<path d="M6.51405 12.2976L10.6509 16.4168L14.7894 12.2959L17.1968 14.6897L17.1952 14.6914L10.6509 21.2095L4.10664 14.6947L4.10327 14.6914L6.51405 12.2976Z" fill="#BCBCBC"/>
<path d="M16.4856 10.6057L18.8921 8.20941L21.2987 10.6057L18.8921 13.002L16.4856 10.6057Z" fill="#BCBCBC"/>
<path d="M13.092 10.6037L10.651 8.17139L8.84583 9.96885L8.63722 10.1749L8.20991 10.6004L8.20654 10.6037L8.20991 10.6088L10.651 13.0378L13.092 10.6054L13.0937 10.6037H13.092Z" fill="#BCBCBC"/>
<path d="M25.0532 5.1394H30.2886C31.5874 5.1394 32.5699 5.47444 33.2361 6.14451C33.4871 6.39203 33.6849 6.68775 33.8177 7.01372C33.9504 7.33969 34.0153 7.68912 34.0083 8.04081V8.07263C34.0128 8.36074 33.9725 8.6478 33.8888 8.92362C33.8143 9.16107 33.7061 9.38671 33.5675 9.59369C33.4383 9.78888 33.282 9.96485 33.1032 10.1163C32.9285 10.2661 32.7371 10.3953 32.5329 10.5016C33.1219 10.7059 33.6517 11.0511 34.0756 11.5067C34.4502 11.9311 34.6375 12.5174 34.6375 13.2657V13.2975C34.6481 13.7648 34.546 14.2278 34.3397 14.6477C34.1398 15.0345 33.8467 15.3661 33.4867 15.6126C33.0797 15.8843 32.6266 16.0801 32.1493 16.1905C31.5822 16.3244 31.0009 16.3891 30.4182 16.3832H25.0532V5.1394ZM29.7637 9.68583C30.2167 9.70763 30.6675 9.61058 31.0709 9.4044C31.2283 9.31289 31.3567 9.17934 31.4418 9.01887C31.5268 8.8584 31.565 8.67743 31.5521 8.49645V8.46463C31.5604 8.29787 31.5264 8.13172 31.4532 7.98151C31.3799 7.83131 31.2699 7.70191 31.1332 7.60526C30.8539 7.40759 30.4507 7.30876 29.9236 7.30876H27.4741V9.68583H29.7637ZM30.4249 14.2172C30.8762 14.2424 31.3254 14.1395 31.7203 13.9207C31.8741 13.8222 31.9987 13.6845 32.0809 13.5219C32.1632 13.3593 32.2002 13.1777 32.188 12.996V12.9641C32.194 12.7914 32.1575 12.6199 32.0815 12.4645C32.0056 12.3092 31.8925 12.1747 31.7523 12.073C31.4629 11.8496 30.9952 11.7379 30.3492 11.7379H27.4741V14.2172H30.4249Z" fill="#BCBCBC"/>
<path d="M37.7563 5.1394H40.2411V16.3865H37.7563V5.1394Z" fill="#BCBCBC"/>
<path d="M44.0012 5.1394H46.2926L51.5885 12.0612V5.1394H54.0414V16.3865H51.9267L46.4574 9.23688V16.3865H44.0012V5.1394Z" fill="#BCBCBC"/>
<path d="M61.5649 5.05908H63.8529L68.6929 16.3866H66.0988L65.0658 13.8638H60.2897L59.2567 16.3866H56.7231L61.5649 5.05908ZM64.1792 11.6794L62.6752 8.03084L61.178 11.6794H64.1792Z" fill="#BCBCBC"/>
<path d="M71.3796 5.1394H73.671L78.9636 12.0612V5.1394H81.4164V16.3865H79.3017L73.8325 9.23688V16.3865H71.3796V5.1394Z" fill="#BCBCBC"/>
<path d="M90.3596 16.5843C89.5677 16.5911 88.7826 16.4383 88.0514 16.1354C87.3631 15.8523 86.7386 15.435 86.2148 14.908C85.691 14.3809 85.2784 13.7547 85.0014 13.0664C84.7091 12.3465 84.561 11.5765 84.5656 10.7999V10.7681C84.5526 9.23737 85.1441 7.76283 86.2126 6.66224C86.7384 6.12464 87.3678 5.69842 88.0632 5.40921C88.8196 5.09723 89.6318 4.94164 90.4504 4.95189C90.9346 4.94829 91.418 4.99149 91.8939 5.08088C92.301 5.15755 92.699 5.276 93.0816 5.43434C93.4288 5.57985 93.7588 5.76299 94.0658 5.98045C94.3653 6.19253 94.6466 6.42898 94.9069 6.68737L93.3272 8.50326C92.9235 8.13244 92.4707 7.81849 91.9814 7.57019C91.5006 7.3413 90.9731 7.22661 90.4403 7.23515C89.9969 7.23044 89.5576 7.31972 89.1515 7.49706C88.7455 7.67439 88.3819 7.93573 88.0851 8.26371C87.7907 8.59085 87.5602 8.96977 87.4054 9.38105C87.2433 9.81568 87.1618 10.276 87.1648 10.7396V10.7714C87.1633 11.2344 87.2447 11.6939 87.4054 12.1283C87.5583 12.5411 87.7864 12.9222 88.0783 13.2524C88.3728 13.5844 88.7355 13.8496 89.1419 14.03C89.5482 14.2103 89.9887 14.3016 90.4336 14.2977C91.0001 14.3155 91.5623 14.1941 92.0705 13.9442C92.5544 13.6817 93.0017 13.3573 93.4012 12.9793L94.9826 14.5707C94.7034 14.8725 94.4014 15.1525 94.0792 15.4083C93.7627 15.6575 93.419 15.8705 93.0547 16.0432C92.6664 16.2252 92.2574 16.3596 91.8367 16.4436C91.3504 16.5407 90.8555 16.5878 90.3596 16.5843Z" fill="#BCBCBC"/>
<path d="M97.9148 5.1394H106.416V7.34058H100.359V9.62217H105.692V11.8234H100.368V14.1853H106.5V16.3865H97.9198L97.9148 5.1394Z" fill="#BCBCBC"/>
</g>
<defs>
<clipPath id="clip0_56_858">
<rect width="106.498" height="21.2094" fill="white"/>
</clipPath>
</defs>
</svg>
