<svg width="116" height="20" viewBox="0 0 116 20" fill="none" xmlns="http://www.w3.org/2000/svg">
<path d="M17.4461 11.829C17.101 12.0399 16.6984 12.0782 16.3917 11.9057C16.0083 11.6756 15.7782 11.158 15.7782 10.4486V8.28221C15.7782 7.24693 15.3756 6.49923 14.6854 6.30751C13.5159 5.96242 12.634 7.40031 12.3081 7.93712L10.2376 11.2538V7.17024C10.2184 6.23083 9.91163 5.67485 9.33648 5.5023C8.95305 5.38727 8.37789 5.44479 7.82191 6.28835L3.20151 13.6886C2.58801 12.5192 2.26209 11.2155 2.26209 9.89264C2.26209 5.42561 5.84722 1.80215 10.2376 1.80215C14.6279 1.80215 18.213 5.42561 18.213 9.89264V9.91181V9.93098C18.2514 10.7937 17.983 11.4839 17.4461 11.829ZM19.9768 9.89264V9.87347V9.85429C19.9576 4.42868 15.5865 0 10.2376 0C4.86946 0 0.498291 4.42868 0.498291 9.89264C0.498291 15.3374 4.86946 19.7853 10.2376 19.7853C12.7107 19.7853 15.0497 18.8459 16.8518 17.1396C17.2161 16.7945 17.2353 16.2385 16.8902 15.8742C16.5642 15.51 16.0083 15.4908 15.644 15.8167C15.644 15.8167 15.644 15.8167 15.6248 15.8359C14.1678 17.2163 12.2122 18.0023 10.1992 18.0023C7.84108 18.0023 5.73219 16.967 4.27513 15.3182L8.43541 8.64647V11.7331C8.43541 13.2094 9.01056 13.6887 9.48985 13.8229C9.96915 13.9571 10.6977 13.8612 11.4837 12.615L13.7652 8.91488C13.8418 8.79985 13.8994 8.68481 13.9761 8.60813V10.487C13.9761 11.8673 14.532 12.9793 15.4906 13.5161C16.3534 14.0146 17.4461 13.9571 18.3472 13.4011C19.4592 12.6725 20.0535 11.4072 19.9768 9.89264ZM33.5504 6.5184C33.7805 6.65261 33.9914 6.97853 33.9914 7.2661C33.9914 7.72623 33.608 8.10967 33.167 8.10967C33.052 8.10967 32.9561 8.07132 32.8603 8.05215C32.3426 7.66871 31.6908 7.41948 31.0006 7.41948C29.371 7.41948 28.259 8.74233 28.259 10.3911C28.259 12.0399 29.3902 13.3436 31.0006 13.3436C31.8058 13.3436 32.5343 13.0176 33.0711 12.5C33.2053 12.4041 33.3779 12.3466 33.5504 12.3466C33.9914 12.3466 34.3365 12.6917 34.3365 13.1327C34.3365 13.4202 34.1639 13.6695 33.953 13.8037C33.167 14.4747 32.1126 14.9156 31.0198 14.9156C28.5274 14.9156 26.4952 12.8643 26.4952 10.3336C26.4952 7.80291 28.5274 5.75153 31.0198 5.75153C31.94 5.73236 32.8219 6.01994 33.5504 6.5184ZM38.1133 8.43558C39.8196 8.43558 41.2383 9.87347 41.2383 11.6564C41.2383 13.4202 39.8004 14.9348 38.1133 14.9348C36.3303 14.9348 34.8541 13.4394 34.8541 11.6564C34.8541 9.87347 36.3303 8.43558 38.1133 8.43558ZM38.0942 13.3436C38.8419 13.3436 39.4745 12.6342 39.4745 11.6756C39.4745 10.717 38.8419 10.1035 38.0942 10.1035C37.2889 10.1035 36.6179 10.6979 36.6179 11.6756C36.6179 12.615 37.2889 13.3436 38.0942 13.3436ZM42.3119 13.9379V9.41334C42.3119 8.91488 42.6954 8.51227 43.1938 8.51227C43.6731 8.51227 44.0757 8.91488 44.0757 9.41334V13.9379C44.0757 14.4364 43.6731 14.839 43.1938 14.839C42.7145 14.839 42.3119 14.4172 42.3119 13.9379ZM42.1777 6.80598C42.1777 6.21166 42.6379 5.75153 43.1938 5.75153C43.769 5.75153 44.2291 6.23083 44.2291 6.80598C44.2291 7.38113 43.769 7.84126 43.1938 7.84126C42.6187 7.82208 42.1777 7.36196 42.1777 6.80598ZM47.45 11.4839V13.9379C47.45 14.4364 47.0474 14.839 46.5681 14.839C46.0888 14.839 45.6862 14.4364 45.6862 13.9379V9.20245C45.6862 8.81902 45.9929 8.51227 46.3764 8.51227C46.7598 8.51227 47.0474 8.83819 47.0474 9.20245C47.7567 8.53144 48.3894 8.43558 48.9837 8.43558C50.7475 8.43558 51.5336 9.75844 51.5336 11.273V13.9379C51.5336 14.4364 51.131 14.839 50.6517 14.839C50.1724 14.839 49.7698 14.4364 49.7698 13.9379V11.4839C49.7698 10.717 49.6739 10.0652 48.5619 10.0652C47.7759 10.0652 47.45 10.717 47.45 11.4839ZM57.2468 12.4233C57.0359 12.4233 56.9017 12.3275 56.7866 12.1933L54.7353 9.96933V13.9379C54.7353 14.4364 54.3326 14.839 53.8533 14.839C53.3741 14.839 52.9714 14.4364 52.9714 13.9379V6.07746C53.029 5.94325 53.1632 5.84739 53.2974 5.84739C53.4507 5.84739 53.5849 5.9816 53.6808 6.07746L56.9592 9.75843C57.055 9.87346 57.1701 9.93098 57.2468 9.93098C57.3043 9.93098 57.4385 9.87346 57.5343 9.75843L60.8127 6.07746C60.9086 5.9816 61.0236 5.84739 61.1961 5.84739C61.3495 5.84739 61.4837 5.94325 61.5221 6.07746V13.9379C61.5221 14.4364 61.1386 14.839 60.6402 14.839C60.1609 14.839 59.7583 14.4364 59.7583 13.9379V9.96933L57.7069 12.1933C57.5535 12.3275 57.4193 12.4233 57.2468 12.4233ZM65.7207 13.3436C66.5067 13.3436 67.1777 12.6342 67.1777 11.6756C67.1777 10.717 66.4875 10.0844 65.7207 10.0844C64.9538 10.0844 64.3211 10.7362 64.3211 11.6756C64.3211 12.5959 64.9346 13.3436 65.7207 13.3436ZM67.5995 14.1488L67.5612 13.9379C67.2161 14.6089 66.1233 14.9156 65.4331 14.9156C63.7843 14.9156 62.5573 13.4202 62.5573 11.6373C62.5573 9.87347 63.8035 8.41641 65.529 8.41641C65.8165 8.41641 66.8135 8.4931 67.5803 9.39417L67.6187 9.18328C67.6187 8.79985 67.9063 8.4931 68.2897 8.4931C68.6731 8.4931 68.9799 8.81902 68.9799 9.18328V14.1296C68.9799 14.513 68.6731 14.8198 68.2897 14.8198C67.8871 14.839 67.5995 14.513 67.5995 14.1488ZM73.8303 10.0652H73.6386C72.5267 10.1227 72.3158 10.7554 72.3158 11.4839V13.9379C72.3158 14.4364 71.9132 14.839 71.4339 14.839C70.9546 14.839 70.552 14.4364 70.552 13.9379V9.20245C70.552 8.81902 70.8587 8.51227 71.2422 8.51227C71.6256 8.51227 71.9132 8.83819 71.9132 9.20245C72.565 8.58896 73.1018 8.45475 73.6386 8.43558H73.8112C74.2329 8.43558 74.6164 8.79985 74.6164 9.25997C74.6356 9.68175 74.2521 10.0652 73.8303 10.0652ZM80.6363 13.5161C80.713 13.6503 80.7705 13.7845 80.7705 13.9379C80.7705 14.398 80.3487 14.8198 79.8886 14.8198C79.5819 14.8198 79.3135 14.5897 79.1026 14.3213L77.0704 11.9632V13.9187C77.0704 14.4172 76.6678 14.8198 76.1885 14.8198C75.7092 14.8198 75.3066 14.4172 75.3066 13.9187V6.7293C75.3066 6.23083 75.69 5.82822 76.1885 5.82822C76.6869 5.82822 77.0704 6.23083 77.0704 6.7293V11.2155L79.1026 8.9724C79.3135 8.74233 79.5627 8.4931 79.8695 8.4931C80.3104 8.4931 80.713 8.89571 80.713 9.35583C80.713 9.49003 80.6747 9.6434 80.598 9.75843L78.9875 11.5222L80.6363 13.5161ZM84.0872 10.0844C83.608 10.0844 82.8219 10.3336 82.8219 11.0813H85.3717C85.3526 10.3336 84.5474 10.0844 84.0872 10.0844ZM86.3879 12.2124H82.8219C82.8219 13.2669 83.838 13.4394 84.279 13.4394C84.6049 13.4394 85.065 13.3819 85.4293 13.2094C85.5443 13.1327 85.7169 13.0752 85.8894 13.0752C86.2728 13.0752 86.5987 13.4011 86.5987 13.8037C86.5987 14.0721 86.4262 14.3022 86.2153 14.4364C85.6785 14.839 84.9691 14.9348 84.2981 14.9348C82.5152 14.9348 81.0389 13.9762 81.0389 11.7331C81.0389 9.96933 81.94 8.43558 84.0489 8.43558C85.7552 8.43558 87.0397 9.54755 87.078 11.5222C87.078 11.8865 86.7713 12.2124 86.3879 12.2124ZM91.2958 14.9156H90.8165C89.4745 14.9156 88.6885 14.3213 88.6885 12.2316V10.0652H88.2283C87.8066 10.0652 87.4423 9.68175 87.4423 9.25997C87.4423 8.79985 87.8257 8.43558 88.2283 8.43558H88.6885V6.76764C88.6885 6.26918 89.0719 5.86657 89.5704 5.86657C90.0497 5.86657 90.4523 6.26918 90.4523 6.76764V8.43558H91.1808C91.6026 8.43558 91.9668 8.79985 91.9668 9.25997C91.9668 9.68175 91.5834 10.0652 91.1808 10.0652H90.4523V11.8865C90.4523 13.0943 90.5098 13.3436 91.0466 13.3436H91.2958C91.7176 13.3436 92.0819 13.6887 92.0819 14.1296C92.0819 14.5514 91.7176 14.9156 91.2958 14.9156ZM99.8273 6.5184C100.057 6.65261 100.268 6.97853 100.268 7.2661C100.268 7.72623 99.8848 8.10967 99.4438 8.10967C99.3288 8.10967 99.233 8.07132 99.1371 8.05215C98.6195 7.66871 97.9676 7.41948 97.2774 7.41948C95.6478 7.41948 94.5359 8.74233 94.5359 10.3911C94.5359 12.0399 95.667 13.3436 97.2774 13.3436C98.0826 13.3436 98.8112 13.0176 99.348 12.5C99.4822 12.4041 99.6547 12.3466 99.8273 12.3466C100.268 12.3466 100.613 12.6917 100.613 13.1327C100.613 13.4202 100.441 13.6695 100.23 13.8037C99.4438 14.4747 98.3894 14.9156 97.2966 14.9156C94.8043 14.9156 92.7721 12.8643 92.7721 10.3336C92.7721 7.80291 94.8043 5.75153 97.2966 5.75153C98.2168 5.73236 99.1179 6.01994 99.8273 6.5184ZM104.294 13.3436C105.08 13.3436 105.751 12.6342 105.751 11.6756C105.751 10.717 105.061 10.0844 104.294 10.0844C103.508 10.0844 102.895 10.7362 102.895 11.6756C102.895 12.5959 103.527 13.3436 104.294 13.3436ZM106.173 14.1488L106.135 13.9379C105.79 14.6089 104.697 14.9156 104.007 14.9156C102.358 14.9156 101.131 13.4202 101.131 11.6373C101.131 9.87347 102.377 8.41641 104.103 8.41641C104.39 8.41641 105.387 8.4931 106.154 9.39417L106.192 9.18328C106.192 8.79985 106.48 8.4931 106.863 8.4931C107.247 8.4931 107.553 8.81902 107.553 9.18328V14.1296C107.553 14.513 107.247 14.8198 106.863 14.8198C106.461 14.839 106.173 14.513 106.173 14.1488ZM112.366 13.3436C113.152 13.3436 113.765 12.5959 113.765 11.6756C113.765 10.717 113.132 10.0844 112.366 10.0844C111.58 10.0844 110.909 10.717 110.909 11.6756C110.909 12.6342 111.58 13.3436 112.366 13.3436ZM110.909 14.398V16.6411C110.909 17.1396 110.506 17.5422 110.027 17.5422C109.547 17.5422 109.145 17.1396 109.145 16.6411V9.20245C109.145 8.81902 109.452 8.51227 109.835 8.51227C110.218 8.51227 110.506 8.83819 110.506 9.27914C111.158 8.60813 111.963 8.43558 112.577 8.43558C114.283 8.43558 115.548 9.87347 115.548 11.6564C115.548 13.4202 114.34 14.9348 112.672 14.9348C112.155 14.9156 111.388 14.7623 110.909 14.398Z" fill="#BCBCBC"/>
</svg>
