<svg width="172" height="51" viewBox="0 0 172 51" fill="none" xmlns="http://www.w3.org/2000/svg">
<path d="M21.8285 17.9921C21.0246 17.9921 20.2536 17.6631 19.6848 17.0774C19.1161 16.4917 18.7959 15.6972 18.7948 14.8683C18.7903 14.1061 19.0619 13.3697 19.5564 12.8032C20.4568 11.7531 20.9538 10.3999 20.9538 8.99823C20.9538 7.59661 20.4568 6.24335 19.5564 5.1933C19.0636 4.6257 18.7923 3.88995 18.7948 3.12814C18.7796 2.70783 18.8468 2.28869 18.9923 1.89577C19.1378 1.50284 19.3587 1.14421 19.6417 0.84132C19.9247 0.538428 20.264 0.297495 20.6394 0.13293C21.0148 -0.0316361 21.4185 -0.116455 21.8264 -0.116455C22.2343 -0.116455 22.638 -0.0316361 23.0133 0.13293C23.3887 0.297495 23.728 0.538428 24.011 0.84132C24.294 1.14421 24.5149 1.50284 24.6604 1.89577C24.8059 2.28869 24.8731 2.70783 24.8579 3.12814C24.8636 3.89443 24.592 4.63538 24.0963 5.20632C23.196 6.25636 22.699 7.60962 22.699 9.01125C22.699 10.4129 23.196 11.7661 24.0963 12.8162C24.5909 13.3827 24.8624 14.1192 24.8579 14.8813C24.8535 15.7072 24.5325 16.4978 23.9649 17.0805C23.3974 17.6633 22.6294 17.991 21.8285 17.9921Z" fill="#F79C03"/>
<path d="M12.8962 23.3112C12.3631 23.3061 11.8407 23.1565 11.3815 22.8773C10.7371 22.5048 10.252 21.8963 10.0224 21.1723C9.65046 20.0336 8.94105 19.0441 7.99435 18.3434C7.04765 17.6428 5.91147 17.2665 4.74618 17.2676C4.37015 17.2659 3.99501 17.3052 3.62697 17.3847C3.43155 17.4244 3.23289 17.4448 3.03371 17.4454C2.50072 17.4398 1.97847 17.2902 1.519 17.0116C0.8276 16.5947 0.324124 15.9129 0.118397 15.1147C-0.0873305 14.3166 0.0213851 13.4669 0.420829 12.7511C0.61918 12.395 0.883774 12.0827 1.19943 11.8323C1.51508 11.5819 1.87559 11.3982 2.26025 11.2918C2.64492 11.1854 3.04618 11.1583 3.441 11.2122C3.83583 11.2661 4.21646 11.3998 4.56105 11.6057C5.19193 11.9888 5.66491 12.5969 5.89063 13.3151C6.31999 14.6458 7.20762 15.768 8.38546 16.4692C9.5633 17.1704 10.9496 17.402 12.2819 17.12C12.4797 17.0767 12.6813 17.0549 12.8836 17.055C13.6881 17.055 14.4597 17.3845 15.0287 17.9712C15.5976 18.5578 15.9172 19.3535 15.9172 20.1831C15.9172 21.0127 15.5976 21.8084 15.0287 22.395C14.4597 22.9816 13.6881 23.3112 12.8836 23.3112H12.8962Z" fill="#F79C03"/>
<path d="M3.03779 39.8151C2.23322 39.8151 1.4616 39.4856 0.892682 38.8989C0.323765 38.3123 0.00415039 37.5166 0.00415039 36.687C0.00415039 35.8574 0.323765 35.0617 0.892682 34.4751C1.4616 33.8885 2.23322 33.5589 3.03779 33.5589C3.2386 33.5591 3.43884 33.5809 3.63526 33.624C4.96816 33.9067 6.35531 33.6749 7.53346 32.9727C8.71161 32.2705 9.59875 31.1468 10.0265 29.8147C10.2604 29.0932 10.7444 28.486 11.3855 28.1096C11.7301 27.9037 12.1108 27.77 12.5056 27.7161C12.9004 27.6623 13.3017 27.6893 13.6863 27.7957C14.071 27.9021 14.4315 28.0858 14.7472 28.3363C15.0628 28.5867 15.3274 28.8989 15.5258 29.255C15.7249 29.6105 15.8541 30.003 15.9061 30.41C15.958 30.817 15.9317 31.2305 15.8285 31.627C15.7253 32.0235 15.5474 32.3951 15.3049 32.7207C15.0623 33.0462 14.7599 33.3192 14.415 33.5242C13.9578 33.8047 13.4364 33.9545 12.9045 33.9581C12.7039 33.9576 12.5038 33.9373 12.307 33.8973C11.9391 33.8164 11.564 33.7757 11.1878 33.7758C10.0227 33.7754 8.88676 34.152 7.94018 34.8525C6.99361 35.5531 6.28406 36.5422 5.91154 37.6806C5.67954 38.403 5.1971 39.0117 4.55671 39.39C4.09518 39.6662 3.57144 39.8128 3.03779 39.8151Z" fill="#F79C03"/>
<path d="M21.8285 51C21.0246 51 20.2536 50.671 19.6848 50.0853C19.1161 49.4996 18.7959 48.7051 18.7948 47.8762C18.7903 47.1141 19.0619 46.3776 19.5564 45.8111C20.4568 44.761 20.9538 43.4078 20.9538 42.0061C20.9538 40.6045 20.4568 39.2513 19.5564 38.2012C19.0636 37.6336 18.7923 36.8979 18.7948 36.136C18.7796 35.7157 18.8468 35.2966 18.9923 34.9037C19.1378 34.5107 19.3587 34.1521 19.6417 33.8492C19.9247 33.5463 20.264 33.3054 20.6394 33.1408C21.0148 32.9763 21.4185 32.8914 21.8264 32.8914C22.2343 32.8914 22.638 32.9763 23.0133 33.1408C23.3887 33.3054 23.728 33.5463 24.011 33.8492C24.294 34.1521 24.5149 34.5107 24.6604 34.9037C24.8059 35.2966 24.8731 35.7157 24.8579 36.136C24.8616 36.8981 24.5902 37.6343 24.0963 38.2012C23.196 39.2513 22.699 40.6045 22.699 42.0061C22.699 43.4078 23.196 44.761 24.0963 45.8111C24.5876 46.3793 24.8574 47.115 24.8537 47.8762C24.8526 48.7036 24.5336 49.4968 23.9666 50.0823C23.3997 50.6677 22.6308 50.9977 21.8285 51Z" fill="#F79C03"/>
<path d="M40.6153 39.8152C40.0823 39.8095 39.5601 39.6599 39.1006 39.3813C38.46 39.0045 37.9785 38.395 37.75 37.6719C37.3756 36.5339 36.665 35.5454 35.7179 34.8451C34.7709 34.1447 33.6349 33.7678 32.4695 33.7672C32.0934 33.7673 31.7183 33.808 31.3503 33.8887C31.1549 33.9284 30.9563 33.9487 30.7571 33.9494C30.2241 33.9437 29.7018 33.7941 29.2424 33.5155C28.8974 33.3106 28.595 33.0376 28.3525 32.712C28.1099 32.3865 27.932 32.0149 27.8288 31.6184C27.7257 31.2219 27.6993 30.8083 27.7512 30.4013C27.8032 29.9943 27.9324 29.6018 28.1316 29.2464C28.3303 28.8901 28.5953 28.5778 28.9113 28.3273C29.2274 28.0768 29.5882 27.8931 29.9732 27.7867C30.3582 27.6803 30.7598 27.6533 31.155 27.7072C31.5501 27.7612 31.9311 27.895 32.276 28.101C32.9166 28.4778 33.3982 29.0873 33.6266 29.8104C34.001 30.9484 34.7116 31.9369 35.6587 32.6372C36.6057 33.3375 37.7417 33.7145 38.9071 33.7151C39.2816 33.7144 39.6551 33.6751 40.0221 33.598C40.2185 33.5549 40.4187 33.5331 40.6195 33.5329C41.1525 33.5386 41.6748 33.6882 42.1343 33.9668C42.4792 34.1717 42.7816 34.4447 43.0241 34.7703C43.2667 35.0958 43.4446 35.4674 43.5478 35.8639C43.651 36.2604 43.6773 36.674 43.6254 37.081C43.5734 37.488 43.4442 37.8804 43.245 38.2359C42.9795 38.7138 42.5967 39.1112 42.1351 39.3884C41.6736 39.6656 41.1495 39.8128 40.6153 39.8152Z" fill="#F79C03"/>
<path d="M30.7612 23.3112C29.9566 23.3112 29.185 22.9816 28.6161 22.395C28.0472 21.8084 27.7275 21.0127 27.7275 20.1831C27.7275 19.3534 28.0472 18.5578 28.6161 17.9712C29.185 17.3845 29.9566 17.055 30.7612 17.055C30.9606 17.0549 31.1595 17.0767 31.3544 17.12C31.7228 17.1972 32.0977 17.2364 32.4736 17.2372C33.6393 17.2378 34.7759 16.8614 35.7232 16.1609C36.6705 15.4604 37.3808 14.4712 37.7541 13.3325C37.9826 12.6093 38.4641 11.9999 39.1047 11.6231C39.4496 11.417 39.8306 11.2832 40.2257 11.2293C40.6209 11.1754 41.0225 11.2024 41.4075 11.3088C41.7925 11.4152 42.1533 11.5989 42.4694 11.8494C42.7854 12.0999 43.0504 12.4122 43.2492 12.7684C43.4483 13.1239 43.5775 13.5164 43.6295 13.9234C43.6814 14.3304 43.6551 14.7439 43.5519 15.1404C43.4487 15.5369 43.2708 15.9086 43.0282 16.2341C42.7857 16.5596 42.4833 16.8327 42.1384 17.0376C41.6791 17.3168 41.1567 17.4664 40.6236 17.4715C40.4245 17.4708 40.2258 17.4505 40.0304 17.4107C39.6625 17.33 39.2873 17.2893 38.9112 17.2892C37.7458 17.2899 36.6098 17.6668 35.6628 18.3671C34.7157 19.0674 34.0051 20.056 33.6307 21.194C33.4023 21.9171 32.9207 22.5265 32.2801 22.9034C31.817 23.1736 31.2933 23.3142 30.7612 23.3112Z" fill="#F79C03"/>
<path d="M21.8286 28.6303C23.504 28.6303 24.8622 27.2298 24.8622 25.5022C24.8622 23.7746 23.504 22.3741 21.8286 22.3741C20.1531 22.3741 18.7949 23.7746 18.7949 25.5022C18.7949 27.2298 20.1531 28.6303 21.8286 28.6303Z" fill="#F79C03"/>
<path d="M30.1384 13.7793C31.8138 13.7793 33.172 12.3788 33.172 10.6512C33.172 8.92361 31.8138 7.5231 30.1384 7.5231C28.4629 7.5231 27.1047 8.92361 27.1047 10.6512C27.1047 12.3788 28.4629 13.7793 30.1384 13.7793Z" fill="#F79C03"/>
<path d="M13.5143 13.7793C15.1898 13.7793 16.548 12.3788 16.548 10.6512C16.548 8.92361 15.1898 7.5231 13.5143 7.5231C11.8389 7.5231 10.4807 8.92361 10.4807 10.6512C10.4807 12.3788 11.8389 13.7793 13.5143 13.7793Z" fill="#F79C03"/>
<path d="M5.20038 28.6303C6.87581 28.6303 8.23402 27.2298 8.23402 25.5022C8.23402 23.7746 6.87581 22.3741 5.20038 22.3741C3.52495 22.3741 2.16675 23.7746 2.16675 25.5022C2.16675 27.2298 3.52495 28.6303 5.20038 28.6303Z" fill="#F79C03"/>
<path d="M13.5143 43.4769C15.1898 43.4769 16.548 42.0764 16.548 40.3488C16.548 38.6212 15.1898 37.2207 13.5143 37.2207C11.8389 37.2207 10.4807 38.6212 10.4807 40.3488C10.4807 42.0764 11.8389 43.4769 13.5143 43.4769Z" fill="#F79C03"/>
<path d="M30.1384 43.4769C31.8138 43.4769 33.172 42.0764 33.172 40.3488C33.172 38.6212 31.8138 37.2207 30.1384 37.2207C28.4629 37.2207 27.1047 38.6212 27.1047 40.3488C27.1047 42.0764 28.4629 43.4769 30.1384 43.4769Z" fill="#F79C03"/>
<path d="M38.4526 28.6303C40.128 28.6303 41.4862 27.2298 41.4862 25.5022C41.4862 23.7746 40.128 22.3741 38.4526 22.3741C36.7772 22.3741 35.4189 23.7746 35.4189 25.5022C35.4189 27.2298 36.7772 28.6303 38.4526 28.6303Z" fill="#F79C03"/>
<path d="M54.803 16.9812L55.1648 15.5885C55.9977 15.5707 56.8262 15.718 57.6052 16.0224C58.1911 16.2445 58.7024 16.6361 59.0778 17.1504C59.4134 17.6392 59.5874 18.2264 59.5743 18.8251C59.61 19.3641 59.5056 19.9032 59.2719 20.3867C59.0382 20.8702 58.6836 21.2807 58.2447 21.5758C57.357 22.1745 56.1031 22.4695 54.458 22.4695C54.1424 22.4695 53.7974 22.4695 53.4229 22.4392C53.0477 22.4211 52.6739 22.3791 52.3037 22.3133C51.9536 22.2536 51.6068 22.1754 51.2644 22.0791C51.0048 22.0238 50.7711 21.8789 50.6021 21.6683C50.433 21.4577 50.3387 21.194 50.3346 20.9207V11.2803C50.3291 11.1784 50.3443 11.0764 50.379 10.9808C50.4138 10.8852 50.4674 10.7981 50.5365 10.725C50.6813 10.578 50.8614 10.4732 51.0583 10.4213C51.5469 10.2645 52.0505 10.1626 52.5604 10.1176C53.1475 10.0559 53.7373 10.0254 54.3275 10.0265C55.8465 10.0265 57.0246 10.3042 57.8619 10.8508C58.2706 11.1141 58.6034 11.4856 58.8254 11.9267C59.0475 12.3678 59.1506 12.8623 59.1241 13.3585C59.1339 13.9252 58.964 14.4797 58.6403 14.9378C58.2735 15.418 57.7817 15.7807 57.2223 15.9834C56.4489 16.2517 55.6355 16.3766 54.8198 16.3521L54.6683 15.159C55.2202 15.203 55.7699 15.0498 56.2251 14.7252C56.3972 14.5784 56.5333 14.392 56.6224 14.181C56.7116 13.9699 56.7514 13.7402 56.7385 13.5104C56.7489 13.2801 56.6999 13.0512 56.5964 12.8469C56.4929 12.6426 56.3386 12.4703 56.1494 12.3476C55.61 12.0414 54.9966 11.9013 54.3822 11.9441C54.0667 11.9441 53.7637 11.9441 53.4692 11.9832C53.1747 12.0222 52.9306 12.0439 52.7287 12.083V20.3263C53.0158 20.3995 53.3087 20.446 53.6038 20.4651C53.9446 20.4911 54.2812 20.5042 54.6094 20.5042C55.2552 20.5422 55.8983 20.3918 56.465 20.0703C56.6658 19.9205 56.8307 19.7253 56.9471 19.4996C57.0634 19.2739 57.1281 19.0238 57.1363 18.7683C57.1444 18.5128 57.0957 18.2589 56.9939 18.0258C56.8922 17.7928 56.74 17.5868 56.5491 17.4238C56.026 17.0922 55.4155 16.9374 54.803 16.9812ZM56.486 15.159V16.9812H51.8956V15.159H56.486Z" fill="white"/>
<path d="M66.0582 18.0008H61.918V11.2803C61.9124 11.18 61.9271 11.0797 61.9611 10.9856C61.9952 10.8914 62.0478 10.8057 62.1157 10.7337C62.2696 10.5885 62.4518 10.479 62.6501 10.4126C63.1185 10.2688 63.5988 10.1701 64.0848 10.1176C64.6436 10.0514 65.2055 10.0181 65.7679 10.0178C67.4509 10.0178 68.6921 10.3779 69.521 11.0894C69.9359 11.4444 70.2656 11.8934 70.4846 12.4013C70.7035 12.9093 70.8057 13.4626 70.7832 14.018C70.7957 14.755 70.5935 15.4789 70.2026 16.0961C69.801 16.7119 69.2397 17.199 68.5827 17.5018C67.7866 17.8563 66.9249 18.0266 66.0582 18.0008ZM61.918 17.1331H64.3289V22.1528C64.1786 22.2051 64.0235 22.2415 63.8661 22.2613C63.6488 22.295 63.4293 22.311 63.2097 22.309C62.8603 22.3415 62.5108 22.2479 62.2209 22.0443C62.11 21.9282 62.0253 21.7883 61.973 21.6346C61.9206 21.4808 61.9018 21.317 61.918 21.1549V17.1331ZM64.3247 16.0528H65.9025C66.5351 16.0843 67.1607 15.9048 67.6865 15.5408C67.9107 15.3663 68.089 15.1368 68.2051 14.8731C68.3212 14.6093 68.3715 14.3199 68.3513 14.031C68.3679 13.7457 68.3159 13.4605 68.1999 13.2009C68.084 12.9413 67.9076 12.7153 67.6865 12.5428C67.1029 12.1644 66.4178 11.9866 65.73 12.0352C65.4775 12.0352 65.2293 12.0352 64.9895 12.0656C64.7664 12.0814 64.5445 12.1103 64.3247 12.1524V16.0528ZM65.751 17.3543L67.8001 16.7469C68.1199 17.1808 68.4439 17.6146 68.7805 18.0485C69.1171 18.4824 69.441 18.9162 69.7482 19.324C70.0553 19.7319 70.3373 20.1137 70.5897 20.4521C70.8422 20.7905 71.0315 21.0725 71.1703 21.2938C71.0941 21.6015 70.9154 21.8718 70.6654 22.0573C70.4172 22.2312 70.124 22.3241 69.8239 22.3241C69.5238 22.3241 69.2307 22.2312 68.9824 22.0573C68.7482 21.8541 68.5465 21.614 68.385 21.3458L65.751 17.3543Z" fill="white"/>
<path d="M75.4999 17.2372H73.1016V10.2955C73.2068 10.2694 73.3624 10.2347 73.5686 10.1957C73.7783 10.1573 73.9909 10.1385 74.2039 10.1393C74.5504 10.1075 74.8974 10.1928 75.1927 10.3822C75.3078 10.5 75.3953 10.6432 75.4485 10.8011C75.5018 10.959 75.5193 11.1274 75.4999 11.2933V17.2372ZM77.8939 22.4869C77.0037 22.5096 76.1206 22.318 75.3147 21.9272C74.6261 21.585 74.0541 21.036 73.6738 20.3523C73.2865 19.6199 73.0921 18.7957 73.11 17.9617V16.5474H75.5083V17.8489C75.4855 18.2012 75.5336 18.5545 75.6494 18.8867C75.7653 19.2189 75.9464 19.5229 76.1815 19.7796C76.6525 20.2156 77.2631 20.4568 77.896 20.4568C78.529 20.4568 79.1396 20.2156 79.6106 19.7796C79.8492 19.5249 80.0335 19.2216 80.1516 18.8891C80.2697 18.5566 80.3191 18.2023 80.2965 17.8489V16.5474H82.7074V17.9617C82.726 18.7963 82.53 19.6211 82.1394 20.3523C81.7545 21.0338 81.1818 21.582 80.4942 21.9272C79.6825 22.3229 78.7914 22.5147 77.8939 22.4869ZM82.699 17.2545H80.288V10.3128C80.389 10.2868 80.5447 10.2521 80.7635 10.213C80.9761 10.1749 81.1915 10.156 81.4072 10.1566C81.7508 10.128 82.0942 10.2131 82.3876 10.3996C82.5042 10.5163 82.5931 10.6593 82.6471 10.8174C82.7011 10.9755 82.7189 11.1443 82.699 11.3107V17.2545Z" fill="white"/>
<path d="M95.3764 18.7036V21.8795C95.1954 22.0266 94.9881 22.1357 94.7663 22.2005C94.4847 22.2918 94.1906 22.3358 93.8954 22.3307C93.5344 22.3369 93.1757 22.2706 92.8393 22.1354C92.4828 21.9554 92.2028 21.6466 92.0525 21.2677L89.2587 16.1135L88.779 15.1373C88.6107 14.7989 88.4466 14.4648 88.2952 14.1394L87.8744 13.237L85.5939 13.788V10.712C85.7509 10.5041 85.9673 10.3524 86.2124 10.2781C86.4979 10.1837 86.7962 10.1368 87.096 10.1393C87.4527 10.1349 87.807 10.2012 88.1395 10.3345C88.4972 10.5064 88.7816 10.8073 88.9389 11.1805L91.7243 16.3521C91.8884 16.6688 92.0567 16.9942 92.225 17.3326C92.3933 17.671 92.5574 18.0051 92.7005 18.3348C92.8435 18.6646 92.9781 18.9596 93.0918 19.2329L95.3764 18.7036ZM85.5897 12.942L87.7356 12.8856C87.786 13.3802 87.8281 13.9052 87.8618 14.4518C87.8954 14.9985 87.9123 15.5451 87.9165 16.0788C87.9207 16.6124 87.9165 17.1331 87.9165 17.6277V22.1745C87.7697 22.2131 87.6208 22.2421 87.4705 22.2613C87.2673 22.2942 87.0619 22.3102 86.8562 22.309C86.5124 22.3414 86.1678 22.256 85.8758 22.066C85.7671 21.9532 85.6843 21.8167 85.6333 21.6665C85.5823 21.5164 85.5646 21.3564 85.5813 21.1983L85.5897 12.942ZM95.3764 19.5236L93.2096 19.58C93.1086 18.5735 93.0497 17.5929 93.0371 16.6298C93.0244 15.6666 93.0371 14.7382 93.0371 13.8401V10.2998L93.5041 10.2C93.7136 10.1604 93.9264 10.1415 94.1394 10.1436C94.4767 10.1204 94.8117 10.2152 95.0903 10.4126C95.1988 10.5256 95.2815 10.6622 95.3324 10.8122C95.3834 10.9623 95.4013 11.1222 95.3849 11.2803L95.3764 19.5236Z" fill="white"/>
<path d="M109.194 16.235C109.231 17.4264 108.972 18.6079 108.441 19.6668C107.973 20.5618 107.258 21.294 106.388 21.771C105.473 22.2419 104.465 22.487 103.442 22.487C102.42 22.487 101.412 22.2419 100.497 21.771C99.6317 21.2907 98.9221 20.559 98.4563 19.6668C97.9267 18.6075 97.6688 17.4261 97.7074 16.235C97.6691 15.0427 97.9346 13.8609 98.4774 12.8075C98.9563 11.9139 99.6751 11.1818 100.547 10.6989C101.437 10.2157 102.429 9.96818 103.434 9.97873C104.458 9.9602 105.471 10.2063 106.379 10.6946C107.25 11.1766 107.966 11.9091 108.441 12.8031C108.975 13.861 109.234 15.0432 109.194 16.235ZM106.741 16.235C106.741 14.864 106.439 13.8198 105.836 13.1025C105.541 12.7475 105.171 12.4659 104.755 12.2788C104.339 12.0918 103.887 12.004 103.434 12.0222C102.986 12.0068 102.541 12.096 102.132 12.2831C101.722 12.4701 101.359 12.7503 101.069 13.1025C100.466 13.8198 100.165 14.864 100.165 16.235C100.165 17.619 100.463 18.6732 101.057 19.3891C101.362 19.7296 101.733 20.0014 102.145 20.1872C102.558 20.373 103.003 20.4689 103.453 20.4689C103.903 20.4689 104.348 20.373 104.76 20.1872C105.173 20.0014 105.543 19.7296 105.849 19.3891C106.451 18.6559 106.741 17.619 106.741 16.235Z" fill="white"/>
<path d="M55.9053 28.8299L55.96 30.8473H50.6038C50.5296 30.718 50.4717 30.5795 50.4313 30.4351C50.3788 30.2506 50.3533 30.0591 50.3556 29.8668C50.3336 29.5849 50.4146 29.3048 50.5828 29.0815C50.6638 28.9958 50.7617 28.929 50.8698 28.8856C50.9779 28.8422 51.0939 28.8232 51.2097 28.8299H55.9053ZM53.8563 30.318H56.2504V40.6829C56.0982 40.7335 55.9419 40.7698 55.7833 40.7913C55.5729 40.8225 55.3606 40.8384 55.148 40.839C54.7957 40.8747 54.4426 40.781 54.1508 40.5744C54.0449 40.4595 53.9639 40.3227 53.9132 40.1732C53.8624 40.0236 53.843 39.8646 53.8563 39.7067V30.318ZM54.2349 30.8473L54.176 28.8299H59.5196C59.5964 28.9526 59.6532 29.0874 59.6879 29.229C59.7389 29.4109 59.7644 29.5994 59.7636 29.7887C59.7814 30.0687 59.7008 30.3459 59.5364 30.5696C59.4595 30.6622 59.3629 30.7354 59.2542 30.7835C59.1456 30.8317 59.0276 30.8535 58.9095 30.8473H54.2349Z" fill="white"/>
<path d="M72.0412 34.7651C72.0795 35.9552 71.8201 37.1356 71.2881 38.1925C70.8202 39.0887 70.1058 39.8223 69.2348 40.3011C68.3202 40.772 67.3118 41.0171 66.2895 41.0171C65.2672 41.0171 64.2589 40.772 63.3443 40.3011C62.4729 39.8167 61.7589 39.079 61.291 38.1795C60.7604 37.1222 60.5025 35.9419 60.542 34.752C60.5032 33.5597 60.7687 32.3778 61.312 31.3246C61.7909 30.431 62.5097 29.6989 63.3821 29.216C64.2756 28.7322 65.272 28.4861 66.2811 28.5002C67.3054 28.4816 68.3179 28.7277 69.2264 29.216C70.0973 29.698 70.8135 30.4305 71.2881 31.3246C71.8238 32.3848 72.0834 33.5703 72.0412 34.7651ZM69.5882 34.7651C69.5882 33.3941 69.2867 32.3485 68.6836 31.6283C68.3871 31.2745 68.0172 30.9941 67.6013 30.8078C67.1854 30.6216 66.7342 30.5342 66.2811 30.5523C65.8339 30.537 65.3891 30.6258 64.9797 30.8121C64.5704 30.9983 64.207 31.2773 63.9165 31.6283C63.3134 32.3485 63.0119 33.3941 63.0119 34.7651C63.0119 36.1491 63.3106 37.2033 63.9039 37.9192C64.2095 38.2598 64.5802 38.5315 64.9925 38.7173C65.4049 38.9031 65.85 38.999 66.3 38.999C66.7501 38.999 67.1952 38.9031 67.6076 38.7173C68.0199 38.5315 68.3906 38.2598 68.6962 37.9192C69.2895 37.2033 69.5882 36.1491 69.5882 34.7651Z" fill="white"/>
<path d="M76.7916 35.6848H74.3765V28.8299L74.8604 28.7301C75.0713 28.6901 75.2854 28.6698 75.4999 28.6693C75.8454 28.6392 76.1911 28.726 76.4845 28.9166C76.5996 29.0344 76.6871 29.1776 76.7403 29.3355C76.7935 29.4934 76.8111 29.6618 76.7916 29.8277V35.6848ZM74.3765 32.8257H76.7916V40.7046C76.6906 40.7306 76.535 40.761 76.3246 40.8C76.108 40.8404 75.8883 40.8607 75.6682 40.8607C75.3191 40.8904 74.9705 40.7971 74.6794 40.5961C74.5684 40.4792 74.4838 40.3385 74.4314 40.184C74.379 40.0296 74.3603 39.8651 74.3765 39.7023V32.8257ZM78.4241 35.3551H75.5378L81.4073 28.7518C81.8567 28.727 82.3011 28.8584 82.6696 29.1249C82.7997 29.2264 82.9054 29.3575 82.9784 29.508C83.0514 29.6585 83.0897 29.8243 83.0903 29.9926C83.0891 30.239 83.0268 30.4809 82.9094 30.6955C82.7504 30.9643 82.5548 31.2083 82.3287 31.42L78.4241 35.3551ZM75.8197 34.4874L78.3105 33.9581C79.4746 35.1873 80.5013 36.2807 81.3905 37.238C82.274 38.2012 83.0062 38.9735 83.5742 39.5418C83.5833 39.7258 83.5534 39.9096 83.4865 40.0805C83.4197 40.2513 83.3175 40.4051 83.1871 40.531C82.9418 40.7673 82.6181 40.8977 82.2825 40.8955C81.9519 40.9063 81.6275 40.8024 81.361 40.6004C81.0997 40.3923 80.8549 40.1631 80.6289 39.9149L75.8197 34.4874Z" fill="white"/>
<path d="M87.9373 36.687H85.5811V30.1792C85.5734 30.0033 85.6004 29.8276 85.6604 29.6628C85.7205 29.498 85.8123 29.3475 85.9303 29.2203C86.0572 29.1006 86.2058 29.0079 86.3676 28.9476C86.5293 28.8872 86.701 28.8605 86.8728 28.8689C87.0831 28.8677 87.2929 28.8866 87.4998 28.9253C87.7017 28.9644 87.849 28.9991 87.9205 29.0251L87.9373 36.687ZM85.5811 32.8431H87.9373V40.5831C87.799 40.6242 87.6585 40.6575 87.5166 40.6829C87.3099 40.723 87.1 40.7434 86.8897 40.7436C86.7167 40.7528 86.5438 40.7251 86.3817 40.6624C86.2195 40.5997 86.0716 40.5033 85.9472 40.3792C85.8302 40.253 85.7389 40.1039 85.6789 39.9407C85.6189 39.7775 85.5914 39.6034 85.598 39.429L85.5811 32.8431ZM86.8728 30.8256V28.8299H93.1631C93.24 28.9499 93.2982 29.0817 93.3356 29.2203C93.3873 29.3976 93.4128 29.5819 93.4113 29.767C93.4282 30.0469 93.3509 30.3243 93.1926 30.5523C93.1134 30.6454 93.0146 30.7184 92.9037 30.7658C92.7928 30.8132 92.6728 30.8337 92.553 30.8256H86.8728ZM86.8728 35.6284V33.6674H92.5951C92.6719 33.7881 92.7314 33.9196 92.7718 34.0579C92.8314 34.235 92.8613 34.4213 92.8602 34.6089C92.8805 34.8838 92.7994 35.1566 92.633 35.3724C92.5507 35.4579 92.4522 35.5248 92.3435 35.5689C92.2348 35.613 92.1185 35.6332 92.0018 35.6284H86.8728ZM86.8728 40.7436V38.7652H93.2599C93.3233 38.8907 93.3767 39.0213 93.4198 39.1557C93.4793 39.3387 93.5078 39.531 93.5039 39.724C93.5243 39.999 93.4431 40.2718 93.2767 40.4876C93.1959 40.5739 93.0982 40.6413 92.9901 40.6855C92.882 40.7296 92.7659 40.7494 92.6498 40.7436H86.8728Z" fill="white"/>
<path d="M105.609 37.2337V40.4095C105.429 40.5558 105.223 40.6648 105.003 40.7306C104.37 40.924 103.692 40.9012 103.072 40.6655C102.716 40.4842 102.437 40.1758 102.285 39.7978L99.4914 34.6436C99.3399 34.3312 99.1758 34.0015 99.0075 33.6631C98.8392 33.3246 98.6751 32.9906 98.5237 32.6652C98.3722 32.3398 98.2291 32.0361 98.1029 31.7628L95.8224 32.3094V29.2377C95.9849 29.0416 96.2001 28.8996 96.4409 28.8299C96.7261 28.734 97.0246 28.6871 97.3245 28.691C97.6812 28.6867 98.0355 28.753 98.368 28.8863C98.7257 29.0561 99.0102 29.3557 99.1674 29.728L101.961 34.8822C102.125 35.1946 102.294 35.5243 102.466 35.8627C102.639 36.2011 102.794 36.5352 102.942 36.8606C103.089 37.186 103.215 37.4897 103.329 37.763L105.609 37.2337ZM95.8308 31.4721L97.9809 31.4157C98.0314 31.9103 98.0693 32.4352 98.1029 32.9819C98.1366 33.5286 98.1534 34.0752 98.1618 34.6089C98.1702 35.1425 98.1618 35.6588 98.1618 36.1577V40.7046C98.0735 40.7306 97.922 40.7566 97.7158 40.7913C97.511 40.822 97.3043 40.838 97.0973 40.8391C96.7536 40.8695 96.4097 40.7843 96.117 40.5961C96.009 40.4827 95.9266 40.3461 95.8757 40.1962C95.8248 40.0462 95.8066 39.8865 95.8224 39.7284L95.8308 31.4721ZM105.609 38.0363L103.442 38.0971C103.341 37.0905 103.285 36.1071 103.274 35.1468C103.274 34.188 103.253 33.2552 103.253 32.3571V28.8299L103.72 28.7301C103.929 28.6891 104.142 28.6688 104.355 28.6693C104.694 28.6386 105.033 28.729 105.315 28.9253C105.423 29.0384 105.506 29.1749 105.557 29.325C105.608 29.475 105.626 29.6349 105.609 29.793V38.0363Z" fill="white"/>
<path d="M120.916 16.786C121.471 17.0915 122.093 17.2411 122.721 17.2198C123.087 17.2212 123.451 17.1701 123.803 17.068C124.13 16.981 124.439 16.8341 124.716 16.6341C124.822 16.5602 124.902 16.454 124.947 16.3304C124.978 16.2214 124.978 16.1054 124.947 15.9964C124.924 15.8918 124.871 15.7967 124.796 15.723C124.723 15.6637 124.635 15.6275 124.543 15.6189C124.408 15.6126 124.275 15.6522 124.164 15.7317C123.955 15.8622 123.728 15.9602 123.491 16.0224C123.256 16.0866 123.015 16.1187 122.772 16.1178C122.371 16.1304 121.974 16.0315 121.623 15.8315C121.307 15.6348 121.06 15.3402 120.916 14.9898C120.746 14.5682 120.665 14.1143 120.676 13.6579C120.663 13.1999 120.745 12.7444 120.916 12.3216C121.053 11.9736 121.291 11.678 121.598 11.4756C121.949 11.2755 122.346 11.1766 122.746 11.1892C122.983 11.189 123.22 11.2196 123.449 11.2803C123.677 11.3367 123.893 11.4336 124.089 11.5667C124.203 11.6491 124.34 11.6916 124.48 11.6882C124.591 11.6811 124.695 11.6334 124.775 11.5537C124.863 11.4847 124.929 11.3893 124.964 11.2803C124.987 11.1613 124.977 11.0378 124.934 10.9246C124.88 10.7929 124.786 10.6832 124.665 10.6122C124.39 10.4327 124.089 10.2994 123.773 10.2174C123.435 10.1254 123.087 10.0787 122.738 10.0785C122.256 10.0729 121.777 10.1581 121.324 10.3302C120.925 10.4881 120.564 10.7356 120.268 11.0547C119.97 11.3659 119.739 11.7384 119.591 12.148C119.43 12.6234 119.352 13.1242 119.359 13.6275C119.349 14.2866 119.493 14.9386 119.78 15.5278C120.028 16.0554 120.423 16.4939 120.916 16.786Z" fill="white"/>
<path d="M131.405 10.6165C131.343 10.4533 131.238 10.3108 131.102 10.2043C130.983 10.1251 130.843 10.083 130.701 10.083C130.558 10.083 130.419 10.1251 130.299 10.2043C130.162 10.3095 130.057 10.4524 129.996 10.6165L127.471 16.3955C127.404 16.5289 127.381 16.681 127.404 16.8294C127.412 16.887 127.431 16.9424 127.46 16.9923C127.488 17.0423 127.527 17.0857 127.572 17.12C127.679 17.1982 127.808 17.2365 127.938 17.2285C128.078 17.2388 128.215 17.192 128.321 17.0983C128.436 16.9738 128.525 16.8261 128.582 16.6645L129.053 15.5148H132.348L132.828 16.6645C132.885 16.8184 132.974 16.9577 133.088 17.0723C133.208 17.1696 133.358 17.2176 133.509 17.2068C133.635 17.2135 133.759 17.1768 133.863 17.1027C133.907 17.0679 133.945 17.0243 133.973 16.9744C134.001 16.9245 134.02 16.8693 134.027 16.812C134.049 16.6627 134.022 16.5102 133.951 16.3781L131.405 10.6165ZM130.686 11.5363L131.91 14.5082H129.457L130.686 11.5363Z" fill="white"/>
<path d="M140.889 10.161H135.924C135.783 10.1516 135.644 10.1999 135.537 10.2955C135.488 10.3466 135.451 10.4079 135.427 10.4752C135.403 10.5426 135.393 10.6144 135.398 10.6859C135.395 10.7573 135.405 10.8287 135.429 10.8958C135.453 10.9629 135.49 11.0244 135.537 11.0764C135.589 11.1258 135.65 11.164 135.717 11.1886C135.783 11.2132 135.854 11.2237 135.924 11.2196H137.792V16.556C137.784 16.7305 137.841 16.9016 137.952 17.0333C138.012 17.0938 138.083 17.1405 138.161 17.1705C138.24 17.2004 138.323 17.2128 138.407 17.2068C138.491 17.214 138.575 17.2022 138.655 17.1722C138.734 17.1422 138.806 17.0948 138.865 17.0333C138.976 16.9012 139.031 16.7299 139.021 16.556V11.2196H140.889C140.96 11.2237 141.03 11.2132 141.097 11.1886C141.163 11.164 141.224 11.1258 141.276 11.0764C141.324 11.0244 141.361 10.9629 141.384 10.8958C141.408 10.8287 141.419 10.7573 141.415 10.6859C141.42 10.6144 141.411 10.5426 141.387 10.4752C141.363 10.4079 141.325 10.3466 141.276 10.2955C141.169 10.1999 141.03 10.1516 140.889 10.161Z" fill="white"/>
<path d="M148.85 15.723C148.772 15.6508 148.673 15.608 148.568 15.6015C148.433 15.5962 148.301 15.6357 148.189 15.7143C147.982 15.8448 147.756 15.9428 147.52 16.005C147.286 16.0692 147.044 16.1013 146.801 16.1005C146.4 16.1141 146.003 16.0152 145.652 15.8141C145.334 15.6188 145.085 15.3239 144.941 14.9724C144.771 14.5508 144.69 14.0969 144.701 13.6405C144.688 13.1826 144.77 12.727 144.941 12.3042C145.088 11.9579 145.337 11.668 145.652 11.4755C146.003 11.2745 146.4 11.1755 146.801 11.1892C147.037 11.189 147.271 11.2196 147.499 11.2803C147.729 11.3358 147.947 11.4328 148.143 11.5667C148.256 11.649 148.392 11.6916 148.53 11.6881C148.642 11.681 148.748 11.6334 148.829 11.5536C148.909 11.4756 148.963 11.374 148.985 11.263C149.01 11.144 149 11.0199 148.955 10.9072C148.904 10.7748 148.811 10.6645 148.69 10.5948C148.415 10.4161 148.114 10.2828 147.798 10.2C147.46 10.1086 147.112 10.0619 146.763 10.0612C146.281 10.0547 145.802 10.14 145.349 10.3128C144.949 10.4718 144.587 10.7191 144.289 11.0373C143.998 11.3573 143.773 11.7353 143.628 12.148C143.471 12.6241 143.394 13.1245 143.401 13.6275C143.384 14.2848 143.522 14.9367 143.801 15.5278C144.057 16.0533 144.46 16.4873 144.958 16.7729C145.512 17.0784 146.135 17.228 146.763 17.2068C147.127 17.2081 147.49 17.157 147.84 17.055C148.169 16.968 148.479 16.8211 148.757 16.6211C148.862 16.5469 148.942 16.4407 148.985 16.3174C149.023 16.2105 149.03 16.0944 149.006 15.9833C148.981 15.8823 148.926 15.7916 148.85 15.723Z" fill="white"/>
<path d="M157.362 10.0829C157.279 10.0772 157.196 10.0892 157.117 10.1184C157.039 10.1475 156.968 10.193 156.907 10.2521C156.795 10.3846 156.737 10.5577 156.748 10.7337V13.0678H153.268V10.7337C153.279 10.5583 153.224 10.3852 153.112 10.2521C153.052 10.193 152.98 10.1475 152.902 10.1184C152.824 10.0892 152.741 10.0772 152.658 10.0829C152.574 10.0771 152.49 10.0891 152.411 10.1182C152.332 10.1473 152.26 10.1929 152.199 10.2521C152.088 10.3852 152.032 10.5583 152.043 10.7337V16.556C152.033 16.73 152.089 16.9012 152.199 17.0333C152.259 17.0939 152.331 17.1407 152.41 17.1706C152.49 17.2005 152.574 17.2128 152.658 17.2068C152.742 17.2137 152.826 17.2017 152.906 17.1718C152.985 17.1418 153.057 17.0946 153.116 17.0333C153.224 16.8997 153.278 16.7291 153.268 16.556V14.1221H156.748V16.556C156.739 16.7305 156.796 16.9016 156.907 17.0333C157.034 17.1451 157.195 17.2065 157.362 17.2065C157.528 17.2065 157.69 17.1451 157.816 17.0333C157.928 16.9016 157.985 16.7305 157.976 16.556V10.7337C157.987 10.5577 157.929 10.3846 157.816 10.2521C157.756 10.193 157.684 10.1475 157.606 10.1184C157.528 10.0892 157.445 10.0772 157.362 10.0829Z" fill="white"/>
<path d="M121.211 28.409C121.2 28.5842 121.256 28.7568 121.366 28.8906C121.426 28.9504 121.497 28.9968 121.576 29.0266C121.654 29.0565 121.737 29.0693 121.821 29.0642C121.905 29.07 121.99 29.0576 122.07 29.0277C122.149 28.9978 122.222 28.9511 122.283 28.8906C122.391 28.7553 122.445 28.5834 122.435 28.409V23.0769H124.303C124.374 23.0808 124.445 23.0697 124.511 23.0443C124.578 23.0189 124.639 22.9798 124.69 22.9294C124.738 22.8777 124.775 22.8163 124.799 22.7491C124.823 22.6819 124.833 22.6104 124.829 22.5389C124.834 22.4681 124.824 22.397 124.8 22.3304C124.776 22.2638 124.739 22.2033 124.69 22.1528C124.583 22.0569 124.444 22.0085 124.303 22.0183H119.338C119.197 22.009 119.058 22.0573 118.951 22.1528C118.903 22.2033 118.865 22.2638 118.841 22.3304C118.817 22.397 118.807 22.4681 118.812 22.5389C118.808 22.6104 118.818 22.6819 118.842 22.7491C118.866 22.8163 118.903 22.8777 118.951 22.9294C119.003 22.9796 119.063 23.0186 119.13 23.0439C119.197 23.0693 119.267 23.0805 119.338 23.0769H121.211V28.409Z" fill="white"/>
<path d="M132.765 21.9402C132.682 21.9347 132.599 21.9464 132.521 21.9748C132.443 22.0031 132.371 22.0474 132.31 22.1051C132.197 22.2389 132.139 22.4136 132.15 22.591V24.9208H128.671V22.591C128.683 22.4142 128.627 22.2395 128.515 22.1051C128.386 21.998 128.226 21.9396 128.06 21.9396C127.895 21.9396 127.735 21.998 127.606 22.1051C127.493 22.2389 127.435 22.4136 127.446 22.591V28.409C127.437 28.5848 127.494 28.7574 127.606 28.8906C127.733 29.0027 127.895 29.0644 128.063 29.0644C128.23 29.0644 128.392 29.0027 128.519 28.8906C128.626 28.7552 128.68 28.5834 128.671 28.409V25.9794H132.15V28.409C132.141 28.5848 132.198 28.7574 132.31 28.8906C132.437 29.0024 132.598 29.0639 132.765 29.0639C132.931 29.0639 133.092 29.0024 133.219 28.8906C133.331 28.7574 133.388 28.5848 133.379 28.409V22.591C133.39 22.4136 133.332 22.2389 133.219 22.1051C133.158 22.0474 133.086 22.0031 133.008 21.9748C132.93 21.9464 132.847 21.9347 132.765 21.9402Z" fill="white"/>
<path d="M140.843 23.0248C140.91 23.0295 140.977 23.0199 141.04 22.9968C141.103 22.9736 141.16 22.9374 141.209 22.8903C141.255 22.8403 141.291 22.7808 141.313 22.7158C141.336 22.6508 141.345 22.5817 141.34 22.5129C141.344 22.4454 141.335 22.3777 141.312 22.3142C141.29 22.2506 141.255 22.1927 141.209 22.1441C141.107 22.0551 140.976 22.01 140.843 22.0183H137.422C137.334 22.0079 137.245 22.0181 137.161 22.0483C137.078 22.0784 137.002 22.1276 136.939 22.1922C136.876 22.2569 136.828 22.3353 136.799 22.4216C136.77 22.5079 136.76 22.5999 136.77 22.6908V28.3309C136.76 28.4217 136.77 28.5137 136.799 28.6001C136.828 28.6864 136.876 28.7648 136.939 28.8294C137.002 28.8941 137.078 28.9433 137.161 28.9734C137.245 29.0035 137.334 29.0138 137.422 29.0034H140.843C140.976 29.0117 141.107 28.9666 141.209 28.8776C141.255 28.8275 141.291 28.7681 141.313 28.7031C141.336 28.6381 141.345 28.5689 141.34 28.5001C141.345 28.4319 141.336 28.3633 141.314 28.2989C141.291 28.2345 141.256 28.1759 141.209 28.127C141.16 28.0813 141.102 28.0463 141.039 28.024C140.976 28.0016 140.909 27.9924 140.843 27.9968H137.948V25.949H140.628C140.696 25.9549 140.764 25.9464 140.829 25.924C140.893 25.9016 140.953 25.8658 141.003 25.8189C141.085 25.7129 141.129 25.5813 141.129 25.4458C141.129 25.3102 141.085 25.1787 141.003 25.0726C140.953 25.0257 140.893 24.9899 140.829 24.9675C140.764 24.9451 140.696 24.9366 140.628 24.9425H137.948V23.0248H140.843Z" fill="white"/>
<path d="M125.856 33.7932C125.725 33.7867 125.594 33.8199 125.481 33.8887C125.374 33.9729 125.289 34.0832 125.233 34.2097L123.02 38.4312L120.807 34.2097C120.751 34.0819 120.664 33.9713 120.554 33.8887C120.439 33.8204 120.308 33.7873 120.176 33.7932C120.021 33.7858 119.87 33.8419 119.755 33.9494C119.702 34.0073 119.662 34.0756 119.636 34.1502C119.61 34.2248 119.599 34.3041 119.603 34.3833V40.3488C119.594 40.5072 119.645 40.6631 119.746 40.7827C119.863 40.8868 120.013 40.9441 120.167 40.9441C120.322 40.9441 120.471 40.8868 120.588 40.7827C120.686 40.6613 120.735 40.5063 120.727 40.3488V36.1708L122.528 39.5332C122.577 39.6285 122.646 39.7115 122.73 39.7761C122.818 39.8369 122.922 39.8673 123.028 39.8629C123.13 39.8686 123.23 39.8396 123.314 39.7805C123.398 39.7138 123.467 39.6295 123.516 39.5332L125.317 36.1491V40.3488C125.308 40.5072 125.359 40.6631 125.46 40.7827C125.577 40.8868 125.727 40.9441 125.881 40.9441C126.036 40.9441 126.185 40.8868 126.302 40.7827C126.4 40.6613 126.449 40.5063 126.441 40.3488V34.3876C126.446 34.3091 126.436 34.2304 126.411 34.1559C126.387 34.0814 126.348 34.0127 126.298 33.9537C126.24 33.8944 126.171 33.8492 126.095 33.8214C126.018 33.7936 125.936 33.7839 125.856 33.7932Z" fill="white"/>
<path d="M130.434 33.7932C130.351 33.7875 130.267 33.7996 130.189 33.8287C130.111 33.8578 130.039 33.9033 129.979 33.9624C129.866 34.0962 129.808 34.2709 129.819 34.4483V40.2663C129.809 40.4409 129.867 40.6124 129.979 40.7436C130.039 40.8041 130.11 40.8509 130.188 40.8808C130.267 40.9107 130.35 40.9231 130.434 40.9171C130.518 40.9241 130.603 40.9122 130.683 40.8822C130.763 40.8523 130.836 40.805 130.896 40.7436C131.004 40.6102 131.058 40.4395 131.048 40.2663V34.4483C131.054 34.3604 131.043 34.272 131.016 34.1885C130.988 34.105 130.945 34.0281 130.888 33.9624C130.828 33.9033 130.756 33.8578 130.678 33.8287C130.6 33.7996 130.516 33.7875 130.434 33.7932Z" fill="white"/>
<path d="M138.962 38.6958C138.844 38.4469 138.668 38.2322 138.449 38.0711C138.355 38.0097 138.253 37.9616 138.146 37.9279C138.308 37.895 138.466 37.8441 138.617 37.776C138.946 37.6284 139.222 37.3799 139.408 37.0645C139.597 36.7289 139.692 36.3459 139.682 35.9582C139.697 35.6723 139.652 35.3863 139.548 35.1208C139.444 34.8553 139.284 34.6168 139.08 34.4223C138.592 34.0292 137.981 33.8346 137.363 33.8757H135.062C134.979 33.87 134.896 33.8812 134.817 33.9087C134.738 33.9363 134.666 33.9796 134.603 34.0362C134.545 34.1005 134.501 34.1764 134.472 34.2593C134.444 34.3422 134.433 34.4302 134.439 34.5178V40.2664C134.429 40.441 134.487 40.6125 134.599 40.7436C134.726 40.8558 134.888 40.9174 135.056 40.9174C135.223 40.9174 135.385 40.8558 135.512 40.7436C135.621 40.6109 135.677 40.4401 135.668 40.2664V38.0537H136.577C136.779 38.0521 136.98 38.095 137.166 38.1795C137.348 38.2724 137.496 38.425 137.586 38.6134L138.554 40.4486C138.621 40.5875 138.719 40.708 138.84 40.8C138.966 40.8807 139.113 40.92 139.261 40.9128C139.402 40.9242 139.541 40.8809 139.652 40.7913C139.697 40.7512 139.732 40.7018 139.757 40.6465C139.782 40.5912 139.795 40.5312 139.795 40.4703C139.8 40.3267 139.763 40.1848 139.69 40.0625L138.962 38.6958ZM137.166 37.1166H135.672V34.8735H137.166C137.52 34.8471 137.873 34.9449 138.167 35.1512C138.283 35.2539 138.374 35.383 138.433 35.5284C138.492 35.6737 138.518 35.8313 138.508 35.9885C138.522 36.1507 138.498 36.3139 138.439 36.4647C138.38 36.6156 138.286 36.7498 138.167 36.8563C137.871 37.0564 137.518 37.1481 137.166 37.1166Z" fill="white"/>
<path d="M146.33 34.3269C146.27 34.1643 146.166 34.0228 146.031 33.919C145.913 33.836 145.774 33.7921 145.631 33.7932C145.482 33.7896 145.335 33.8335 145.21 33.919C145.075 34.0228 144.972 34.1643 144.912 34.3269L142.387 40.1058C142.323 40.2403 142.301 40.3918 142.324 40.5397C142.331 40.597 142.35 40.6522 142.378 40.7021C142.406 40.752 142.443 40.7956 142.488 40.8304C142.596 40.908 142.727 40.9461 142.858 40.9388C142.997 40.9477 143.133 40.9028 143.241 40.813C143.354 40.6868 143.443 40.5395 143.502 40.3792L143.973 39.2338H147.264L147.739 40.3792C147.798 40.541 147.888 40.6887 148.004 40.813C148.125 40.907 148.274 40.9532 148.425 40.9432C148.551 40.9498 148.675 40.9132 148.778 40.8391C148.823 40.8043 148.861 40.7607 148.889 40.7108C148.917 40.6609 148.935 40.6056 148.943 40.5484C148.964 40.3991 148.938 40.2466 148.867 40.1145L146.33 34.3269ZM145.614 35.2466L146.843 38.2229H144.39L145.614 35.2466Z" fill="white"/>
<path d="M156.941 39.4377C156.864 39.3633 156.764 39.3188 156.659 39.3119C156.525 39.3097 156.393 39.349 156.28 39.4247C156.072 39.5574 155.845 39.6568 155.607 39.7197C155.373 39.7802 155.133 39.8108 154.892 39.8108C154.49 39.824 154.091 39.7251 153.739 39.5245C153.424 39.3293 153.176 39.0362 153.032 38.6871C152.862 38.264 152.781 37.8087 152.792 37.3508C152.779 36.8943 152.861 36.4402 153.032 36.0189C153.179 35.6725 153.426 35.3815 153.739 35.1859C154.091 34.9853 154.49 34.8864 154.892 34.8996C155.128 34.8997 155.362 34.9303 155.59 34.9907C155.818 35.0507 156.036 35.1473 156.234 35.277C156.346 35.3614 156.483 35.4042 156.621 35.3985C156.731 35.393 156.836 35.3468 156.916 35.2683C156.996 35.1883 157.052 35.0857 157.076 34.9733C157.101 34.8544 157.091 34.7303 157.046 34.6175C156.992 34.4872 156.897 34.3789 156.777 34.3095C156.504 34.1284 156.204 33.995 155.889 33.9147C155.552 33.8211 155.204 33.7744 154.854 33.7759C154.372 33.7672 153.892 33.8526 153.44 34.0275C153.039 34.1827 152.677 34.4288 152.38 34.7477C152.086 35.072 151.861 35.4563 151.72 35.8757C151.561 36.3501 151.482 36.8491 151.488 37.3508C151.477 38.0114 151.622 38.6649 151.909 39.2555C152.165 39.7777 152.567 40.2096 153.062 40.4963C153.618 40.8012 154.242 40.9508 154.871 40.9302C155.235 40.9294 155.597 40.8783 155.948 40.7783C156.275 40.6903 156.584 40.5434 156.861 40.3445C156.967 40.2723 157.048 40.1676 157.093 40.0451C157.126 39.9349 157.126 39.8169 157.093 39.7067C157.07 39.603 157.017 39.509 156.941 39.4377Z" fill="white"/>
<path d="M164.136 39.7631H161.355V34.4874C161.361 34.4004 161.351 34.313 161.324 34.2303C161.298 34.1475 161.255 34.0712 161.199 34.0058C161.136 33.9464 161.061 33.9011 160.98 33.8727C160.899 33.8443 160.813 33.8335 160.728 33.8409C160.645 33.8348 160.563 33.8459 160.485 33.8735C160.407 33.9011 160.335 33.9446 160.273 34.0014C160.217 34.0669 160.175 34.1432 160.148 34.2259C160.121 34.3087 160.111 34.3961 160.118 34.483V40.1883C160.108 40.3628 160.165 40.5343 160.278 40.6655C160.339 40.7258 160.412 40.7723 160.491 40.8022C160.571 40.8321 160.656 40.8446 160.74 40.839H164.106C164.178 40.8439 164.25 40.8337 164.318 40.8091C164.386 40.7845 164.449 40.746 164.502 40.6959C164.55 40.6424 164.587 40.5794 164.611 40.5109C164.635 40.4423 164.645 40.3695 164.641 40.2967C164.646 40.2276 164.637 40.1582 164.615 40.0926C164.594 40.027 164.559 39.9666 164.515 39.9149C164.464 39.8652 164.405 39.8262 164.34 39.8001C164.275 39.7741 164.206 39.7615 164.136 39.7631Z" fill="white"/>
<path d="M171.503 39.8325H168.608V37.8064H171.293C171.36 37.8119 171.427 37.8032 171.491 37.7809C171.555 37.7585 171.613 37.7229 171.663 37.6762C171.708 37.6263 171.742 37.5674 171.764 37.5032C171.786 37.439 171.794 37.3709 171.789 37.3031C171.802 37.2335 171.797 37.1617 171.777 37.0942C171.756 37.0267 171.719 36.9655 171.67 36.9159C171.621 36.8662 171.561 36.8297 171.496 36.8095C171.43 36.7893 171.36 36.7859 171.293 36.7998H168.608V34.8822H171.503C171.57 34.8873 171.637 34.878 171.7 34.8549C171.763 34.8317 171.821 34.7952 171.869 34.7477C171.915 34.6967 171.951 34.6365 171.973 34.5708C171.995 34.5051 172.005 34.4354 172 34.3659C172.004 34.2991 171.995 34.2322 171.972 34.1694C171.95 34.1066 171.915 34.0494 171.869 34.0015C171.82 33.9561 171.762 33.9216 171.699 33.9C171.636 33.8784 171.569 33.8701 171.503 33.8756H168.083C167.995 33.8693 167.907 33.881 167.824 33.91C167.741 33.9391 167.664 33.9849 167.599 34.0448C167.539 34.112 167.494 34.1908 167.465 34.2766C167.436 34.3623 167.424 34.4532 167.43 34.5438V40.1839C167.42 40.2748 167.43 40.3668 167.459 40.4531C167.489 40.5394 167.536 40.6178 167.599 40.6824C167.662 40.7471 167.738 40.7963 167.821 40.8264C167.905 40.8565 167.994 40.8668 168.083 40.8564H171.503C171.57 40.8611 171.636 40.852 171.699 40.8296C171.762 40.8073 171.82 40.7721 171.869 40.7263C171.916 40.6773 171.951 40.6187 171.974 40.5543C171.996 40.49 172.005 40.4213 172 40.3531C172.005 40.2843 171.996 40.2152 171.973 40.1502C171.951 40.0852 171.915 40.0257 171.869 39.9757C171.77 39.88 171.639 39.8285 171.503 39.8325Z" fill="white"/>
</svg>
