<?xml version="1.0" encoding="utf-8"?><svg viewBox="0 0 768 768" xmlns="http://www.w3.org/2000/svg" xmlns:xlink="http://www.w3.org/1999/xlink"><style>:root>svg{display:none}:root>svg:target{display:block}</style><svg viewBox="0 0 22 22" id="address" xmlns="http://www.w3.org/2000/svg"><path fill-rule="evenodd" clip-rule="evenodd" d="M10.578 20.488l.065.037.025.015a.695.695 0 00.663 0l.026-.014.065-.038c.358-.212.708-.44 1.048-.68a17.94 17.94 0 002.46-2.092c1.782-1.824 3.633-4.565 3.633-8.091a7.563 7.563 0 00-15.125 0c0 3.525 1.851 6.267 3.632 8.091.755.77 1.578 1.47 2.459 2.092.34.24.69.468 1.05.68zM11 12.375a2.75 2.75 0 100-5.5 2.75 2.75 0 000 5.5z"/></svg><svg viewBox="0 0 9 11" id="amount" xmlns="http://www.w3.org/2000/svg"><path d="M8.571 2.702c0 1.282-1.919 2.322-4.285 2.322C1.919 5.024 0 3.984 0 2.702S1.919.381 4.286.381C6.652.38 8.57 1.42 8.57 2.702z"/><path d="M4.286 5.738c1.278 0 2.471-.279 3.37-.766.331-.176.635-.398.904-.66.007.058.011.117.011.176 0 1.282-1.919 2.321-4.285 2.321C1.919 6.81 0 5.77 0 4.488c0-.059.004-.118.012-.175.268.261.572.483.903.659.899.487 2.092.766 3.37.766z"/><path d="M4.286 7.524c1.278 0 2.471-.28 3.37-.766.331-.176.635-.398.904-.66.007.058.011.117.011.176 0 1.282-1.919 2.321-4.285 2.321C1.919 8.595 0 7.555 0 6.274c0-.06.004-.118.012-.176.268.262.572.484.903.66.899.487 2.092.766 3.37.766z"/><path d="M4.286 9.31c1.278 0 2.471-.28 3.37-.767.331-.175.635-.397.904-.659.007.058.011.116.011.175 0 1.282-1.919 2.322-4.285 2.322C1.919 10.38 0 9.34 0 8.059c0-.059.004-.117.012-.175.268.262.572.484.903.66.899.486 2.092.765 3.37.765z"/></svg><svg viewBox="0 0 10 15" id="app" xmlns="http://www.w3.org/2000/svg"><path d="M8 .63H2a1.506 1.506 0 00-1.5 1.5v11a1.506 1.506 0 001.5 1.5h6a1.506 1.506 0 001.5-1.5v-11A1.506 1.506 0 008 .63zm-3 3.5a.75.75 0 110-1.5.75.75 0 010 1.5z"/></svg><svg viewBox="0 0 5 8" id="arrow" xmlns="http://www.w3.org/2000/svg"><path d="M.75 7l3-3-3-3"/></svg><svg viewBox="0 0 9 9" id="arrow-change" xmlns="http://www.w3.org/2000/svg"><path d="M1.73 7.042l5.334-5.334m0 5.029V1.708H2.036"/></svg><svg viewBox="0 0 30 31" id="arrow-tariff" xmlns="http://www.w3.org/2000/svg"><path fill-rule="evenodd" clip-rule="evenodd" d="M15 27.218c-6.731 0-12.188-5.456-12.188-12.188C2.813 8.3 8.27 2.843 15 2.843c6.731 0 12.188 5.456 12.188 12.187 0 6.732-5.457 12.188-12.188 12.188zM14.338 9.68a.938.938 0 011.325 0l3.75 3.75a.937.937 0 11-1.326 1.325l-2.15-2.15v7.113a.938.938 0 01-1.874 0v-7.113l-2.15 2.15a.937.937 0 01-1.325-1.325l3.75-3.75z"/></svg><svg viewBox="0 0 14 14" id="avalanche" xmlns="http://www.w3.org/2000/svg"><path d="M.944 12.239a3.883 3.883 0 013.883-3.883h4.347a3.883 3.883 0 013.883 3.883c0 .715-.58 1.294-1.295 1.294H2.238c-.715 0-1.294-.58-1.294-1.294zM7.002 7.37a3.451 3.451 0 100-6.903 3.451 3.451 0 000 6.903z"/></svg><svg viewBox="0 0 13 12" id="bag" xmlns="http://www.w3.org/2000/svg"><path d="M11.474 2.534H9.126a2.77 2.77 0 00-5.457 0H1.32a.923.923 0 00-.924.923v7.384a.923.923 0 00.924.923h10.153a.923.923 0 00.924-.923V3.457a.923.923 0 00-.924-.923zM6.397 1.149a1.852 1.852 0 011.789 1.385H4.609a1.852 1.852 0 011.788-1.385z"/></svg><svg viewBox="0 0 22 22" id="birthplace" xmlns="http://www.w3.org/2000/svg"><path d="M17.422 3.396a.687.687 0 10-.47-1.292L5.5 6.268V2.75a.688.688 0 00-.687-.687H3.438a.688.688 0 00-.688.687v4.52l-.922.334a.688.688 0 10.47 1.292l15.124-5.5z"/><path fill-rule="evenodd" clip-rule="evenodd" d="M2.767 10.188L16.5 5.195V8.33l3.672 1.335a.688.688 0 01-.47 1.293l-.452-.165v7.769h.688a.687.687 0 110 1.375H2.063a.688.688 0 010-1.375h.687v-8.369l.017-.006zM16.5 18.563v-8.77l1.375.501v8.269H16.5zm-8.25-5.5a.688.688 0 00-.688.687v4.125c0 .38.308.688.688.688H11a.688.688 0 00.688-.688V13.75a.687.687 0 00-.688-.687H8.25z"/></svg><svg viewBox="0 0 24 24" id="calendar" xmlns="http://www.w3.org/2000/svg"><path fill-rule="evenodd" clip-rule="evenodd" d="M6.75 2.25A.75.75 0 017.5 3v1.5h9V3A.75.75 0 1118 3v1.5h.75a3 3 0 013 3v11.25a3 3 0 01-3 3H5.25a3 3 0 01-3-3V7.5a3 3 0 013-3H6V3a.75.75 0 01.75-.75zm13.5 9a1.5 1.5 0 00-1.5-1.5H5.25a1.5 1.5 0 00-1.5 1.5v7.5a1.5 1.5 0 001.5 1.5h13.5a1.5 1.5 0 001.5-1.5v-7.5z"/></svg><svg viewBox="0 0 13 12" id="card" xmlns="http://www.w3.org/2000/svg"><path fill-rule="evenodd" clip-rule="evenodd" d="M.36 2.695c0-.63.514-1.14 1.148-1.14h9.703c.634 0 1.148.51 1.148 1.14v.875h-12v-.875zm0 2.324v4.286c0 .63.514 1.14 1.148 1.14h9.703c.634 0 1.148-.51 1.148-1.14V5.02h-12z"/></svg><svg viewBox="0 0 13 13" id="chart" xmlns="http://www.w3.org/2000/svg"><path d="M12.218 11.585a.462.462 0 01-.462.462H.68a.461.461 0 01-.461-.462v-9.23a.462.462 0 01.923 0v6.27l2.902-2.907a.467.467 0 01.657 0L6.218 7.24l2.81-2.81-.831-.825a.485.485 0 01-.098-.507.467.467 0 01.426-.283h2.308a.461.461 0 01.462.462v2.307a.461.461 0 01-.462.462.479.479 0 01-.329-.133l-.825-.83-3.132 3.138a.467.467 0 01-.658 0L4.372 6.699 1.14 9.929v1.195h10.615a.462.462 0 01.462.461z"/></svg><svg viewBox="0 0 6 6" id="check" xmlns="http://www.w3.org/2000/svg"><path d="M.802 3.328L2.114 4.64l3.28-3.28"/></svg><svg viewBox="0 0 13 15" id="clip" xmlns="http://www.w3.org/2000/svg"><path d="M12.452 7.14a.543.543 0 01-.007.765l-5.5 5.494A3.757 3.757 0 111.63 8.087l6.662-6.75a2.684 2.684 0 113.797 3.791l-6.662 6.75a1.597 1.597 0 01-1.14.476 1.611 1.611 0 01-1.141-2.75l5.588-5.676a.537.537 0 11.765.75L3.912 10.36a.538.538 0 00-.161.383.543.543 0 00.919.382l6.655-6.756a1.597 1.597 0 00.477-1.14 1.611 1.611 0 00-2.751-1.14L2.396 8.843a2.684 2.684 0 103.79 3.797l5.501-5.5a.543.543 0 01.765 0z"/></svg><svg viewBox="0 0 16 16" id="close" xmlns="http://www.w3.org/2000/svg"><path fill-rule="evenodd" clip-rule="evenodd" d="M3.647 3.647a.5.5 0 01.706 0L8 7.293l3.647-3.646a.5.5 0 11.706.706L8.707 8l3.646 3.647a.5.5 0 11-.706.706L8 8.707l-3.647 3.646a.5.5 0 01-.706-.706L7.293 8 3.647 4.353a.5.5 0 010-.706z"/></svg><svg viewBox="0 0 30 31" id="commission" xmlns="http://www.w3.org/2000/svg"><path fill-rule="evenodd" clip-rule="evenodd" d="M14.988 2.834a5.613 5.613 0 00-4.248 1.938 5.612 5.612 0 00-4.37 1.632 5.614 5.614 0 00-1.634 4.373A5.613 5.613 0 002.8 15.023a5.61 5.61 0 001.935 4.246 5.614 5.614 0 001.634 4.373 5.613 5.613 0 004.372 1.633 5.615 5.615 0 004.247 1.937 5.612 5.612 0 004.246-1.937 5.614 5.614 0 004.371-1.633 5.614 5.614 0 001.633-4.372 5.614 5.614 0 001.937-4.247 5.612 5.612 0 00-1.936-4.246 5.613 5.613 0 00-1.634-4.373 5.613 5.613 0 00-4.372-1.634 5.614 5.614 0 00-4.245-1.936zm4.412 9.1a.937.937 0 00-1.325-1.325l-7.5 7.5a.938.938 0 101.325 1.325l7.5-7.5zm-7.225-1.131a1.406 1.406 0 100 2.812 1.406 1.406 0 000-2.812zm5.625 5.625a1.406 1.406 0 100 2.812 1.406 1.406 0 000-2.812z"/></svg><svg viewBox="0 0 20 20" id="copy" xmlns="http://www.w3.org/2000/svg"><g clip-path="url(#aqa)" stroke-width="1.5" stroke-linecap="round" stroke-linejoin="round"><path d="M7.5 12.5c0-2.357 0-3.536.732-4.268C8.964 7.5 10.143 7.5 12.5 7.5h.833c2.357 0 3.536 0 4.268.732.732.732.732 1.911.732 4.268v.833c0 2.357 0 3.536-.732 4.268-.732.732-1.91.732-4.268.732H12.5c-2.357 0-3.536 0-4.268-.732-.732-.732-.732-1.91-.732-4.268V12.5z"/><path d="M14.167 7.5c-.002-2.464-.04-3.74-.757-4.615a3.336 3.336 0 00-.462-.462c-.922-.756-2.292-.756-5.031-.756-2.74 0-4.11 0-5.032.756a3.332 3.332 0 00-.462.462c-.756.922-.756 2.292-.756 5.032s0 4.109.756 5.031c.139.169.294.323.462.462.874.717 2.15.755 4.615.757"/></g><defs><clipPath id="aqa"><path d="M0 0h20v20H0z"/></clipPath></defs></svg><svg viewBox="0 0 14 14" id="crowdfunding" xmlns="http://www.w3.org/2000/svg"><path d="M6.578.561a.489.489 0 01.844 0L9.42 3.99a.489.489 0 00.318.232l3.877.84c.366.079.51.523.261.802l-2.643 2.958a.489.489 0 00-.121.375l.4 3.947a.489.489 0 01-.684.496l-3.63-1.6a.489.489 0 00-.394 0l-3.63 1.6a.489.489 0 01-.683-.496l.4-3.947a.489.489 0 00-.122-.375L.125 5.863a.489.489 0 01.26-.803l3.878-.84a.489.489 0 00.318-.23L6.578.56z"/></svg><svg viewBox="0 0 24 24" id="crunchbase" xmlns="http://www.w3.org/2000/svg"><g clip-path="url(#asa)"><path d="M21.601 0H2.398A2.409 2.409 0 000 2.398v19.204A2.409 2.409 0 002.398 24h19.203A2.409 2.409 0 0024 21.602V2.398A2.41 2.41 0 0021.6 0zM7.047 14.464a2.107 2.107 0 002.793-1.043h1.66c-1.035 4.239-7.273 3.489-7.273-.875 0-4.367 6.238-5.117 7.273-.875H9.84a2.108 2.108 0 00-3.41-.617 2.107 2.107 0 00.617 3.41zm11.344.844a3.528 3.528 0 01-1.063.633 3.679 3.679 0 01-3.387-.382v.382h-1.512V5.371h1.5V9.48a3.733 3.733 0 011.8-.63H16c3.414-.007 4.984 4.243 2.39 6.457l.002.001zm-.223-2.765a2.102 2.102 0 01-2.918 1.98 2.102 2.102 0 01-1.289-1.98c.059-2.742 4.145-2.742 4.207 0z"/></g><defs><clipPath id="asa"><path d="M0 0h24v24H0z"/></clipPath></defs></svg><svg viewBox="0 0 15 14" id="dashboard" xmlns="http://www.w3.org/2000/svg"><path d="M.068 6.334c0-.421.182-.822.5-1.102L6.077.373a1.499 1.499 0 011.98 0l5.512 4.86c.317.28.498.68.498 1.1v6.193c0 .814-.666 1.474-1.488 1.474H1.557c-.822 0-1.489-.66-1.489-1.474V6.334z"/></svg><svg viewBox="0 0 11 12" id="date" xmlns="http://www.w3.org/2000/svg"><rect x=".617" y="1.761" width="9.07" height="9.121" rx="1"/><path d="M.617 4.809h9.07v5.072a1 1 0 01-1 1h-7.07a1 1 0 01-1-1V4.81zM7.668.882v1.654M2.707.882v1.654"/></svg><svg viewBox="0 0 13 13" id="depo" xmlns="http://www.w3.org/2000/svg"><path d="M11.826 11.5l-1.583-7.9a.825.825 0 00-.831-.738h-.915a2.492 2.492 0 00-.856-1.484 2.517 2.517 0 00-3.232 0 2.492 2.492 0 00-.856 1.484H2.64a.833.833 0 00-.831.738L.224 11.5a.838.838 0 00.49.854.834.834 0 00.341.072h9.94a.834.834 0 00.831-.926zm-5.8-9.886a1.683 1.683 0 011.619 1.248h-3.24c.094-.357.303-.673.597-.899a1.684 1.684 0 011.023-.349z"/></svg><svg viewBox="0 0 24 24" id="discord" xmlns="http://www.w3.org/2000/svg"><g clip-path="url(#awa)"><path d="M20.317 4.492c-1.53-.69-3.17-1.2-4.885-1.49a.075.075 0 00-.079.036c-.21.369-.444.85-.608 1.23a18.566 18.566 0 00-5.487 0 12.359 12.359 0 00-.617-1.23A.077.077 0 008.562 3c-1.714.29-3.354.8-4.885 1.491a.07.07 0 00-.032.027C.533 9.093-.32 13.555.099 17.961a.08.08 0 00.031.055 20.031 20.031 0 005.993 2.98.078.078 0 00.084-.026 13.83 13.83 0 001.226-1.963.074.074 0 00-.041-.104 13.211 13.211 0 01-1.872-.878.075.075 0 01-.008-.125c.126-.093.252-.19.372-.287a.076.076 0 01.078-.01c3.927 1.764 8.18 1.764 12.061 0a.075.075 0 01.079.009c.12.098.245.195.372.288a.075.075 0 01.02.1.075.075 0 01-.026.025c-.598.344-1.22.635-1.873.877a.075.075 0 00-.041.105c.36.687.772 1.341 1.225 1.962a.078.078 0 00.084.028 19.966 19.966 0 006.002-2.981.076.076 0 00.032-.054c.5-5.094-.838-9.52-3.549-13.442a.06.06 0 00-.031-.028zM8.02 15.278c-1.182 0-2.157-1.069-2.157-2.38 0-1.312.956-2.38 2.157-2.38 1.21 0 2.176 1.077 2.157 2.38 0 1.312-.956 2.38-2.157 2.38zm7.975 0c-1.183 0-2.157-1.069-2.157-2.38 0-1.312.955-2.38 2.157-2.38 1.21 0 2.176 1.077 2.157 2.38 0 1.312-.946 2.38-2.157 2.38z"/></g><defs><clipPath id="awa"><path d="M0 0h24v24H0z"/></clipPath></defs></svg><svg viewBox="0 0 16 17" id="dots" xmlns="http://www.w3.org/2000/svg"><path d="M7.862 9.82c.657 0 1.19-.547 1.19-1.221 0-.675-.533-1.222-1.19-1.222-.658 0-1.192.547-1.192 1.222 0 .674.534 1.221 1.192 1.221zm5.628 0c.657 0 1.19-.547 1.19-1.221 0-.675-.533-1.222-1.19-1.222-.659 0-1.192.547-1.192 1.222 0 .674.534 1.221 1.191 1.221zm-11.256 0c.658 0 1.19-.547 1.19-1.221 0-.675-.532-1.222-1.19-1.222-.658 0-1.191.547-1.191 1.222 0 .674.533 1.221 1.19 1.221z"/></svg><svg viewBox="0 0 13 12" id="edit" xmlns="http://www.w3.org/2000/svg"><path d="M11.367.905a1.819 1.819 0 00-2.585.018L1.794 7.91a1.352 1.352 0 00-.354.62l-.68 2.651c-.05.2.131.38.33.33l2.651-.68c.235-.06.45-.183.62-.354L11.35 3.49a1.817 1.817 0 00.017-2.585z"/></svg><svg viewBox="0 0 16 13" id="email" xmlns="http://www.w3.org/2000/svg"><path d="M16 3.373V10.5a2.5 2.5 0 01-2.5 2.5h-11A2.5 2.5 0 010 10.5V3.373l7.746 4.558a.5.5 0 00.508 0L16 3.373zM13.5 0a2.5 2.5 0 012.485 2.223L8 6.92.015 2.223A2.5 2.5 0 012.5 0h11z"/></svg><svg viewBox="0 0 14 14" id="exchange" xmlns="http://www.w3.org/2000/svg"><path fill-rule="evenodd" clip-rule="evenodd" d="M7.004 0a.93.93 0 01.93.931v.471A3.265 3.265 0 0111.2 4.667a.931.931 0 01-1.863 0 1.403 1.403 0 00-1.402-1.402H5.833a1.403 1.403 0 100 2.805H8.4a3.265 3.265 0 010 6.53h-.465v.469a.931.931 0 11-1.863 0V12.6H5.6a3.265 3.265 0 01-3.266-3.265.931.931 0 011.863 0A1.403 1.403 0 005.6 10.738h1.365a.995.995 0 01.077 0H8.4a1.403 1.403 0 100-2.806H5.833a3.265 3.265 0 110-6.53h.24v-.47A.93.93 0 017.003 0z"/></svg><svg viewBox="0 0 768 768" id="eye" xmlns="http://www.w3.org/2000/svg"><path d="M3.392 369.696c-4.352 8.768-4.672 19.296 0 28.608 0 0 12.672 25.248 35.84 58.976 14.432 20.992 33.216 45.824 56.224 70.976 28.608 31.328 64.128 63.584 106.208 89.6C252.704 649.408 313.856 672 384 672s131.296-22.592 182.336-54.144c42.08-26.016 77.6-58.272 106.208-89.6 22.976-25.152 41.792-49.984 56.224-70.976 23.168-33.728 35.84-58.976 35.84-58.976 4.352-8.768 4.672-19.296 0-28.608 0 0-12.672-25.248-35.84-58.976-14.432-20.992-33.216-45.824-56.224-70.976-28.608-31.328-64.128-63.584-106.208-89.6C515.296 118.592 454.144 96 384 96s-131.296 22.592-182.336 54.144c-42.08 26.016-77.6 58.272-106.208 89.6-23.008 25.152-41.792 49.952-56.224 70.976-23.168 33.728-35.84 58.976-35.84 58.976zM68.48 384c5.216-8.992 13.024-21.792 23.488-37.056 13.12-19.072 30.08-41.472 50.72-64.032 25.76-28.192 56.8-56.192 92.608-78.336C278.496 177.888 328.128 160 384 160s105.504 17.888 148.672 44.576c35.808 22.144 66.848 50.144 92.608 78.336 20.608 22.56 37.6 44.96 50.72 64.032 10.496 15.264 18.304 28.032 23.488 37.056-5.216 8.992-13.024 21.792-23.488 37.056-13.12 19.072-30.08 41.472-50.72 64.032-25.76 28.192-56.8 56.192-92.608 78.336C489.504 590.112 439.872 608 384 608s-105.504-17.888-148.672-44.576c-35.808-22.144-66.848-50.144-92.608-78.336-20.608-22.56-37.6-44.96-50.72-64.032C81.504 405.792 73.696 392.992 68.48 384zM512 384c0-35.328-14.368-67.392-37.504-90.496S419.328 256 384 256s-67.392 14.368-90.496 37.504S256 348.672 256 384s14.368 67.392 37.504 90.496S348.672 512 384 512s67.392-14.368 90.496-37.504S512 419.328 512 384zm-64 0c0 17.696-7.136 33.632-18.752 45.248S401.696 448 384 448s-33.632-7.136-45.248-18.752S320 401.696 320 384s7.136-33.632 18.752-45.248S366.304 320 384 320s33.632 7.136 45.248 18.752S448 366.304 448 384z"/></svg><svg viewBox="0 0 768 768" id="eye-off" xmlns="http://www.w3.org/2000/svg"><path d="M324.096 166.848c20.832-4.864 41.472-7.072 59.52-6.848 56.256 0 105.888 17.888 149.056 44.576 35.808 22.144 66.848 50.144 92.608 78.336 20.608 22.56 37.6 44.96 50.72 64.032 10.464 15.2 18.24 27.968 23.456 36.96-17.472 30.496-37.12 58.272-56.896 81.344-11.488 13.408-9.952 33.632 3.456 45.12s33.632 9.952 45.12-3.456c26.176-30.528 51.552-67.584 73.056-107.84 4.736-8.928 5.216-19.776.416-29.408 0 0-12.672-25.248-35.84-58.976-14.432-20.992-33.216-45.824-56.224-70.976-28.608-31.328-64.128-63.584-106.208-89.6C515.296 118.592 454.144 96 384.384 96c-23.488-.288-49.28 2.528-74.88 8.512-17.216 4.032-27.904 21.248-23.872 38.464s21.248 27.904 38.464 23.872zm-3.232 199.296l80.992 80.992c-5.824 1.952-11.904 3.008-18.016 3.232-16.416.576-32.96-5.088-45.888-17.152s-19.744-28.16-20.32-44.576c-.256-7.616.8-15.232 3.232-22.528zm-129.408-129.44l81.696 81.696c-13.888 22.112-20.352 47.488-19.456 72.512 1.152 32.704 14.816 65.056 40.672 89.12s59.072 35.424 91.776 34.272c22.144-.768 44.128-7.296 63.488-19.456l74.304 74.304C479.84 594.72 431.296 607.424 383.648 608c-55.488 0-105.12-17.888-148.288-44.576-35.808-22.144-66.848-50.144-92.608-78.336-20.608-22.56-37.6-44.96-50.72-64.032-10.432-15.2-18.24-27.936-23.424-36.928C102.208 325.824 144.64 276 191.52 236.704zM9.376 54.624l136.672 136.672C90.656 238.624 41.44 298.752 3.808 368.864c-4.736 8.928-5.248 19.808-.416 29.44 0 0 12.672 25.248 35.84 58.976 14.432 20.992 33.216 45.824 56.224 70.976 28.608 31.328 64.128 63.584 106.208 89.6C252.704 649.408 313.856 672 384.384 672c63.776-.768 128.608-19.232 186.08-56.288l142.912 142.912c12.512 12.512 32.768 12.512 45.248 0s12.512-32.768 0-45.248L474.592 429.344l-.224-.224L339.68 294.4c-.256-.224-.512-.512-.768-.768L54.624 9.376c-12.512-12.512-32.768-12.512-45.248 0s-12.512 32.768 0 45.248z"/></svg><svg viewBox="0 0 12 12" id="gas" xmlns="http://www.w3.org/2000/svg"><path fill-rule="evenodd" clip-rule="evenodd" d="M6.025.308a2.62 2.62 0 00-1.982.905A2.62 2.62 0 001.4 2.912a2.62 2.62 0 00-.16 1.103 2.62 2.62 0 00-.902 1.982c0 .791.35 1.5.903 1.981a2.62 2.62 0 001.7 2.644 2.62 2.62 0 001.103.159 2.62 2.62 0 003.07.667 2.62 2.62 0 00.893-.667 2.62 2.62 0 002.643-1.7 2.62 2.62 0 00.159-1.102 2.62 2.62 0 00.904-1.982c0-.792-.35-1.501-.904-1.982a2.62 2.62 0 00-1.7-2.644 2.62 2.62 0 00-1.103-.159 2.62 2.62 0 00-1.98-.904zm2.06 4.247a.438.438 0 00-.619-.618l-3.5 3.5a.437.437 0 10.619.618l3.5-3.5zm-3.372-.528a.656.656 0 100 1.313.656.656 0 000-1.313zm2.625 2.625a.656.656 0 100 1.313.656.656 0 000-1.313z"/></svg><svg viewBox="0 0 22 22" id="heart" xmlns="http://www.w3.org/2000/svg"><path d="M10.675 19.168l-.007-.003-.02-.011a13.967 13.967 0 01-.351-.2 23.087 23.087 0 01-3.89-2.906c-2.11-1.968-4.345-4.888-4.345-8.485 0-2.684 2.26-4.813 4.985-4.813A5.042 5.042 0 0111 4.631a5.042 5.042 0 013.954-1.88c2.725 0 4.983 2.128 4.983 4.812 0 3.598-2.234 6.518-4.344 8.484a23.076 23.076 0 01-3.89 2.906c-.116.069-.233.136-.351.2l-.02.012-.007.004h-.002a.689.689 0 01-.646 0l-.002-.001z"/></svg><svg viewBox="0 0 13 13" id="image" xmlns="http://www.w3.org/2000/svg"><path d="M11.504.367h-10a1 1 0 00-1 1v10a1 1 0 001 1h10a1 1 0 001-1v-10a1 1 0 00-1-1zm-1.794 5a1.006 1.006 0 00-1.412 0L5.504 8.161 4.21 6.867a1.006 1.006 0 00-1.412 0L1.504 8.161V1.367h10v5.794L9.71 5.367z"/></svg><svg viewBox="0 0 24 24" id="linkedin" xmlns="http://www.w3.org/2000/svg"><path d="M13 21H9V9h4v2a4.618 4.618 0 013.525-1.763A4.5 4.5 0 0121 13.75V21h-4v-6.75a2.265 2.265 0 00-2.247-1.944A1.815 1.815 0 0013 14.25V21zm-6 0H3V9h4v12zM5 7a2 2 0 110-4 2 2 0 010 4z"/></svg><svg viewBox="0 0 100 100" id="loader" xmlns="http://www.w3.org/2000/svg"><path d="M50 12.5V25m0 50v12.5M87.5 50H75m-50 0H12.5m64.014-26.514l-8.838 8.84m-35.351 35.35l-8.839 8.839m53.028 0l-8.838-8.84m-35.351-35.35l-8.839-8.839"/></svg><svg viewBox="0 0 24 24" id="medium" xmlns="http://www.w3.org/2000/svg"><path d="M4.372 7.264a.784.784 0 00-.252-.658L2.252 4.339V4H8.05l4.482 9.905L16.472 4H22v.339L20.403 5.88a.471.471 0 00-.177.452v11.334a.472.472 0 00.177.452l1.56 1.542V20H14.12v-.339l1.616-1.58c.16-.16.16-.207.16-.451V8.468l-4.493 11.494h-.606L5.566 8.468v7.704c-.043.323.064.65.29.884l2.101 2.568v.338H2v-.338l2.1-2.568a1.03 1.03 0 00.272-.884V7.264z"/></svg><svg viewBox="0 0 24 24" id="notification" xmlns="http://www.w3.org/2000/svg"><path fill-rule="evenodd" clip-rule="evenodd" d="M5.25 9a6.75 6.75 0 0113.5 0v.75c0 2.123.8 4.057 2.118 5.52a.75.75 0 01-.297 1.206c-1.544.57-3.16.99-4.831 1.243a3.75 3.75 0 11-7.48 0 24.585 24.585 0 01-4.831-1.244.75.75 0 01-.298-1.205A8.217 8.217 0 005.25 9.75V9zm4.502 8.9a2.25 2.25 0 104.496 0c-1.496.135-3 .135-4.496 0z"/></svg><svg viewBox="0 0 5 2" id="order" xmlns="http://www.w3.org/2000/svg"><path d="M.78.915h3.59"/></svg><svg viewBox="0 0 16 20" id="password" xmlns="http://www.w3.org/2000/svg"><path d="M12.583 7.25V5.417C12.583 2.85 10.567.833 8 .833S3.417 2.85 3.417 5.417V7.25C1.858 7.25.667 8.442.667 10v6.417c0 1.558 1.191 2.75 2.75 2.75h9.166c1.559 0 2.75-1.192 2.75-2.75V10c0-1.558-1.191-2.75-2.75-2.75zM5.25 5.417c0-1.559 1.192-2.75 2.75-2.75s2.75 1.191 2.75 2.75V7.25h-5.5V5.417z"/></svg><svg viewBox="0 0 13 12" id="pen" xmlns="http://www.w3.org/2000/svg"><path d="M11.367.905a1.819 1.819 0 00-2.585.018L1.794 7.91a1.352 1.352 0 00-.354.62l-.68 2.651c-.05.2.131.38.33.33l2.651-.68c.235-.06.45-.183.62-.354L11.35 3.49a1.817 1.817 0 00.017-2.585z"/></svg><svg viewBox="0 0 22 22" id="phone" xmlns="http://www.w3.org/2000/svg"><path fill-rule="evenodd" clip-rule="evenodd" d="M1.375 4.125a2.75 2.75 0 012.75-2.75h1.258A1.72 1.72 0 017.05 2.677L8.063 6.73a1.719 1.719 0 01-.636 1.792l-1.185.89c-.124.092-.15.228-.116.322a10.345 10.345 0 006.139 6.139c.094.035.23.008.323-.116l.889-1.185a1.718 1.718 0 011.792-.636l4.054 1.013a1.72 1.72 0 011.302 1.668v1.257a2.75 2.75 0 01-2.75 2.75h-2.063c-7.973 0-14.437-6.464-14.437-14.438v-2.06z"/></svg><svg viewBox="0 0 24 24" id="reddit" xmlns="http://www.w3.org/2000/svg"><path d="M22.743 11.759a2.479 2.479 0 00-2.476-2.476c-.591 0-1.144.217-1.59.595l-.044.026c-1.61-1.03-3.744-1.687-6.105-1.777l1.41-4.007 3.517.84a2.023 2.023 0 002.02 2.017 2.024 2.024 0 002.022-2.021 2.02 2.02 0 00-3.892-.76l-4.167-.995-1.731 4.917c-2.462.047-4.693.713-6.363 1.777a2.446 2.446 0 00-1.612-.612 2.477 2.477 0 00-2.475 2.475c0 .845.436 1.625 1.142 2.079a4.347 4.347 0 00-.07.75c0 3.572 4.33 6.479 9.652 6.479 5.323 0 9.654-2.907 9.654-6.48a4.36 4.36 0 00-.066-.728 2.476 2.476 0 001.174-2.1zm-7.48 3.204A1.52 1.52 0 0114 12.597a1.521 1.521 0 111.263 2.366zm.303 2.594c-.046.046-1.136 1.157-3.602 1.157-2.48 0-3.471-1.125-3.513-1.174a.39.39 0 01.59-.508c.022.025.85.905 2.923.905 2.108 0 3.033-.912 3.043-.92a.389.389 0 01.559.54zm-8.172-4.115a1.521 1.521 0 113.042-.052 1.521 1.521 0 01-3.042.052z"/></svg><svg viewBox="0 0 18 18" id="search" xmlns="http://www.w3.org/2000/svg"><path d="M17.706 16.143l-3.76-3.759A7.695 7.695 0 0015.5 7.75c0-4.272-3.476-7.749-7.749-7.749S.001 3.478.001 7.751c0 4.272 3.477 7.748 7.75 7.748 1.814 0 3.48-.63 4.802-1.68l3.739 3.738a.997.997 0 001.414 0 .999.999 0 000-1.414zM1.5 7.75a6.256 6.256 0 016.25-6.249 6.256 6.256 0 016.248 6.25 6.256 6.256 0 01-6.249 6.248A6.256 6.256 0 011.501 7.75z"/></svg><svg viewBox="0 0 18 18" id="settings" xmlns="http://www.w3.org/2000/svg"><path d="M7.542.675h2.916c.575 0 1.043.468 1.043 1.043v1.115a6.214 6.214 0 011.594.929l.966-.56a1.047 1.047 0 011.43.375l1.46 2.527.008.015a1.043 1.043 0 01-.402 1.41l-.953.551a6.668 6.668 0 010 1.858l.954.55a1.043 1.043 0 01.393 1.426l-1.459 2.525c-.142.244-.37.416-.64.486s-.552.032-.792-.109l-.965-.56a6.212 6.212 0 01-1.594.93V16.3c0 .575-.468 1.042-1.043 1.042H7.542A1.044 1.044 0 016.499 16.3v-1.116a6.212 6.212 0 01-1.594-.928l-.966.56c-.497.29-1.14.122-1.43-.376l-1.46-2.527a1.044 1.044 0 01.393-1.425l.954-.551a6.578 6.578 0 01-.064-.929c0-.32.022-.631.064-.929l-.953-.55a1.043 1.043 0 01-.393-1.426L2.508 3.58c.292-.5.934-.668 1.432-.377l.965.56a6.214 6.214 0 011.595-.93V1.718c0-.575.468-1.043 1.043-1.043zm2.707 1.252H7.751v1.349a.626.626 0 01-.44.598 4.99 4.99 0 00-1.912 1.113.626.626 0 01-.738.08l-1.173-.68L2.24 6.545l1.164.672a.626.626 0 01.297.682c-.078.34-.118.714-.118 1.11 0 .396.04.77.118 1.11a.626.626 0 01-.297.682l-1.164.672 1.247 2.159 1.173-.681a.626.626 0 01.738.08 4.995 4.995 0 001.911 1.113.626.626 0 01.441.598v1.35h2.498v-1.35c0-.274.179-.517.441-.598a4.994 4.994 0 001.912-1.113.626.626 0 01.737-.08l1.173.68 1.247-2.158-1.164-.672a.625.625 0 01-.297-.682 4.98 4.98 0 00.118-1.11c0-.396-.04-.77-.118-1.11a.626.626 0 01.297-.682l1.164-.672-1.247-2.158-1.173.68a.626.626 0 01-.738-.08 4.996 4.996 0 00-1.91-1.113.626.626 0 01-.442-.598v-1.35zM3.31 13.735h.001zM9 5.675a3.423 3.423 0 01.878.117c.203.06.505.16.79.336a3.21 3.21 0 011.213 1.212 3.297 3.297 0 01.342.812c.074.286.111.574.111.857a3.42 3.42 0 01-.117.878 3.3 3.3 0 01-.336.79 3.208 3.208 0 01-1.212 1.213 3.292 3.292 0 01-.812.342 3.421 3.421 0 01-.857.112 3.42 3.42 0 01-.878-.118 3.296 3.296 0 01-.79-.336 3.208 3.208 0 01-1.213-1.212 3.295 3.295 0 01-.341-.812 3.418 3.418 0 01-.112-.857 3.417 3.417 0 01.117-.878c.06-.203.16-.505.336-.79a3.208 3.208 0 011.212-1.212 3.298 3.298 0 01.812-.343c.286-.074.574-.111.857-.111zm.533 1.32A2.166 2.166 0 009 6.928a1.991 1.991 0 00-1.044.287 1.956 1.956 0 00-.767.777 1.99 1.99 0 00-.271 1.018 1.99 1.99 0 00.287 1.044 1.956 1.956 0 00.777.767 1.992 1.992 0 001.018.27 1.992 1.992 0 001.044-.287 1.955 1.955 0 00.767-.777 1.99 1.99 0 00.271-1.018 1.99 1.99 0 00-.287-1.044 1.956 1.956 0 00-.777-.767 1.99 1.99 0 00-.485-.202z"/></svg><svg viewBox="0 0 15 15" id="smile" xmlns="http://www.w3.org/2000/svg"><path d="M7.727.5a7 7 0 107 7 7.014 7.014 0 00-7-7zm2.423 4.846a.808.808 0 110 1.616.808.808 0 010-1.616zm-4.847 0a.808.808 0 110 1.616.808.808 0 010-1.616zm5.688 4.039a3.77 3.77 0 01-6.529 0 .539.539 0 11.929-.539 2.699 2.699 0 004.671 0 .539.539 0 01.929.539z"/></svg><svg viewBox="0 0 10 10" id="status" xmlns="http://www.w3.org/2000/svg"><path d="M9.167 0H.833A.833.833 0 000 .833v8.334A.833.833 0 00.833 10h8.334A.833.833 0 0010 9.167V.833A.833.833 0 009.167 0zM7.578 4.052L4.526 6.97a.422.422 0 01-.578 0L2.422 5.51a.417.417 0 11.573-.604l1.24 1.183 2.77-2.641a.417.417 0 01.573.604z"/></svg><svg viewBox="0 0 16 16" id="support" xmlns="http://www.w3.org/2000/svg"><path fill-rule="evenodd" clip-rule="evenodd" d="M12.966 5.632l-2.04 1.701c.1.44.1.896 0 1.335l2.04 1.7a5.517 5.517 0 000-4.735v-.001zm-2.598 7.335l-1.701-2.042c-.44.1-.895.1-1.335 0l-1.7 2.041a5.517 5.517 0 004.736 0zm-7.334-2.599l2.041-1.701c-.1-.44-.1-.896 0-1.335l-2.04-1.699a5.517 5.517 0 000 4.736l-.001-.001zm2.598-7.335l1.702 2.042c.439-.1.895-.1 1.334 0l1.7-2.041a5.517 5.517 0 00-4.735 0zm5.772-.573a6.516 6.516 0 012.136 2.135 6.509 6.509 0 01-2.136 8.944 6.509 6.509 0 01-6.808 0 6.517 6.517 0 01-1.192-.944 6.501 6.501 0 01-.943-1.192 6.51 6.51 0 010-6.808A6.57 6.57 0 014.596 2.46a6.51 6.51 0 016.808 0zm-1.99 4.127a1.99 1.99 0 00-.74-.47 2.01 2.01 0 00-1.348 0 2.005 2.005 0 00-1.209 1.21 2.01 2.01 0 000 1.348c.096.27.252.523.47.74a2.009 2.009 0 002.088.47 2.005 2.005 0 001.209-1.21 2.01 2.01 0 000-1.348 1.99 1.99 0 00-.47-.74z"/></svg><svg viewBox="0 0 24 24" id="telegram" xmlns="http://www.w3.org/2000/svg"><path d="M20.665 3.717l-17.73 6.837c-1.21.486-1.203 1.161-.222 1.462l4.552 1.42 10.532-6.645c.498-.303.953-.14.579.192l-8.533 7.701h-.002l.002.001-.314 4.692c.46 0 .663-.21.921-.46l2.211-2.15 4.599 3.397c.848.467 1.457.227 1.668-.785l3.019-14.228c.309-1.239-.473-1.8-1.282-1.434z"/></svg><svg viewBox="0 0 25 25" id="twitter" xmlns="http://www.w3.org/2000/svg"><mask id="bva" maskUnits="userSpaceOnUse" x="3" y="3" width="19" height="19"><path d="M3 3h18.667v18.667H3V3z"/></mask><g mask="url(#bva)"><path d="M17.7 3.875h2.863l-6.254 7.165 7.358 9.752h-5.76l-4.515-5.913-5.16 5.913H3.367l6.688-7.667L3 3.876h5.907L12.98 9.28l4.72-5.405zm-1.007 15.2h1.587L8.04 5.503H6.339l10.354 13.572z"/></g></svg><svg viewBox="0 0 24 24" id="user" xmlns="http://www.w3.org/2000/svg"><path d="M12 3.75a3.75 3.75 0 100 7.5 3.75 3.75 0 000-7.5zm-4 9.5A3.75 3.75 0 004.25 17v1.188c0 .754.546 1.396 1.29 1.517 4.278.699 8.642.699 12.92 0a1.537 1.537 0 001.29-1.517V17A3.75 3.75 0 0016 13.25h-.34c-.185 0-.369.03-.544.086l-.866.283a7.251 7.251 0 01-4.5 0l-.866-.283a1.75 1.75 0 00-.543-.086H8z"/></svg></svg>