<?xml version="1.0" encoding="utf-8"?><svg viewBox="0 0 768 768" xmlns="http://www.w3.org/2000/svg" xmlns:xlink="http://www.w3.org/1999/xlink"><style>:root>svg{display:none}:root>svg:target{display:block}</style><svg viewBox="0 0 22 22" id="address" xmlns="http://www.w3.org/2000/svg"><path fill-rule="evenodd" clip-rule="evenodd" d="M10.578 20.488l.065.037.025.015a.695.695 0 00.663 0l.026-.014.065-.038c.358-.212.708-.44 1.048-.68a17.94 17.94 0 002.46-2.092c1.782-1.824 3.633-4.565 3.633-8.091a7.563 7.563 0 00-15.125 0c0 3.525 1.851 6.267 3.632 8.091.755.77 1.578 1.47 2.459 2.092.34.24.69.468 1.05.68zM11 12.375a2.75 2.75 0 100-5.5 2.75 2.75 0 000 5.5z"/></svg><svg viewBox="0 0 9 11" id="amount" xmlns="http://www.w3.org/2000/svg"><path d="M8.571 2.702c0 1.282-1.919 2.322-4.285 2.322C1.919 5.024 0 3.984 0 2.702S1.919.381 4.286.381C6.652.38 8.57 1.42 8.57 2.702z"/><path d="M4.286 5.738c1.278 0 2.471-.279 3.37-.766.331-.176.635-.398.904-.66.007.058.011.117.011.176 0 1.282-1.919 2.321-4.285 2.321C1.919 6.81 0 5.77 0 4.488c0-.059.004-.118.012-.175.268.261.572.483.903.659.899.487 2.092.766 3.37.766z"/><path d="M4.286 7.524c1.278 0 2.471-.28 3.37-.766.331-.176.635-.398.904-.66.007.058.011.117.011.176 0 1.282-1.919 2.321-4.285 2.321C1.919 8.595 0 7.555 0 6.274c0-.06.004-.118.012-.176.268.262.572.484.903.66.899.487 2.092.766 3.37.766z"/><path d="M4.286 9.31c1.278 0 2.471-.28 3.37-.767.331-.175.635-.397.904-.659.007.058.011.116.011.175 0 1.282-1.919 2.322-4.285 2.322C1.919 10.38 0 9.34 0 8.059c0-.059.004-.117.012-.175.268.262.572.484.903.66.899.486 2.092.765 3.37.765z"/></svg><svg viewBox="0 0 10 15" id="app" xmlns="http://www.w3.org/2000/svg"><path d="M8 .63H2a1.506 1.506 0 00-1.5 1.5v11a1.506 1.506 0 001.5 1.5h6a1.506 1.506 0 001.5-1.5v-11A1.506 1.506 0 008 .63zm-3 3.5a.75.75 0 110-1.5.75.75 0 010 1.5z"/></svg><svg viewBox="0 0 5 8" id="arrow" xmlns="http://www.w3.org/2000/svg"><path d="M.75 7l3-3-3-3"/></svg><svg viewBox="0 0 9 9" id="arrow-change" xmlns="http://www.w3.org/2000/svg"><path d="M1.73 7.042l5.334-5.334m0 5.029V1.708H2.036"/></svg><svg viewBox="0 0 30 31" id="arrow-tariff" xmlns="http://www.w3.org/2000/svg"><path fill-rule="evenodd" clip-rule="evenodd" d="M15 27.218c-6.731 0-12.188-5.456-12.188-12.188C2.813 8.3 8.27 2.843 15 2.843c6.731 0 12.188 5.456 12.188 12.187 0 6.732-5.457 12.188-12.188 12.188zM14.338 9.68a.938.938 0 011.325 0l3.75 3.75a.937.937 0 11-1.326 1.325l-2.15-2.15v7.113a.938.938 0 01-1.874 0v-7.113l-2.15 2.15a.937.937 0 01-1.325-1.325l3.75-3.75z"/></svg><svg viewBox="0 0 14 14" id="avalanche" xmlns="http://www.w3.org/2000/svg"><path d="M.944 12.239a3.883 3.883 0 013.883-3.883h4.347a3.883 3.883 0 013.883 3.883c0 .715-.58 1.294-1.295 1.294H2.238c-.715 0-1.294-.58-1.294-1.294zM7.002 7.37a3.451 3.451 0 100-6.903 3.451 3.451 0 000 6.903z"/></svg><svg viewBox="0 0 13 12" id="bag" xmlns="http://www.w3.org/2000/svg"><path d="M11.474 2.534H9.126a2.77 2.77 0 00-5.457 0H1.32a.923.923 0 00-.924.923v7.384a.923.923 0 00.924.923h10.153a.923.923 0 00.924-.923V3.457a.923.923 0 00-.924-.923zM6.397 1.149a1.852 1.852 0 011.789 1.385H4.609a1.852 1.852 0 011.788-1.385z"/></svg><svg viewBox="0 0 22 22" id="birthplace" xmlns="http://www.w3.org/2000/svg"><path d="M17.422 3.396a.687.687 0 10-.47-1.292L5.5 6.268V2.75a.688.688 0 00-.687-.687H3.438a.688.688 0 00-.688.687v4.52l-.922.334a.688.688 0 10.47 1.292l15.124-5.5z"/><path fill-rule="evenodd" clip-rule="evenodd" d="M2.767 10.188L16.5 5.195V8.33l3.672 1.335a.688.688 0 01-.47 1.293l-.452-.165v7.769h.688a.687.687 0 110 1.375H2.063a.688.688 0 010-1.375h.687v-8.369l.017-.006zM16.5 18.563v-8.77l1.375.501v8.269H16.5zm-8.25-5.5a.688.688 0 00-.688.687v4.125c0 .38.308.688.688.688H11a.688.688 0 00.688-.688V13.75a.687.687 0 00-.688-.687H8.25z"/></svg><svg viewBox="0 0 24 24" id="calendar" xmlns="http://www.w3.org/2000/svg"><path fill-rule="evenodd" clip-rule="evenodd" d="M6.75 2.25A.75.75 0 017.5 3v1.5h9V3A.75.75 0 1118 3v1.5h.75a3 3 0 013 3v11.25a3 3 0 01-3 3H5.25a3 3 0 01-3-3V7.5a3 3 0 013-3H6V3a.75.75 0 01.75-.75zm13.5 9a1.5 1.5 0 00-1.5-1.5H5.25a1.5 1.5 0 00-1.5 1.5v7.5a1.5 1.5 0 001.5 1.5h13.5a1.5 1.5 0 001.5-1.5v-7.5z"/></svg><svg viewBox="0 0 13 12" id="card" xmlns="http://www.w3.org/2000/svg"><path fill-rule="evenodd" clip-rule="evenodd" d="M.36 2.695c0-.63.514-1.14 1.148-1.14h9.703c.634 0 1.148.51 1.148 1.14v.875h-12v-.875zm0 2.324v4.286c0 .63.514 1.14 1.148 1.14h9.703c.634 0 1.148-.51 1.148-1.14V5.02h-12z"/></svg><svg viewBox="0 0 13 13" id="chart" xmlns="http://www.w3.org/2000/svg"><path d="M12.218 11.585a.462.462 0 01-.462.462H.68a.461.461 0 01-.461-.462v-9.23a.462.462 0 01.923 0v6.27l2.902-2.907a.467.467 0 01.657 0L6.218 7.24l2.81-2.81-.831-.825a.485.485 0 01-.098-.507.467.467 0 01.426-.283h2.308a.461.461 0 01.462.462v2.307a.461.461 0 01-.462.462.479.479 0 01-.329-.133l-.825-.83-3.132 3.138a.467.467 0 01-.658 0L4.372 6.699 1.14 9.929v1.195h10.615a.462.462 0 01.462.461z"/></svg><svg viewBox="0 0 6 6" id="check" xmlns="http://www.w3.org/2000/svg"><path d="M.802 3.328L2.114 4.64l3.28-3.28"/></svg><svg viewBox="0 0 8 8" id="check-file" xmlns="http://www.w3.org/2000/svg"><path d="M.72 4.469l1.874 1.874L7.28 1.657"/></svg><svg viewBox="0 0 13 15" id="clip" xmlns="http://www.w3.org/2000/svg"><path d="M12.452 7.14a.543.543 0 01-.007.765l-5.5 5.494A3.757 3.757 0 111.63 8.087l6.662-6.75a2.684 2.684 0 113.797 3.791l-6.662 6.75a1.597 1.597 0 01-1.14.476 1.611 1.611 0 01-1.141-2.75l5.588-5.676a.537.537 0 11.765.75L3.912 10.36a.538.538 0 00-.161.383.543.543 0 00.919.382l6.655-6.756a1.597 1.597 0 00.477-1.14 1.611 1.611 0 00-2.751-1.14L2.396 8.843a2.684 2.684 0 103.79 3.797l5.501-5.5a.543.543 0 01.765 0z"/></svg><svg viewBox="0 0 16 16" id="close" xmlns="http://www.w3.org/2000/svg"><path fill-rule="evenodd" clip-rule="evenodd" d="M3.647 3.647a.5.5 0 01.706 0L8 7.293l3.647-3.646a.5.5 0 11.706.706L8.707 8l3.646 3.647a.5.5 0 11-.706.706L8 8.707l-3.647 3.646a.5.5 0 01-.706-.706L7.293 8 3.647 4.353a.5.5 0 010-.706z"/></svg><svg viewBox="0 0 30 31" id="commission" xmlns="http://www.w3.org/2000/svg"><path fill-rule="evenodd" clip-rule="evenodd" d="M14.988 2.834a5.613 5.613 0 00-4.248 1.938 5.612 5.612 0 00-4.37 1.632 5.614 5.614 0 00-1.634 4.373A5.613 5.613 0 002.8 15.023a5.61 5.61 0 001.935 4.246 5.614 5.614 0 001.634 4.373 5.613 5.613 0 004.372 1.633 5.615 5.615 0 004.247 1.937 5.612 5.612 0 004.246-1.937 5.614 5.614 0 004.371-1.633 5.614 5.614 0 001.633-4.372 5.614 5.614 0 001.937-4.247 5.612 5.612 0 00-1.936-4.246 5.613 5.613 0 00-1.634-4.373 5.613 5.613 0 00-4.372-1.634 5.614 5.614 0 00-4.245-1.936zm4.412 9.1a.937.937 0 00-1.325-1.325l-7.5 7.5a.938.938 0 101.325 1.325l7.5-7.5zm-7.225-1.131a1.406 1.406 0 100 2.812 1.406 1.406 0 000-2.812zm5.625 5.625a1.406 1.406 0 100 2.812 1.406 1.406 0 000-2.812z"/></svg><svg viewBox="0 0 20 20" id="copy" xmlns="http://www.w3.org/2000/svg"><g clip-path="url(#ara)" stroke-width="1.5" stroke-linecap="round" stroke-linejoin="round"><path d="M7.5 12.5c0-2.357 0-3.536.732-4.268C8.964 7.5 10.143 7.5 12.5 7.5h.833c2.357 0 3.536 0 4.268.732.732.732.732 1.911.732 4.268v.833c0 2.357 0 3.536-.732 4.268-.732.732-1.91.732-4.268.732H12.5c-2.357 0-3.536 0-4.268-.732-.732-.732-.732-1.91-.732-4.268V12.5z"/><path d="M14.167 7.5c-.002-2.464-.04-3.74-.757-4.615a3.336 3.336 0 00-.462-.462c-.922-.756-2.292-.756-5.031-.756-2.74 0-4.11 0-5.032.756a3.332 3.332 0 00-.462.462c-.756.922-.756 2.292-.756 5.032s0 4.109.756 5.031c.139.169.294.323.462.462.874.717 2.15.755 4.615.757"/></g><defs><clipPath id="ara"><path d="M0 0h20v20H0z"/></clipPath></defs></svg><svg viewBox="0 0 14 14" id="crowdfunding" xmlns="http://www.w3.org/2000/svg"><path d="M6.578.561a.489.489 0 01.844 0L9.42 3.99a.489.489 0 00.318.232l3.877.84c.366.079.51.523.261.802l-2.643 2.958a.489.489 0 00-.121.375l.4 3.947a.489.489 0 01-.684.496l-3.63-1.6a.489.489 0 00-.394 0l-3.63 1.6a.489.489 0 01-.683-.496l.4-3.947a.489.489 0 00-.122-.375L.125 5.863a.489.489 0 01.26-.803l3.878-.84a.489.489 0 00.318-.23L6.578.56z"/></svg><svg viewBox="0 0 24 24" id="crunchbase" xmlns="http://www.w3.org/2000/svg"><g clip-path="url(#ata)"><path d="M21.601 0H2.398A2.409 2.409 0 000 2.398v19.204A2.409 2.409 0 002.398 24h19.203A2.409 2.409 0 0024 21.602V2.398A2.41 2.41 0 0021.6 0zM7.047 14.464a2.107 2.107 0 002.793-1.043h1.66c-1.035 4.239-7.273 3.489-7.273-.875 0-4.367 6.238-5.117 7.273-.875H9.84a2.108 2.108 0 00-3.41-.617 2.107 2.107 0 00.617 3.41zm11.344.844a3.528 3.528 0 01-1.063.633 3.679 3.679 0 01-3.387-.382v.382h-1.512V5.371h1.5V9.48a3.733 3.733 0 011.8-.63H16c3.414-.007 4.984 4.243 2.39 6.457l.002.001zm-.223-2.765a2.102 2.102 0 01-2.918 1.98 2.102 2.102 0 01-1.289-1.98c.059-2.742 4.145-2.742 4.207 0z"/></g><defs><clipPath id="ata"><path d="M0 0h24v24H0z"/></clipPath></defs></svg><svg viewBox="0 0 15 14" id="dashboard" xmlns="http://www.w3.org/2000/svg"><path d="M.068 6.334c0-.421.182-.822.5-1.102L6.077.373a1.499 1.499 0 011.98 0l5.512 4.86c.317.28.498.68.498 1.1v6.193c0 .814-.666 1.474-1.488 1.474H1.557c-.822 0-1.489-.66-1.489-1.474V6.334z"/></svg><svg viewBox="0 0 11 12" id="date" xmlns="http://www.w3.org/2000/svg"><rect x=".617" y="1.761" width="9.07" height="9.121" rx="1"/><path d="M.617 4.809h9.07v5.072a1 1 0 01-1 1h-7.07a1 1 0 01-1-1V4.81zM7.668.882v1.654M2.707.882v1.654"/></svg><svg viewBox="0 0 13 13" id="depo" xmlns="http://www.w3.org/2000/svg"><path d="M11.826 11.5l-1.583-7.9a.825.825 0 00-.831-.738h-.915a2.492 2.492 0 00-.856-1.484 2.517 2.517 0 00-3.232 0 2.492 2.492 0 00-.856 1.484H2.64a.833.833 0 00-.831.738L.224 11.5a.838.838 0 00.49.854.834.834 0 00.341.072h9.94a.834.834 0 00.831-.926zm-5.8-9.886a1.683 1.683 0 011.619 1.248h-3.24c.094-.357.303-.673.597-.899a1.684 1.684 0 011.023-.349z"/></svg><svg viewBox="0 0 24 24" id="discord" xmlns="http://www.w3.org/2000/svg"><g clip-path="url(#axa)"><path d="M20.317 4.492c-1.53-.69-3.17-1.2-4.885-1.49a.075.075 0 00-.079.036c-.21.369-.444.85-.608 1.23a18.566 18.566 0 00-5.487 0 12.359 12.359 0 00-.617-1.23A.077.077 0 008.562 3c-1.714.29-3.354.8-4.885 1.491a.07.07 0 00-.032.027C.533 9.093-.32 13.555.099 17.961a.08.08 0 00.031.055 20.031 20.031 0 005.993 2.98.078.078 0 00.084-.026 13.83 13.83 0 001.226-1.963.074.074 0 00-.041-.104 13.211 13.211 0 01-1.872-.878.075.075 0 01-.008-.125c.126-.093.252-.19.372-.287a.076.076 0 01.078-.01c3.927 1.764 8.18 1.764 12.061 0a.075.075 0 01.079.009c.12.098.245.195.372.288a.075.075 0 01.02.1.075.075 0 01-.026.025c-.598.344-1.22.635-1.873.877a.075.075 0 00-.041.105c.36.687.772 1.341 1.225 1.962a.078.078 0 00.084.028 19.966 19.966 0 006.002-2.981.076.076 0 00.032-.054c.5-5.094-.838-9.52-3.549-13.442a.06.06 0 00-.031-.028zM8.02 15.278c-1.182 0-2.157-1.069-2.157-2.38 0-1.312.956-2.38 2.157-2.38 1.21 0 2.176 1.077 2.157 2.38 0 1.312-.956 2.38-2.157 2.38zm7.975 0c-1.183 0-2.157-1.069-2.157-2.38 0-1.312.955-2.38 2.157-2.38 1.21 0 2.176 1.077 2.157 2.38 0 1.312-.946 2.38-2.157 2.38z"/></g><defs><clipPath id="axa"><path d="M0 0h24v24H0z"/></clipPath></defs></svg><svg viewBox="0 0 16 17" id="dots" xmlns="http://www.w3.org/2000/svg"><path d="M7.862 9.82c.657 0 1.19-.547 1.19-1.221 0-.675-.533-1.222-1.19-1.222-.658 0-1.192.547-1.192 1.222 0 .674.534 1.221 1.192 1.221zm5.628 0c.657 0 1.19-.547 1.19-1.221 0-.675-.533-1.222-1.19-1.222-.659 0-1.192.547-1.192 1.222 0 .674.534 1.221 1.191 1.221zm-11.256 0c.658 0 1.19-.547 1.19-1.221 0-.675-.532-1.222-1.19-1.222-.658 0-1.191.547-1.191 1.222 0 .674.533 1.221 1.19 1.221z"/></svg><svg viewBox="0 0 13 12" id="edit" xmlns="http://www.w3.org/2000/svg"><path d="M11.367.905a1.819 1.819 0 00-2.585.018L1.794 7.91a1.352 1.352 0 00-.354.62l-.68 2.651c-.05.2.131.38.33.33l2.651-.68c.235-.06.45-.183.62-.354L11.35 3.49a1.817 1.817 0 00.017-2.585z"/></svg><svg viewBox="0 0 16 13" id="email" xmlns="http://www.w3.org/2000/svg"><path d="M16 3.373V10.5a2.5 2.5 0 01-2.5 2.5h-11A2.5 2.5 0 010 10.5V3.373l7.746 4.558a.5.5 0 00.508 0L16 3.373zM13.5 0a2.5 2.5 0 012.485 2.223L8 6.92.015 2.223A2.5 2.5 0 012.5 0h11z"/></svg><svg viewBox="0 0 14 14" id="exchange" xmlns="http://www.w3.org/2000/svg"><path fill-rule="evenodd" clip-rule="evenodd" d="M7.004 0a.93.93 0 01.93.931v.471A3.265 3.265 0 0111.2 4.667a.931.931 0 01-1.863 0 1.403 1.403 0 00-1.402-1.402H5.833a1.403 1.403 0 100 2.805H8.4a3.265 3.265 0 010 6.53h-.465v.469a.931.931 0 11-1.863 0V12.6H5.6a3.265 3.265 0 01-3.266-3.265.931.931 0 011.863 0A1.403 1.403 0 005.6 10.738h1.365a.995.995 0 01.077 0H8.4a1.403 1.403 0 100-2.806H5.833a3.265 3.265 0 110-6.53h.24v-.47A.93.93 0 017.003 0z"/></svg><svg viewBox="0 0 768 768" id="eye" xmlns="http://www.w3.org/2000/svg"><path d="M3.392 369.696c-4.352 8.768-4.672 19.296 0 28.608 0 0 12.672 25.248 35.84 58.976 14.432 20.992 33.216 45.824 56.224 70.976 28.608 31.328 64.128 63.584 106.208 89.6C252.704 649.408 313.856 672 384 672s131.296-22.592 182.336-54.144c42.08-26.016 77.6-58.272 106.208-89.6 22.976-25.152 41.792-49.984 56.224-70.976 23.168-33.728 35.84-58.976 35.84-58.976 4.352-8.768 4.672-19.296 0-28.608 0 0-12.672-25.248-35.84-58.976-14.432-20.992-33.216-45.824-56.224-70.976-28.608-31.328-64.128-63.584-106.208-89.6C515.296 118.592 454.144 96 384 96s-131.296 22.592-182.336 54.144c-42.08 26.016-77.6 58.272-106.208 89.6-23.008 25.152-41.792 49.952-56.224 70.976-23.168 33.728-35.84 58.976-35.84 58.976zM68.48 384c5.216-8.992 13.024-21.792 23.488-37.056 13.12-19.072 30.08-41.472 50.72-64.032 25.76-28.192 56.8-56.192 92.608-78.336C278.496 177.888 328.128 160 384 160s105.504 17.888 148.672 44.576c35.808 22.144 66.848 50.144 92.608 78.336 20.608 22.56 37.6 44.96 50.72 64.032 10.496 15.264 18.304 28.032 23.488 37.056-5.216 8.992-13.024 21.792-23.488 37.056-13.12 19.072-30.08 41.472-50.72 64.032-25.76 28.192-56.8 56.192-92.608 78.336C489.504 590.112 439.872 608 384 608s-105.504-17.888-148.672-44.576c-35.808-22.144-66.848-50.144-92.608-78.336-20.608-22.56-37.6-44.96-50.72-64.032C81.504 405.792 73.696 392.992 68.48 384zM512 384c0-35.328-14.368-67.392-37.504-90.496S419.328 256 384 256s-67.392 14.368-90.496 37.504S256 348.672 256 384s14.368 67.392 37.504 90.496S348.672 512 384 512s67.392-14.368 90.496-37.504S512 419.328 512 384zm-64 0c0 17.696-7.136 33.632-18.752 45.248S401.696 448 384 448s-33.632-7.136-45.248-18.752S320 401.696 320 384s7.136-33.632 18.752-45.248S366.304 320 384 320s33.632 7.136 45.248 18.752S448 366.304 448 384z"/></svg><svg viewBox="0 0 768 768" id="eye-off" xmlns="http://www.w3.org/2000/svg"><path d="M324.096 166.848c20.832-4.864 41.472-7.072 59.52-6.848 56.256 0 105.888 17.888 149.056 44.576 35.808 22.144 66.848 50.144 92.608 78.336 20.608 22.56 37.6 44.96 50.72 64.032 10.464 15.2 18.24 27.968 23.456 36.96-17.472 30.496-37.12 58.272-56.896 81.344-11.488 13.408-9.952 33.632 3.456 45.12s33.632 9.952 45.12-3.456c26.176-30.528 51.552-67.584 73.056-107.84 4.736-8.928 5.216-19.776.416-29.408 0 0-12.672-25.248-35.84-58.976-14.432-20.992-33.216-45.824-56.224-70.976-28.608-31.328-64.128-63.584-106.208-89.6C515.296 118.592 454.144 96 384.384 96c-23.488-.288-49.28 2.528-74.88 8.512-17.216 4.032-27.904 21.248-23.872 38.464s21.248 27.904 38.464 23.872zm-3.232 199.296l80.992 80.992c-5.824 1.952-11.904 3.008-18.016 3.232-16.416.576-32.96-5.088-45.888-17.152s-19.744-28.16-20.32-44.576c-.256-7.616.8-15.232 3.232-22.528zm-129.408-129.44l81.696 81.696c-13.888 22.112-20.352 47.488-19.456 72.512 1.152 32.704 14.816 65.056 40.672 89.12s59.072 35.424 91.776 34.272c22.144-.768 44.128-7.296 63.488-19.456l74.304 74.304C479.84 594.72 431.296 607.424 383.648 608c-55.488 0-105.12-17.888-148.288-44.576-35.808-22.144-66.848-50.144-92.608-78.336-20.608-22.56-37.6-44.96-50.72-64.032-10.432-15.2-18.24-27.936-23.424-36.928C102.208 325.824 144.64 276 191.52 236.704zM9.376 54.624l136.672 136.672C90.656 238.624 41.44 298.752 3.808 368.864c-4.736 8.928-5.248 19.808-.416 29.44 0 0 12.672 25.248 35.84 58.976 14.432 20.992 33.216 45.824 56.224 70.976 28.608 31.328 64.128 63.584 106.208 89.6C252.704 649.408 313.856 672 384.384 672c63.776-.768 128.608-19.232 186.08-56.288l142.912 142.912c12.512 12.512 32.768 12.512 45.248 0s12.512-32.768 0-45.248L474.592 429.344l-.224-.224L339.68 294.4c-.256-.224-.512-.512-.768-.768L54.624 9.376c-12.512-12.512-32.768-12.512-45.248 0s-12.512 32.768 0 45.248z"/></svg><svg viewBox="0 0 12 12" id="gas" xmlns="http://www.w3.org/2000/svg"><path fill-rule="evenodd" clip-rule="evenodd" d="M6.025.308a2.62 2.62 0 00-1.982.905A2.62 2.62 0 001.4 2.912a2.62 2.62 0 00-.16 1.103 2.62 2.62 0 00-.902 1.982c0 .791.35 1.5.903 1.981a2.62 2.62 0 001.7 2.644 2.62 2.62 0 001.103.159 2.62 2.62 0 003.07.667 2.62 2.62 0 00.893-.667 2.62 2.62 0 002.643-1.7 2.62 2.62 0 00.159-1.102 2.62 2.62 0 00.904-1.982c0-.792-.35-1.501-.904-1.982a2.62 2.62 0 00-1.7-2.644 2.62 2.62 0 00-1.103-.159 2.62 2.62 0 00-1.98-.904zm2.06 4.247a.438.438 0 00-.619-.618l-3.5 3.5a.437.437 0 10.619.618l3.5-3.5zm-3.372-.528a.656.656 0 100 1.313.656.656 0 000-1.313zm2.625 2.625a.656.656 0 100 1.313.656.656 0 000-1.313z"/></svg><svg viewBox="0 0 16 16" id="google-logo" xmlns="http://www.w3.org/2000/svg"><g clip-path="url(#bfa)"><path d="M15.04 8.167c0-.52-.047-1.02-.133-1.5H8v2.84h3.947a3.382 3.382 0 01-1.474 2.207v1.846h2.38c1.387-1.28 2.187-3.16 2.187-5.393z"/><path d="M8 15.334c1.98 0 3.64-.654 4.853-1.774l-2.38-1.846c-.653.44-1.487.706-2.473.706-1.907 0-3.527-1.286-4.107-3.02h-2.44v1.894A7.326 7.326 0 008 15.334z"/><path d="M3.894 9.393A4.394 4.394 0 013.66 8c0-.487.087-.954.234-1.394V4.713h-2.44a7.244 7.244 0 000 6.573l1.9-1.48.54-.413z"/><path d="M8 3.587c1.08 0 2.04.373 2.806 1.093l2.1-2.1C11.633 1.394 9.98.667 8 .667a7.32 7.32 0 00-6.547 4.047l2.44 1.893c.58-1.733 2.2-3.02 4.107-3.02z"/></g><defs><clipPath id="bfa"><path d="M0 0h16v16H0z"/></clipPath></defs></svg><svg viewBox="0 0 22 22" id="heart" xmlns="http://www.w3.org/2000/svg"><path d="M10.675 19.168l-.007-.003-.02-.011a13.967 13.967 0 01-.351-.2 23.087 23.087 0 01-3.89-2.906c-2.11-1.968-4.345-4.888-4.345-8.485 0-2.684 2.26-4.813 4.985-4.813A5.042 5.042 0 0111 4.631a5.042 5.042 0 013.954-1.88c2.725 0 4.983 2.128 4.983 4.812 0 3.598-2.234 6.518-4.344 8.484a23.076 23.076 0 01-3.89 2.906c-.116.069-.233.136-.351.2l-.02.012-.007.004h-.002a.689.689 0 01-.646 0l-.002-.001z"/></svg><svg viewBox="0 0 13 13" id="image" xmlns="http://www.w3.org/2000/svg"><path d="M11.504.367h-10a1 1 0 00-1 1v10a1 1 0 001 1h10a1 1 0 001-1v-10a1 1 0 00-1-1zm-1.794 5a1.006 1.006 0 00-1.412 0L5.504 8.161 4.21 6.867a1.006 1.006 0 00-1.412 0L1.504 8.161V1.367h10v5.794L9.71 5.367z"/></svg><svg viewBox="0 0 24 24" id="linkedin" xmlns="http://www.w3.org/2000/svg"><path d="M13 21H9V9h4v2a4.618 4.618 0 013.525-1.763A4.5 4.5 0 0121 13.75V21h-4v-6.75a2.265 2.265 0 00-2.247-1.944A1.815 1.815 0 0013 14.25V21zm-6 0H3V9h4v12zM5 7a2 2 0 110-4 2 2 0 010 4z"/></svg><svg viewBox="0 0 100 100" id="loader" xmlns="http://www.w3.org/2000/svg"><path d="M50 12.5V25m0 50v12.5M87.5 50H75m-50 0H12.5m64.014-26.514l-8.838 8.84m-35.351 35.35l-8.839 8.839m53.028 0l-8.838-8.84m-35.351-35.35l-8.839-8.839"/></svg><svg viewBox="0 0 10 13" id="location" xmlns="http://www.w3.org/2000/svg"><path d="M5 .4A4.72 4.72 0 00.287 5.115c0 4.034 4.286 7.082 4.468 7.21a.445.445 0 00.493 0c.182-.128 4.468-3.176 4.468-7.21A4.72 4.72 0 005.001.4zm0 3a1.714 1.714 0 110 3.43A1.714 1.714 0 015 3.4z"/></svg><svg viewBox="0 0 172 51" id="logo" xmlns="http://www.w3.org/2000/svg"><g clip-path="url(#bla)"><path d="M21.828 17.992a2.988 2.988 0 01-2.143-.915 3.178 3.178 0 01-.89-2.209 3.114 3.114 0 01.761-2.065 5.848 5.848 0 001.398-3.805 5.848 5.848 0 00-1.398-3.805 3.136 3.136 0 01-.761-2.065c-.015-.42.052-.84.197-1.232.146-.393.367-.752.65-1.055.283-.303.622-.544.997-.708a2.955 2.955 0 012.374 0c.376.164.715.405.998.708.283.303.504.662.65 1.055.145.393.212.812.197 1.232a3.136 3.136 0 01-.762 2.078A5.849 5.849 0 0022.7 9.011a5.85 5.85 0 001.397 3.805c.495.567.766 1.303.762 2.065a3.177 3.177 0 01-.893 2.2 2.987 2.987 0 01-2.137.911zm-8.932 5.319a2.969 2.969 0 01-1.514-.434 3.018 3.018 0 01-1.36-1.705 5.726 5.726 0 00-2.028-2.829 5.449 5.449 0 00-4.367-.958c-.195.04-.394.06-.593.06a2.98 2.98 0 01-1.515-.433 3.118 3.118 0 01-1.4-1.897A3.214 3.214 0 01.42 12.75c.198-.356.463-.668.778-.919a2.99 2.99 0 011.061-.54 2.937 2.937 0 012.301.314c.63.383 1.104.99 1.33 1.71a5.698 5.698 0 002.494 3.153 5.414 5.414 0 003.897.651c.198-.043.4-.065.602-.065.804 0 1.576.33 2.145.916a3.18 3.18 0 01.888 2.212c0 .83-.32 1.625-.888 2.212a2.988 2.988 0 01-2.145.916h.012zM3.038 39.815a2.99 2.99 0 01-2.145-.916 3.178 3.178 0 01-.889-2.212c0-.83.32-1.625.889-2.212a2.988 2.988 0 012.145-.916c.2 0 .4.022.597.065a5.41 5.41 0 003.898-.651 5.694 5.694 0 002.494-3.158 3.07 3.07 0 011.359-1.705 2.938 2.938 0 012.3-.314c.385.106.745.29 1.061.54.316.25.58.563.779.919a3.192 3.192 0 01.303 2.372 3.166 3.166 0 01-.524 1.094 3.062 3.062 0 01-.89.803c-.457.28-.979.43-1.51.434-.201 0-.401-.02-.598-.06a5.204 5.204 0 00-1.12-.122 5.453 5.453 0 00-3.247 1.076 5.73 5.73 0 00-2.028 2.829 3.071 3.071 0 01-1.355 1.709 2.981 2.981 0 01-1.52.425zM21.828 51a2.988 2.988 0 01-2.143-.915 3.178 3.178 0 01-.89-2.209 3.114 3.114 0 01.761-2.065 5.848 5.848 0 001.398-3.805 5.848 5.848 0 00-1.398-3.805 3.136 3.136 0 01-.761-2.065c-.015-.42.052-.84.197-1.232.146-.393.367-.752.65-1.055.283-.303.622-.544.997-.708a2.956 2.956 0 012.374 0c.376.164.715.405.998.708.283.303.504.662.65 1.055.145.393.212.812.197 1.232a3.122 3.122 0 01-.762 2.065 5.849 5.849 0 00-1.397 3.805 5.85 5.85 0 001.397 3.805c.492.568.761 1.304.758 2.065a3.178 3.178 0 01-.887 2.206 2.988 2.988 0 01-2.139.918zm18.787-11.185a2.981 2.981 0 01-1.514-.434 3.041 3.041 0 01-1.351-1.71 5.742 5.742 0 00-2.032-2.826 5.465 5.465 0 00-3.249-1.078c-.376 0-.75.041-1.119.122-.195.04-.394.06-.593.06a2.981 2.981 0 01-1.515-.433 3.057 3.057 0 01-.89-.804 3.163 3.163 0 01-.523-1.094 3.22 3.22 0 01.303-2.372c.198-.356.463-.668.78-.919.315-.25.676-.434 1.061-.54a2.942 2.942 0 012.303.314 3.04 3.04 0 011.35 1.71 5.742 5.742 0 002.033 2.826 5.465 5.465 0 003.248 1.078c.375 0 .748-.04 1.115-.117a2.8 2.8 0 01.598-.065 2.982 2.982 0 011.514.434c.345.205.648.478.89.803.243.326.42.697.524 1.094a3.218 3.218 0 01-.303 2.372 3.095 3.095 0 01-1.11 1.152 2.976 2.976 0 01-1.52.427zm-9.854-16.504c-.804 0-1.576-.33-2.145-.916a3.178 3.178 0 01-.889-2.212c0-.83.32-1.625.89-2.212a2.988 2.988 0 012.144-.916c.2 0 .399.022.593.065a5.458 5.458 0 004.369-.96 5.734 5.734 0 002.031-2.827 3.04 3.04 0 012.472-2.104 2.942 2.942 0 011.181.08c.386.106.746.29 1.062.54.316.25.581.563.78.92a3.192 3.192 0 01.303 2.371 3.163 3.163 0 01-.524 1.094 3.06 3.06 0 01-.89.804 2.97 2.97 0 01-1.514.433c-.2 0-.398-.02-.594-.06a5.23 5.23 0 00-1.119-.122 5.466 5.466 0 00-3.248 1.078 5.743 5.743 0 00-2.032 2.827 3.041 3.041 0 01-1.35 1.71c-.464.27-.988.41-1.52.407zm-8.932 5.319c1.675 0 3.033-1.4 3.033-3.128 0-1.727-1.358-3.128-3.033-3.128-1.676 0-3.034 1.4-3.034 3.128 0 1.728 1.358 3.128 3.034 3.128zm8.309-14.85c1.676 0 3.034-1.401 3.034-3.129 0-1.727-1.358-3.128-3.034-3.128-1.675 0-3.033 1.4-3.033 3.128 0 1.728 1.358 3.128 3.033 3.128zm-16.624 0c1.676 0 3.034-1.401 3.034-3.129 0-1.727-1.358-3.128-3.034-3.128-1.675 0-3.033 1.4-3.033 3.128 0 1.728 1.358 3.128 3.033 3.128zM5.2 28.63c1.676 0 3.034-1.4 3.034-3.128 0-1.727-1.358-3.128-3.034-3.128-1.675 0-3.033 1.4-3.033 3.128 0 1.728 1.358 3.128 3.033 3.128zm8.314 14.847c1.676 0 3.034-1.4 3.034-3.128 0-1.728-1.358-3.128-3.034-3.128-1.675 0-3.033 1.4-3.033 3.128 0 1.727 1.358 3.128 3.033 3.128zm16.624 0c1.676 0 3.034-1.4 3.034-3.128 0-1.728-1.358-3.128-3.034-3.128-1.675 0-3.033 1.4-3.033 3.128 0 1.727 1.358 3.128 3.033 3.128zm8.315-14.847c1.675 0 3.033-1.4 3.033-3.128 0-1.727-1.358-3.128-3.033-3.128-1.676 0-3.034 1.4-3.034 3.128 0 1.728 1.358 3.128 3.034 3.128zM54.803 16.981l.362-1.393a6.33 6.33 0 012.44.434 3.254 3.254 0 011.473 1.128 2.85 2.85 0 01.496 1.675 3.118 3.118 0 01-.302 1.562 3.008 3.008 0 01-1.027 1.189c-.888.598-2.142.893-3.787.893-.316 0-.66 0-1.035-.03a10.124 10.124 0 01-2.158-.36 1.16 1.16 0 01-.663-.41 1.224 1.224 0 01-.267-.748v-9.64a.759.759 0 01.201-.556c.145-.147.325-.252.522-.304a6.9 6.9 0 011.502-.303 16.61 16.61 0 011.767-.091c1.52 0 2.698.277 3.535.824.409.263.741.635.963 1.076.222.44.326.935.3 1.431a2.665 2.665 0 01-.485 1.58 3.12 3.12 0 01-1.418 1.045 6.712 6.712 0 01-2.402.37l-.152-1.194a2.356 2.356 0 001.557-.434 1.492 1.492 0 00.514-1.214c.01-.23-.04-.46-.143-.664a1.288 1.288 0 00-.447-.5 3.135 3.135 0 00-1.767-.403c-.315 0-.618 0-.913.04-.294.038-.538.06-.74.099v8.243c.287.073.58.12.875.14.34.025.677.038 1.005.038a3.358 3.358 0 001.856-.434c.2-.15.366-.345.482-.57a1.717 1.717 0 00.047-1.474 1.669 1.669 0 00-.445-.602 2.875 2.875 0 00-1.746-.443zm1.683-1.822v1.822h-4.59V15.16h4.59zM66.058 18h-4.14v-6.72a.745.745 0 01.198-.546 1.45 1.45 0 01.534-.321 7.71 7.71 0 011.435-.295c.559-.067 1.12-.1 1.683-.1 1.683 0 2.924.36 3.753 1.071.415.355.745.804.964 1.312.219.508.32 1.062.298 1.617.013.737-.19 1.46-.58 2.078a3.873 3.873 0 01-1.62 1.406 5.78 5.78 0 01-2.525.499zm-4.14-.867h2.41v5.02a2.27 2.27 0 01-.462.108c-.217.034-.437.05-.656.048a1.48 1.48 0 01-.99-.265 1.138 1.138 0 01-.303-.89v-4.02zm2.407-1.08h1.578a2.88 2.88 0 001.783-.512c.225-.175.403-.404.52-.668.115-.264.165-.553.145-.842a1.783 1.783 0 00-.151-.83 1.727 1.727 0 00-.514-.658 3.181 3.181 0 00-1.956-.508c-.252 0-.5 0-.74.03a5.658 5.658 0 00-.665.087v3.9zm1.426 1.301l2.05-.607c.319.434.643.868.98 1.302.336.433.66.867.967 1.275.307.408.59.79.842 1.128.252.338.441.62.58.842a1.355 1.355 0 01-.505.763 1.466 1.466 0 01-1.683 0 2.97 2.97 0 01-.597-.711l-2.634-3.992zm9.749-.117h-2.398v-6.941c.105-.027.26-.061.467-.1.21-.039.422-.057.635-.057.346-.031.693.054.989.243a1.13 1.13 0 01.307.911v5.944zm2.394 5.25a5.581 5.581 0 01-2.58-.56 3.836 3.836 0 01-1.64-1.575 4.893 4.893 0 01-.564-2.39v-1.415h2.398v1.302c-.022.352.026.706.141 1.038.116.332.297.636.532.893a2.523 2.523 0 001.715.677c.633 0 1.244-.241 1.715-.677a2.55 2.55 0 00.54-.89c.119-.333.168-.688.145-1.041v-1.302h2.411v1.415a4.848 4.848 0 01-.568 2.39 3.908 3.908 0 01-1.645 1.575 5.54 5.54 0 01-2.6.56zm4.805-5.232h-2.411v-6.942a6.69 6.69 0 01.475-.1c.213-.038.428-.057.644-.056.344-.029.687.056.98.243.117.116.206.26.26.417.054.159.072.327.052.494v5.944zm12.677 1.449v3.175a1.742 1.742 0 01-.61.322 2.673 2.673 0 01-.87.13c-.362.006-.72-.06-1.057-.196a1.65 1.65 0 01-.787-.867l-2.793-5.155-.48-.976a42.986 42.986 0 01-.484-.998l-.42-.902-2.281.551v-3.076a1.22 1.22 0 01.618-.434 2.77 2.77 0 01.884-.139c.357-.004.711.062 1.043.196.358.171.643.472.8.845l2.785 5.172c.164.317.333.642.501.98.168.339.332.673.476 1.003.143.33.277.625.39.898l2.285-.53zm-9.786-5.762l2.146-.056c.05.494.092 1.02.126 1.566.033.546.05 1.093.055 1.627.004.533 0 1.054 0 1.549v4.546a3.495 3.495 0 01-.447.087 3.708 3.708 0 01-.614.048 1.532 1.532 0 01-.98-.243 1.098 1.098 0 01-.294-.868l.008-8.256zm9.786 6.582l-2.166.056a33.974 33.974 0 01-.173-2.95c-.013-.963 0-1.892 0-2.79V10.3l.467-.1c.21-.04.422-.058.635-.056.338-.024.673.071.951.269a1.102 1.102 0 01.295.868l-.009 8.243zm13.818-3.289a7.165 7.165 0 01-.753 3.432 5.079 5.079 0 01-2.053 2.104 6.433 6.433 0 01-2.946.716 6.432 6.432 0 01-2.945-.716 5.101 5.101 0 01-2.04-2.104 7.16 7.16 0 01-.75-3.432 6.998 6.998 0 01.77-3.428 5.228 5.228 0 012.07-2.108 5.917 5.917 0 012.887-.72 5.987 5.987 0 012.945.716 5.183 5.183 0 012.062 2.108 7.093 7.093 0 01.753 3.432zm-2.453 0c0-1.371-.302-2.415-.905-3.133a3.015 3.015 0 00-1.081-.823 2.934 2.934 0 00-1.321-.257 2.889 2.889 0 00-1.302.261 2.98 2.98 0 00-1.063.82c-.603.717-.904 1.761-.904 3.132 0 1.384.298 2.438.892 3.154.305.34.676.612 1.088.798a3.186 3.186 0 002.615 0 3.267 3.267 0 001.089-.798c.602-.733.892-1.77.892-3.154zM55.905 28.83l.055 2.017h-5.356a1.805 1.805 0 01-.173-.412 1.99 1.99 0 01-.075-.568 1.157 1.157 0 01.227-.786.81.81 0 01.627-.251h4.695zm-2.049 1.488h2.394v10.365c-.152.05-.308.087-.467.108-.21.032-.422.047-.635.048a1.468 1.468 0 01-.997-.265 1.151 1.151 0 01-.294-.868v-9.388zm.379.53l-.059-2.018h5.344c.076.123.133.257.168.399.05.182.076.37.076.56a1.19 1.19 0 01-.228.78.775.775 0 01-.627.278h-4.674zm17.806 3.917a7.12 7.12 0 01-.753 3.428 5.087 5.087 0 01-2.053 2.108 6.43 6.43 0 01-2.945.716 6.43 6.43 0 01-2.946-.716 5.13 5.13 0 01-2.053-2.122 7.12 7.12 0 01-.749-3.427 6.986 6.986 0 01.77-3.427 5.226 5.226 0 012.07-2.109 5.911 5.911 0 012.9-.716 5.988 5.988 0 012.944.716 5.18 5.18 0 012.062 2.109 7.08 7.08 0 01.753 3.44zm-2.453 0c0-1.37-.301-2.416-.904-3.137a3.029 3.029 0 00-1.083-.82 2.942 2.942 0 00-1.32-.256 2.9 2.9 0 00-1.301.26c-.41.186-.773.465-1.064.816-.603.72-.904 1.766-.904 3.137 0 1.384.299 2.438.892 3.154.306.34.676.613 1.089.798a3.181 3.181 0 002.615 0 3.267 3.267 0 001.088-.798c.594-.716.892-1.77.892-3.154zm7.204.92h-2.416V28.83l.484-.1c.211-.04.425-.06.64-.06.345-.03.691.056.984.247.116.117.203.26.256.418.053.158.071.327.052.493v5.857zm-2.416-2.86h2.416v7.88a8.023 8.023 0 01-.467.095 3.58 3.58 0 01-.657.06 1.511 1.511 0 01-.989-.264 1.147 1.147 0 01-.303-.894v-6.876zm4.048 2.53h-2.886l5.87-6.603c.449-.025.893.106 1.262.373a1.11 1.11 0 01.42.868 1.48 1.48 0 01-.18.703 3.28 3.28 0 01-.581.724l-3.905 3.935zm-2.604-.868l2.49-.529a469.22 469.22 0 013.08 3.28 77.58 77.58 0 002.184 2.304c.01.184-.02.368-.087.538a1.291 1.291 0 01-1.204.815 1.445 1.445 0 01-.922-.295 6.29 6.29 0 01-.732-.685l-4.81-5.428zm12.117 2.2h-2.356v-6.508a1.34 1.34 0 01.35-.959 1.278 1.278 0 01.942-.352c.21 0 .42.019.627.057.202.04.349.074.42.1l.017 7.662zm-2.356-3.844h2.356v7.74a3.872 3.872 0 01-1.047.16 1.227 1.227 0 01-.508-.08 1.257 1.257 0 01-.435-.284 1.31 1.31 0 01-.349-.95l-.017-6.586zm1.292-2.017V28.83h6.29a1.4 1.4 0 01.173.39c.051.178.077.362.075.547.017.28-.06.557-.218.785a.761.761 0 01-.64.273h-5.68zm0 4.802v-1.96h5.722c.077.12.136.252.177.39.06.177.09.363.088.55.02.276-.06.549-.227.764a.84.84 0 01-.631.256h-5.13zm0 5.116v-1.979h6.387c.063.126.117.256.16.39.06.184.088.376.084.569.02.275-.06.548-.227.764a.816.816 0 01-.627.256h-5.777zm18.736-3.51v3.175c-.18.147-.386.256-.606.322a2.979 2.979 0 01-1.931-.066 1.668 1.668 0 01-.787-.867l-2.794-5.154a78.533 78.533 0 00-.484-.98 43.183 43.183 0 01-.483-.999c-.152-.325-.295-.629-.421-.902l-2.28.546v-3.071c.162-.196.377-.338.618-.408.285-.096.584-.143.883-.139.357-.004.712.062 1.044.195.358.17.642.47.8.842l2.793 5.154c.164.313.333.642.505.98.173.34.328.673.476.999.147.325.273.629.387.902l2.28-.53zm-9.778-5.762l2.15-.056a39.35 39.35 0 01.18 3.193c.01.533 0 1.05 0 1.549v4.547a4.748 4.748 0 01-1.064.134 1.557 1.557 0 01-.98-.243 1.112 1.112 0 01-.295-.868l.009-8.256zm9.778 6.564l-2.167.061a33.383 33.383 0 01-.168-2.95c0-.959-.021-1.892-.021-2.79V28.83l.467-.1a3.3 3.3 0 01.635-.06 1.45 1.45 0 01.96.255 1.084 1.084 0 01.294.868v8.243zm15.307-21.25a3.494 3.494 0 001.805.434c.366.001.73-.05 1.082-.152a2.78 2.78 0 00.913-.434.632.632 0 00.231-.304.611.611 0 000-.334.55.55 0 00-.151-.273.471.471 0 00-.253-.104.602.602 0 00-.379.113 2.686 2.686 0 01-1.392.386 2.181 2.181 0 01-1.149-.286 1.79 1.79 0 01-.707-.842 3.347 3.347 0 01-.24-1.332 3.315 3.315 0 01.24-1.336 1.8 1.8 0 01.682-.846 2.18 2.18 0 011.148-.287c.237 0 .474.03.703.091.228.057.444.154.64.287a.64.64 0 00.391.121.459.459 0 00.295-.134.567.567 0 00.189-.274.654.654 0 00-.03-.355.644.644 0 00-.269-.313 3.02 3.02 0 00-.892-.395 3.95 3.95 0 00-1.035-.139 3.853 3.853 0 00-1.414.252c-.399.158-.76.406-1.056.725a3.107 3.107 0 00-.677 1.093 4.422 4.422 0 00-.232 1.48c-.01.659.134 1.31.421 1.9.248.527.643.966 1.136 1.258zm10.489-6.169a.953.953 0 00-.303-.413.725.725 0 00-.803 0 .926.926 0 00-.303.412l-2.525 5.78a.721.721 0 00-.067.433.446.446 0 00.168.291.561.561 0 00.366.108.52.52 0 00.383-.13c.115-.124.204-.272.261-.433l.471-1.15h3.295l.48 1.15c.057.153.146.293.26.407a.6.6 0 00.421.135c.126.006.25-.03.354-.104a.437.437 0 00.164-.291.702.702 0 00-.076-.434l-2.546-5.761zm-.719.92l1.224 2.971h-2.453l1.229-2.972zm10.203-1.376h-4.965a.528.528 0 00-.387.135.502.502 0 00-.139.39.554.554 0 00.139.39.523.523 0 00.387.144h1.868v5.336a.692.692 0 00.16.477.575.575 0 00.455.174.566.566 0 00.458-.174.68.68 0 00.156-.477V11.22h1.868a.514.514 0 00.387-.144.535.535 0 00.139-.39.52.52 0 00-.139-.39.528.528 0 00-.387-.135zm7.961 5.562a.456.456 0 00-.282-.122.616.616 0 00-.379.113c-.207.13-.433.229-.669.291a2.685 2.685 0 01-.719.096 2.162 2.162 0 01-1.149-.287 1.775 1.775 0 01-.711-.842 3.347 3.347 0 01-.24-1.332 3.315 3.315 0 01.24-1.336c.147-.346.396-.636.711-.829.351-.2.748-.3 1.149-.286.236 0 .47.03.698.091.23.056.448.153.644.287a.63.63 0 00.387.121.468.468 0 00.299-.134.556.556 0 00.156-.291.618.618 0 00-.03-.356.613.613 0 00-.265-.312 3.06 3.06 0 00-.892-.395 3.996 3.996 0 00-1.035-.139 3.82 3.82 0 00-1.414.252c-.4.159-.762.406-1.06.724-.291.32-.516.698-.661 1.111a4.525 4.525 0 00-.227 1.48 4.2 4.2 0 00.4 1.9c.256.525.659.96 1.157 1.245a3.492 3.492 0 001.805.434c.364.001.727-.05 1.077-.152a2.79 2.79 0 00.917-.434.623.623 0 00.249-.638.52.52 0 00-.156-.26zm8.512-5.64a.588.588 0 00-.455.17.682.682 0 00-.159.48v2.335h-3.48v-2.334a.681.681 0 00-.156-.482.597.597 0 00-.454-.17.595.595 0 00-.459.17.686.686 0 00-.156.482v5.822a.685.685 0 00.156.477.592.592 0 00.459.174.572.572 0 00.458-.174.696.696 0 00.152-.477v-2.434h3.48v2.434a.686.686 0 00.159.477.688.688 0 00.909 0 .682.682 0 00.16-.477v-5.822a.678.678 0 00-.16-.482.597.597 0 00-.454-.17zm-36.151 18.326a.691.691 0 00.155.482.594.594 0 00.455.173.595.595 0 00.462-.173.707.707 0 00.152-.482v-5.332h1.868a.503.503 0 00.387-.148.523.523 0 00.139-.39.51.51 0 00-.139-.386.525.525 0 00-.387-.135h-4.965a.529.529 0 00-.387.135.51.51 0 00-.139.386.536.536 0 00.139.39.523.523 0 00.387.148h1.873v5.332zm11.554-6.469a.597.597 0 00-.455.165.688.688 0 00-.16.486v2.33h-3.479v-2.33a.687.687 0 00-.156-.486.71.71 0 00-.909 0 .688.688 0 00-.16.486v5.818a.693.693 0 00.16.482.69.69 0 00.913 0 .718.718 0 00.152-.482v-2.43h3.479v2.43a.693.693 0 00.16.482.687.687 0 00.909 0 .693.693 0 00.16-.482v-5.818a.688.688 0 00-.16-.486.61.61 0 00-.454-.165zm8.078 1.085a.475.475 0 00.366-.135.5.5 0 00.131-.377.497.497 0 00-.131-.369.508.508 0 00-.366-.126h-3.421a.572.572 0 00-.483.174.605.605 0 00-.169.499v5.64a.63.63 0 00.169.498.573.573 0 00.483.174h3.421a.508.508 0 00.366-.125.492.492 0 00.131-.378.479.479 0 00-.131-.373.488.488 0 00-.366-.13h-2.895v-2.048h2.68a.486.486 0 00.375-.13.61.61 0 000-.746.494.494 0 00-.375-.13h-2.68v-1.918h2.895zm-14.987 10.768a.66.66 0 00-.375.096.84.84 0 00-.248.32l-2.213 4.222-2.213-4.221a.804.804 0 00-.253-.321.68.68 0 00-.378-.096.575.575 0 00-.421.156.614.614 0 00-.152.434v5.966a.618.618 0 00.143.434.634.634 0 00.842 0 .639.639 0 00.139-.434V36.17l1.801 3.362a.724.724 0 00.202.243c.088.06.192.091.298.087a.452.452 0 00.286-.082.75.75 0 00.202-.248l1.801-3.384v4.2a.618.618 0 00.143.434.634.634 0 00.842 0 .639.639 0 00.139-.434v-5.961a.607.607 0 00-.143-.434.526.526 0 00-.442-.16zm4.578 0a.588.588 0 00-.455.17.688.688 0 00-.16.485v5.818a.677.677 0 00.16.478.575.575 0 00.455.173.573.573 0 00.462-.173.695.695 0 00.152-.478v-5.818a.668.668 0 00-.16-.486.597.597 0 00-.454-.169zm8.528 4.903a1.653 1.653 0 00-.513-.625 1.23 1.23 0 00-.303-.143 2.22 2.22 0 00.471-.152c.329-.148.605-.396.791-.712a2.14 2.14 0 00.274-1.106 2.008 2.008 0 00-.134-.837 1.945 1.945 0 00-.468-.699 2.473 2.473 0 00-1.717-.546h-2.301a.616.616 0 00-.459.16.655.655 0 00-.164.482v5.748a.676.676 0 00.16.478.69.69 0 00.913 0 .696.696 0 00.156-.478v-2.212h.909c.202-.002.403.041.589.125.182.093.33.246.42.434l.968 1.836a.97.97 0 00.286.351c.126.08.273.12.421.113a.55.55 0 00.391-.122.43.43 0 00.143-.32.746.746 0 00-.105-.408l-.728-1.367zm-1.796-1.58h-1.494v-2.242h1.494c.354-.027.707.07 1.001.277.116.103.207.232.266.377.059.146.085.303.075.46a1.06 1.06 0 01-.069.477 1.03 1.03 0 01-.272.391c-.296.2-.649.292-1.001.26zm9.164-2.789a.913.913 0 00-.299-.408.685.685 0 00-.4-.126.715.715 0 00-.421.126.91.91 0 00-.298.408l-2.525 5.779a.744.744 0 00-.063.434.443.443 0 00.164.29.58.58 0 00.37.109.543.543 0 00.383-.126 1.35 1.35 0 00.261-.434l.471-1.145h3.291l.475 1.145c.059.162.149.31.265.434.121.094.27.14.421.13.126.007.25-.03.353-.104a.426.426 0 00.165-.29.709.709 0 00-.076-.434l-2.537-5.788zm-.716.92l1.229 2.976h-2.453l1.224-2.976zm11.327 4.191a.449.449 0 00-.282-.126.661.661 0 00-.379.113 2.383 2.383 0 01-.673.295c-.234.06-.474.09-.715.09a2.184 2.184 0 01-1.153-.285 1.784 1.784 0 01-.707-.838 3.368 3.368 0 01-.24-1.336c-.013-.457.069-.91.24-1.332.147-.346.394-.637.707-.833.352-.2.751-.3 1.153-.286.236 0 .47.03.698.09.228.06.446.157.644.287a.603.603 0 00.387.121.454.454 0 00.295-.13.593.593 0 00.16-.295.618.618 0 00-.299-.663 2.904 2.904 0 00-.888-.395 3.805 3.805 0 00-1.035-.14 3.731 3.731 0 00-1.414.253 2.86 2.86 0 00-1.06.72 3.195 3.195 0 00-.66 1.128 4.476 4.476 0 00-.232 1.475c-.011.66.134 1.314.421 1.904.256.523.658.955 1.153 1.241.556.305 1.18.455 1.809.434a3.96 3.96 0 001.077-.152c.327-.088.636-.235.913-.434a.62.62 0 00.232-.299.59.59 0 000-.338.524.524 0 00-.152-.27zm7.195.325h-2.781v-5.276a.678.678 0 00-.156-.481.618.618 0 00-.471-.165.595.595 0 00-.455.16.66.66 0 00-.155.482v5.705a.672.672 0 00.16.477.611.611 0 00.462.174h3.366a.519.519 0 00.396-.143.549.549 0 00.139-.4.523.523 0 00-.126-.381.538.538 0 00-.379-.152zm7.367.07h-2.895v-2.027h2.685a.48.48 0 00.37-.13.5.5 0 00.126-.373.44.44 0 00-.293-.494.41.41 0 00-.203-.01h-2.685v-1.917h2.895a.468.468 0 00.366-.134.504.504 0 00.131-.382.486.486 0 00-.131-.364.478.478 0 00-.366-.126h-3.42a.645.645 0 00-.484.169.692.692 0 00-.169.499v5.64a.63.63 0 00.169.498.576.576 0 00.484.174h3.42a.481.481 0 00.366-.13.48.48 0 00.131-.373.5.5 0 00-.131-.377.504.504 0 00-.366-.143z"/></g><defs><clipPath id="bla"><path d="M0 0h172v51H0z"/></clipPath></defs></svg><svg viewBox="0 0 24 24" id="medium" xmlns="http://www.w3.org/2000/svg"><path d="M4.372 7.264a.784.784 0 00-.252-.658L2.252 4.339V4H8.05l4.482 9.905L16.472 4H22v.339L20.403 5.88a.471.471 0 00-.177.452v11.334a.472.472 0 00.177.452l1.56 1.542V20H14.12v-.339l1.616-1.58c.16-.16.16-.207.16-.451V8.468l-4.493 11.494h-.606L5.566 8.468v7.704c-.043.323.064.65.29.884l2.101 2.568v.338H2v-.338l2.1-2.568a1.03 1.03 0 00.272-.884V7.264z"/></svg><svg viewBox="0 0 24 24" id="notification" xmlns="http://www.w3.org/2000/svg"><path fill-rule="evenodd" clip-rule="evenodd" d="M5.25 9a6.75 6.75 0 0113.5 0v.75c0 2.123.8 4.057 2.118 5.52a.75.75 0 01-.297 1.206c-1.544.57-3.16.99-4.831 1.243a3.75 3.75 0 11-7.48 0 24.585 24.585 0 01-4.831-1.244.75.75 0 01-.298-1.205A8.217 8.217 0 005.25 9.75V9zm4.502 8.9a2.25 2.25 0 104.496 0c-1.496.135-3 .135-4.496 0z"/></svg><svg viewBox="0 0 5 2" id="order" xmlns="http://www.w3.org/2000/svg"><path d="M.78.915h3.59"/></svg><svg viewBox="0 0 16 20" id="password" xmlns="http://www.w3.org/2000/svg"><path d="M12.583 7.25V5.417C12.583 2.85 10.567.833 8 .833S3.417 2.85 3.417 5.417V7.25C1.858 7.25.667 8.442.667 10v6.417c0 1.558 1.191 2.75 2.75 2.75h9.166c1.559 0 2.75-1.192 2.75-2.75V10c0-1.558-1.191-2.75-2.75-2.75zM5.25 5.417c0-1.559 1.192-2.75 2.75-2.75s2.75 1.191 2.75 2.75V7.25h-5.5V5.417z"/></svg><svg viewBox="0 0 13 12" id="pen" xmlns="http://www.w3.org/2000/svg"><path d="M11.367.905a1.819 1.819 0 00-2.585.018L1.794 7.91a1.352 1.352 0 00-.354.62l-.68 2.651c-.05.2.131.38.33.33l2.651-.68c.235-.06.45-.183.62-.354L11.35 3.49a1.817 1.817 0 00.017-2.585z"/></svg><svg viewBox="0 0 22 22" id="phone" xmlns="http://www.w3.org/2000/svg"><path fill-rule="evenodd" clip-rule="evenodd" d="M1.375 4.125a2.75 2.75 0 012.75-2.75h1.258A1.72 1.72 0 017.05 2.677L8.063 6.73a1.719 1.719 0 01-.636 1.792l-1.185.89c-.124.092-.15.228-.116.322a10.345 10.345 0 006.139 6.139c.094.035.23.008.323-.116l.889-1.185a1.718 1.718 0 011.792-.636l4.054 1.013a1.72 1.72 0 011.302 1.668v1.257a2.75 2.75 0 01-2.75 2.75h-2.063c-7.973 0-14.437-6.464-14.437-14.438v-2.06z"/></svg><svg viewBox="0 0 24 24" id="reddit" xmlns="http://www.w3.org/2000/svg"><path d="M22.743 11.759a2.479 2.479 0 00-2.476-2.476c-.591 0-1.144.217-1.59.595l-.044.026c-1.61-1.03-3.744-1.687-6.105-1.777l1.41-4.007 3.517.84a2.023 2.023 0 002.02 2.017 2.024 2.024 0 002.022-2.021 2.02 2.02 0 00-3.892-.76l-4.167-.995-1.731 4.917c-2.462.047-4.693.713-6.363 1.777a2.446 2.446 0 00-1.612-.612 2.477 2.477 0 00-2.475 2.475c0 .845.436 1.625 1.142 2.079a4.347 4.347 0 00-.07.75c0 3.572 4.33 6.479 9.652 6.479 5.323 0 9.654-2.907 9.654-6.48a4.36 4.36 0 00-.066-.728 2.476 2.476 0 001.174-2.1zm-7.48 3.204A1.52 1.52 0 0114 12.597a1.521 1.521 0 111.263 2.366zm.303 2.594c-.046.046-1.136 1.157-3.602 1.157-2.48 0-3.471-1.125-3.513-1.174a.39.39 0 01.59-.508c.022.025.85.905 2.923.905 2.108 0 3.033-.912 3.043-.92a.389.389 0 01.559.54zm-8.172-4.115a1.521 1.521 0 113.042-.052 1.521 1.521 0 01-3.042.052z"/></svg><svg viewBox="0 0 18 18" id="search" xmlns="http://www.w3.org/2000/svg"><path d="M17.706 16.143l-3.76-3.759A7.695 7.695 0 0015.5 7.75c0-4.272-3.476-7.749-7.749-7.749S.001 3.478.001 7.751c0 4.272 3.477 7.748 7.75 7.748 1.814 0 3.48-.63 4.802-1.68l3.739 3.738a.997.997 0 001.414 0 .999.999 0 000-1.414zM1.5 7.75a6.256 6.256 0 016.25-6.249 6.256 6.256 0 016.248 6.25 6.256 6.256 0 01-6.249 6.248A6.256 6.256 0 011.501 7.75z"/></svg><svg viewBox="0 0 18 18" id="settings" xmlns="http://www.w3.org/2000/svg"><path d="M7.542.675h2.916c.575 0 1.043.468 1.043 1.043v1.115a6.214 6.214 0 011.594.929l.966-.56a1.047 1.047 0 011.43.375l1.46 2.527.008.015a1.043 1.043 0 01-.402 1.41l-.953.551a6.668 6.668 0 010 1.858l.954.55a1.043 1.043 0 01.393 1.426l-1.459 2.525c-.142.244-.37.416-.64.486s-.552.032-.792-.109l-.965-.56a6.212 6.212 0 01-1.594.93V16.3c0 .575-.468 1.042-1.043 1.042H7.542A1.044 1.044 0 016.499 16.3v-1.116a6.212 6.212 0 01-1.594-.928l-.966.56c-.497.29-1.14.122-1.43-.376l-1.46-2.527a1.044 1.044 0 01.393-1.425l.954-.551a6.578 6.578 0 01-.064-.929c0-.32.022-.631.064-.929l-.953-.55a1.043 1.043 0 01-.393-1.426L2.508 3.58c.292-.5.934-.668 1.432-.377l.965.56a6.214 6.214 0 011.595-.93V1.718c0-.575.468-1.043 1.043-1.043zm2.707 1.252H7.751v1.349a.626.626 0 01-.44.598 4.99 4.99 0 00-1.912 1.113.626.626 0 01-.738.08l-1.173-.68L2.24 6.545l1.164.672a.626.626 0 01.297.682c-.078.34-.118.714-.118 1.11 0 .396.04.77.118 1.11a.626.626 0 01-.297.682l-1.164.672 1.247 2.159 1.173-.681a.626.626 0 01.738.08 4.995 4.995 0 001.911 1.113.626.626 0 01.441.598v1.35h2.498v-1.35c0-.274.179-.517.441-.598a4.994 4.994 0 001.912-1.113.626.626 0 01.737-.08l1.173.68 1.247-2.158-1.164-.672a.625.625 0 01-.297-.682 4.98 4.98 0 00.118-1.11c0-.396-.04-.77-.118-1.11a.626.626 0 01.297-.682l1.164-.672-1.247-2.158-1.173.68a.626.626 0 01-.738-.08 4.996 4.996 0 00-1.91-1.113.626.626 0 01-.442-.598v-1.35zM3.31 13.735h.001zM9 5.675a3.423 3.423 0 01.878.117c.203.06.505.16.79.336a3.21 3.21 0 011.213 1.212 3.297 3.297 0 01.342.812c.074.286.111.574.111.857a3.42 3.42 0 01-.117.878 3.3 3.3 0 01-.336.79 3.208 3.208 0 01-1.212 1.213 3.292 3.292 0 01-.812.342 3.421 3.421 0 01-.857.112 3.42 3.42 0 01-.878-.118 3.296 3.296 0 01-.79-.336 3.208 3.208 0 01-1.213-1.212 3.295 3.295 0 01-.341-.812 3.418 3.418 0 01-.112-.857 3.417 3.417 0 01.117-.878c.06-.203.16-.505.336-.79a3.208 3.208 0 011.212-1.212 3.298 3.298 0 01.812-.343c.286-.074.574-.111.857-.111zm.533 1.32A2.166 2.166 0 009 6.928a1.991 1.991 0 00-1.044.287 1.956 1.956 0 00-.767.777 1.99 1.99 0 00-.271 1.018 1.99 1.99 0 00.287 1.044 1.956 1.956 0 00.777.767 1.992 1.992 0 001.018.27 1.992 1.992 0 001.044-.287 1.955 1.955 0 00.767-.777 1.99 1.99 0 00.271-1.018 1.99 1.99 0 00-.287-1.044 1.956 1.956 0 00-.777-.767 1.99 1.99 0 00-.485-.202z"/></svg><svg viewBox="0 0 15 15" id="smile" xmlns="http://www.w3.org/2000/svg"><path d="M7.727.5a7 7 0 107 7 7.014 7.014 0 00-7-7zm2.423 4.846a.808.808 0 110 1.616.808.808 0 010-1.616zm-4.847 0a.808.808 0 110 1.616.808.808 0 010-1.616zm5.688 4.039a3.77 3.77 0 01-6.529 0 .539.539 0 11.929-.539 2.699 2.699 0 004.671 0 .539.539 0 01.929.539z"/></svg><svg viewBox="0 0 10 10" id="status" xmlns="http://www.w3.org/2000/svg"><path d="M9.167 0H.833A.833.833 0 000 .833v8.334A.833.833 0 00.833 10h8.334A.833.833 0 0010 9.167V.833A.833.833 0 009.167 0zM7.578 4.052L4.526 6.97a.422.422 0 01-.578 0L2.422 5.51a.417.417 0 11.573-.604l1.24 1.183 2.77-2.641a.417.417 0 01.573.604z"/></svg><svg viewBox="0 0 16 16" id="support" xmlns="http://www.w3.org/2000/svg"><path fill-rule="evenodd" clip-rule="evenodd" d="M12.966 5.632l-2.04 1.701c.1.44.1.896 0 1.335l2.04 1.7a5.517 5.517 0 000-4.735v-.001zm-2.598 7.335l-1.701-2.042c-.44.1-.895.1-1.335 0l-1.7 2.041a5.517 5.517 0 004.736 0zm-7.334-2.599l2.041-1.701c-.1-.44-.1-.896 0-1.335l-2.04-1.699a5.517 5.517 0 000 4.736l-.001-.001zm2.598-7.335l1.702 2.042c.439-.1.895-.1 1.334 0l1.7-2.041a5.517 5.517 0 00-4.735 0zm5.772-.573a6.516 6.516 0 012.136 2.135 6.509 6.509 0 01-2.136 8.944 6.509 6.509 0 01-6.808 0 6.517 6.517 0 01-1.192-.944 6.501 6.501 0 01-.943-1.192 6.51 6.51 0 010-6.808A6.57 6.57 0 014.596 2.46a6.51 6.51 0 016.808 0zm-1.99 4.127a1.99 1.99 0 00-.74-.47 2.01 2.01 0 00-1.348 0 2.005 2.005 0 00-1.209 1.21 2.01 2.01 0 000 1.348c.096.27.252.523.47.74a2.009 2.009 0 002.088.47 2.005 2.005 0 001.209-1.21 2.01 2.01 0 000-1.348 1.99 1.99 0 00-.47-.74z"/></svg><svg viewBox="0 0 24 24" id="telegram" xmlns="http://www.w3.org/2000/svg"><path d="M20.665 3.717l-17.73 6.837c-1.21.486-1.203 1.161-.222 1.462l4.552 1.42 10.532-6.645c.498-.303.953-.14.579.192l-8.533 7.701h-.002l.002.001-.314 4.692c.46 0 .663-.21.921-.46l2.211-2.15 4.599 3.397c.848.467 1.457.227 1.668-.785l3.019-14.228c.309-1.239-.473-1.8-1.282-1.434z"/></svg><svg viewBox="0 0 25 25" id="twitter" xmlns="http://www.w3.org/2000/svg"><mask id="bza" maskUnits="userSpaceOnUse" x="3" y="3" width="19" height="19"><path d="M3 3h18.667v18.667H3V3z"/></mask><g mask="url(#bza)"><path d="M17.7 3.875h2.863l-6.254 7.165 7.358 9.752h-5.76l-4.515-5.913-5.16 5.913H3.367l6.688-7.667L3 3.876h5.907L12.98 9.28l4.72-5.405zm-1.007 15.2h1.587L8.04 5.503H6.339l10.354 13.572z"/></g></svg><svg viewBox="0 0 24 24" id="user" xmlns="http://www.w3.org/2000/svg"><path d="M12 3.75a3.75 3.75 0 100 7.5 3.75 3.75 0 000-7.5zm-4 9.5A3.75 3.75 0 004.25 17v1.188c0 .754.546 1.396 1.29 1.517 4.278.699 8.642.699 12.92 0a1.537 1.537 0 001.29-1.517V17A3.75 3.75 0 0016 13.25h-.34c-.185 0-.369.03-.544.086l-.866.283a7.251 7.251 0 01-4.5 0l-.866-.283a1.75 1.75 0 00-.543-.086H8z"/></svg><svg viewBox="0 0 17 16" id="verification" xmlns="http://www.w3.org/2000/svg"><path fill-rule="evenodd" clip-rule="evenodd" d="M11.416 1a4.5 4.5 0 00-4.434 5.27c.045.26-.021.479-.147.605L2.5 11.207a2 2 0 00-.585 1.414V14.5a.5.5 0 00.5.5h2.5a.5.5 0 00.5-.5v-1h1a.5.5 0 00.5-.5v-1h1a.5.5 0 00.353-.147l1.772-1.772c.127-.126.345-.192.604-.146A4.5 4.5 0 1011.416 1zm0 2a.5.5 0 100 1 1.5 1.5 0 011.5 1.5.5.5 0 001 0 2.5 2.5 0 00-2.5-2.5z"/></svg></svg>