<svg width="125" height="31" viewBox="0 0 125 31" fill="none" xmlns="http://www.w3.org/2000/svg">
<g clip-path="url(#clip0_56_873)">
<path fill-rule="evenodd" clip-rule="evenodd" d="M1.0346 2.37483C4.11728 6.13243 7.50193 10.853 8.04943 11.6166C8.07861 11.6574 8.09956 11.6868 8.11229 11.7043C8.4041 12.1093 8.64501 12.4105 8.82794 12.6391C9.23416 13.1468 9.35462 13.2974 9.1123 13.4358C8.9169 13.5474 8.71507 13.5842 8.51389 13.5842C8.28635 13.5842 8.02989 13.4743 7.84323 13.2964C7.71121 13.1706 6.80826 11.8534 5.57853 9.93732C4.63766 8.47112 3.85028 7.2548 3.82894 7.23448C3.77919 7.18732 3.78009 7.18898 5.48263 10.2484C6.55167 12.1695 7.283 13.5893 7.283 13.6801C7.283 13.8649 7.23287 13.9621 7.00584 14.2162C6.62751 14.6401 6.45847 15.1164 6.33634 16.102C6.19957 17.2069 5.81468 17.9874 4.74821 19.3231C4.12396 20.1051 4.02177 20.2484 3.86429 20.5636C3.66581 20.9605 3.6113 21.1828 3.58919 21.6839C3.56579 22.2139 3.6113 22.5562 3.7725 23.0627C3.91365 23.5062 4.06085 23.7992 4.4375 24.385C4.76248 24.8904 4.94953 25.266 4.94953 25.413C4.94953 25.53 4.97177 25.5301 5.4753 25.416C6.68048 25.1426 7.65902 24.662 8.20935 24.0729C8.55001 23.7082 8.62997 23.5069 8.63254 23.0072C8.63434 22.6804 8.62277 22.612 8.53484 22.424C8.39163 22.1179 8.13106 21.8635 7.55656 21.4691C6.80363 20.9522 6.48212 20.5361 6.39329 19.9639C6.3204 19.4944 6.40486 19.1631 6.82137 18.2865C7.25253 17.3792 7.35936 16.9925 7.43161 16.0778C7.47827 15.4869 7.54281 15.2539 7.71185 15.0669C7.88822 14.8719 8.04699 14.8058 8.48316 14.7458C9.19457 14.6483 9.64746 14.4634 10.0199 14.1189C10.3428 13.8201 10.4779 13.532 10.4987 13.0984L10.5144 12.7699L10.3339 12.5585C9.68037 11.7931 0.596883 1.77319 0.556646 1.77319C0.548033 1.77319 0.763101 2.04391 1.0346 2.37483ZM5.31654 22.2835C5.46438 22.0206 5.3857 21.6828 5.1385 21.5177C4.90492 21.3617 4.54214 21.4352 4.54214 21.6384C4.54214 21.7004 4.57634 21.7455 4.65321 21.7854C4.78292 21.8524 4.79231 21.9277 4.69036 22.0816C4.58701 22.2375 4.59537 22.3745 4.71376 22.4676C4.90466 22.6178 5.17501 22.5352 5.31654 22.2835ZM9.76457 7.95001C9.47301 7.9045 9.46067 7.89913 9.59797 7.87804C9.86086 7.8374 10.4818 7.89274 10.9097 7.99487C11.9087 8.23338 12.8177 8.84435 13.788 9.92927L14.0457 10.2175L14.4146 10.1581C15.9681 9.90729 17.5485 10.1066 18.8704 10.7198C19.2341 10.8885 19.8074 11.2245 19.879 11.3107C19.9018 11.3382 19.9438 11.5152 19.9721 11.7043C20.0703 12.3578 20.0212 12.8589 19.8221 13.2331C19.7139 13.4367 19.7078 13.5013 19.7806 13.6756C19.8387 13.8147 20.0008 13.9176 20.1613 13.9173C20.4898 13.9169 20.8433 13.3836 21.0072 12.6416L21.0723 12.3468L21.2012 12.4934C21.9082 13.298 22.4637 14.3954 22.5591 15.1763L22.5839 15.3799L22.4651 15.1949C22.2605 14.8763 22.055 14.6594 21.7918 14.4846C21.3174 14.1693 20.8157 14.062 19.4872 13.9917C18.2873 13.9282 17.6083 13.8253 16.9349 13.6047C15.7892 13.2295 15.2117 12.7299 13.8507 10.9367C13.2463 10.1403 12.8727 9.69945 12.5009 9.34463C11.6566 8.53835 10.8268 8.1154 9.76457 7.95001ZM20.1496 9.72834C20.1799 9.19457 20.252 8.84256 20.3968 8.5211C20.4542 8.39379 20.5079 8.28975 20.5161 8.28975C20.5245 8.28975 20.4996 8.38357 20.4607 8.49835C20.3555 8.81035 20.3381 9.23713 20.4107 9.73358C20.5028 10.3637 20.5552 10.4545 21.2182 11.1351C21.5291 11.4543 21.8909 11.8568 22.022 12.0297L22.2605 12.3439L22.022 12.1193C21.7304 11.8446 21.0599 11.3089 20.9118 11.2325C20.8125 11.1811 20.7977 11.182 20.7365 11.2432C20.68 11.2996 20.6681 11.3845 20.6602 11.7852C20.648 12.41 20.5633 12.8111 20.3587 13.2119C20.248 13.4288 20.2305 13.3825 20.3306 13.1378C20.4055 12.955 20.413 12.8746 20.4125 12.2699C20.4114 11.0547 20.2677 10.7626 19.4253 10.2622C19.212 10.1354 18.8603 9.95253 18.6439 9.85577C18.4277 9.75914 18.2558 9.67491 18.262 9.66865C18.2859 9.64475 19.1075 9.88556 19.4381 10.0134C19.9299 10.2033 20.0111 10.228 20.0708 10.2051C20.1108 10.1898 20.1302 10.0726 20.1496 9.72834ZM9.45206 8.7954C9.37274 9.73358 9.73899 10.9885 10.331 11.807C10.7899 12.4415 11.5013 12.9347 12.0266 12.9822C12.3703 13.0134 12.4737 12.9053 12.3181 12.6771C12.1022 12.3604 11.8364 11.8726 11.7661 11.6638C11.7224 11.534 11.6277 11.1508 11.5553 10.8122C11.3084 9.65612 11.0655 9.20582 10.505 8.86391C10.3006 8.73928 9.86433 8.57619 9.61133 8.52979L9.47661 8.50512L9.45206 8.7954ZM19.4317 17.8989C16.6651 16.7802 15.6907 15.8092 15.6907 14.1708C15.6907 13.9296 15.699 13.7324 15.7091 13.7324C15.7192 13.7324 15.8262 13.812 15.9469 13.9093C16.5079 14.3611 17.1361 14.5541 18.8753 14.8089C19.8986 14.9589 20.4745 15.08 21.0058 15.257C22.6943 15.8194 23.7391 16.9607 23.9882 18.5153C24.0606 18.967 24.0182 19.8141 23.9008 20.2606C23.8081 20.6132 23.5253 21.2487 23.4503 21.2731C23.4295 21.2799 23.4091 21.1999 23.4038 21.091C23.3754 20.5072 23.0817 19.939 22.5884 19.5132C22.0275 19.0292 21.274 18.6439 19.4317 17.8989ZM17.3558 17.7758C17.3946 17.892 17.4548 18.1564 17.4894 18.3636C17.711 19.6881 17.0188 20.7582 15.6722 21.1728C15.5296 21.2166 14.9681 21.3271 14.4243 21.4179C13.3235 21.602 12.8323 21.7324 12.3388 21.9711C11.9888 22.1405 11.5649 22.3941 11.5901 22.4193C11.5982 22.4275 11.6782 22.4083 11.7677 22.3767C12.3901 22.1573 13.0828 22.0436 14.1351 21.9887C14.5527 21.9669 15.0277 21.9322 15.1907 21.9116C16.1283 21.793 16.7781 21.5069 17.2834 20.9904C17.5646 20.7029 17.7322 20.4352 17.8673 20.0576C17.9529 19.8181 17.9645 19.7291 17.9652 19.3047C17.9659 18.8723 17.9555 18.7932 17.8627 18.5272C17.7412 18.1785 17.5979 17.9169 17.4164 17.7122L17.2852 17.5645L17.3558 17.7758ZM18.7577 20.6256C18.39 19.832 18.3057 19.0658 18.507 18.3513C18.5286 18.2749 18.5632 18.2124 18.5841 18.2124C18.605 18.2124 18.6916 18.2596 18.7768 18.3171C18.9461 18.4316 19.2859 18.6245 20.1909 19.12C21.3204 19.7384 21.9643 20.2172 22.4021 20.7644C22.7856 21.2435 23.0229 21.7891 23.1371 22.4546C23.2019 22.8315 23.1639 23.7385 23.0676 24.118C22.764 25.3147 22.0583 26.2547 21.0517 26.8033C20.9042 26.8836 20.7718 26.9495 20.7574 26.9499C20.7432 26.9502 20.7969 26.813 20.8769 26.6449C21.2155 25.934 21.254 25.2425 20.9981 24.4729C20.8413 24.0017 20.5217 23.4266 19.8763 22.4547C19.1261 21.3248 18.9422 21.024 18.7577 20.6256ZM11.8339 23.2285C10.6705 23.4183 9.39293 24.0367 8.36631 24.9073L8.06074 25.1665L8.32942 25.2087C9.73102 25.4284 10.1086 25.6233 11.0808 26.6292C11.6403 27.208 11.8292 27.3368 12.2934 27.4558C12.975 27.6306 13.647 27.3095 13.8775 26.6988C13.9804 26.4259 13.9667 25.974 13.8485 25.7472C13.5675 25.2069 12.7488 25.0323 12.353 25.428C12.0231 25.7576 12.1193 26.2542 12.5293 26.3396C12.6232 26.3593 12.6206 26.3551 12.5054 26.3028C12.326 26.2212 12.2479 26.1082 12.247 25.9284C12.2447 25.5067 12.7253 25.27 13.1721 25.4725C13.4994 25.6209 13.6294 25.8146 13.6294 26.1544C13.6294 26.6775 13.186 27.0717 12.6701 27.0073C12.3942 26.9728 12.0569 26.7956 11.8762 26.5904C11.4211 26.0736 11.5984 25.2581 12.2337 24.9452C12.7174 24.7071 13.3604 24.7658 13.859 25.0936C14.4318 25.4704 14.6754 25.8148 15.1688 26.9449C15.3295 27.3129 15.5362 27.7272 15.6281 27.8655C16.0955 28.5681 16.6555 28.9127 17.33 28.9127C17.702 28.9127 17.9819 28.8444 18.334 28.6679C18.5956 28.5367 18.9664 28.2873 18.9397 28.2606C18.9321 28.253 18.8236 28.2869 18.6985 28.3359C17.9621 28.6243 17.2134 28.6045 16.7786 28.2849C16.5048 28.0837 16.284 27.6828 16.1704 27.1815C16.1508 27.0947 16.086 26.7115 16.0263 26.3299C15.8752 25.3625 15.73 24.9277 15.3915 24.4287C15.0452 23.9182 14.3795 23.4898 13.6351 23.2984C13.1708 23.179 12.3355 23.1466 11.8339 23.2285ZM10.2043 15.7495C10.3047 15.3768 10.6293 15.0213 10.9633 14.9183C11.1757 14.8528 11.6146 14.8946 11.821 14.9999C12.2208 15.2042 12.5113 15.6693 12.4483 16.0051C12.3713 16.4145 11.7103 16.7421 10.9498 16.7475C10.5613 16.7502 10.418 16.6978 10.2697 16.4989C10.1777 16.3757 10.143 15.9769 10.2043 15.7495ZM11.7188 15.1459C11.9183 15.2682 11.9695 15.4491 11.8524 15.6164C11.7715 15.7317 11.5215 15.8412 11.3387 15.8412C11.0641 15.8412 10.7646 15.6454 10.7646 15.4661C10.7646 15.1058 11.3391 14.9129 11.7188 15.1459ZM71.3284 16.1777C70.708 14.1259 71.7311 12.4239 73.9142 11.8771C74.5403 11.7201 77.3752 11.7909 77.8609 11.9756C78.0393 12.0434 78.117 12.3032 78.1186 12.8373C78.1198 13.2578 78.1659 13.7687 78.221 13.9723C78.3045 14.2812 78.2557 14.3419 77.928 14.337C77.6315 14.3324 77.4523 14.1597 77.2021 13.6371C76.8024 12.8025 76.3184 12.5371 75.1906 12.5341C73.7508 12.5299 72.6973 13.4937 72.8688 14.6583C72.9805 15.4161 73.7421 16.1618 75.451 17.1869C77.0771 18.162 78.0262 18.964 78.4043 19.6824C79.4155 21.6033 78.552 23.6589 76.2991 24.6946C75.1426 25.2262 73.2045 25.2811 71.8418 24.821L70.9692 24.5262V23.1399C70.9692 21.8844 70.9993 21.7533 71.2871 21.7533C71.5279 21.7533 71.6319 21.9116 71.7163 22.4073C71.9267 23.6398 72.8687 24.3881 74.2104 24.3881C75.5247 24.3881 76.4435 23.6741 76.7954 22.3794C76.9453 21.8279 76.9195 21.6245 76.6221 21.0161C76.2658 20.2866 75.6522 19.8026 73.5683 18.6072C72.4119 17.9439 71.5942 17.0569 71.3284 16.1777ZM30.4771 12.6962C30.1928 12.6962 30.0818 12.6037 30.0818 12.3668C30.0818 12.0531 30.1928 12.0375 32.421 12.0375C34.4891 12.0375 34.7538 12.0684 34.7064 12.3044C34.6767 12.4514 34.3909 12.655 34.0709 12.7572L33.4891 12.9431L33.4395 17.1424C33.4062 19.9445 33.453 21.5609 33.5799 22.0003C33.9572 23.3072 35.1081 24.0588 36.7319 24.0588C37.8624 24.0588 38.5228 23.796 39.3525 23.0156C40.2449 22.1766 40.3872 21.3793 40.3844 17.236C40.3817 13.149 40.3101 12.8117 39.4273 12.727C39.0256 12.6882 38.891 12.5953 38.891 12.3564C38.891 12.0586 39.0235 12.0375 40.8855 12.0375C42.7691 12.0375 42.88 12.0558 42.88 12.3668C42.88 12.5697 42.7682 12.6972 42.589 12.6986C41.8193 12.7054 41.8051 12.7782 41.7015 17.2596C41.594 21.9135 41.4936 22.4645 40.5451 23.6045C40.2715 23.9334 39.6191 24.4109 39.0954 24.6658C38.2419 25.0811 37.9704 25.1288 36.4809 25.1261C35.1078 25.1233 34.6743 25.0573 33.9878 24.7466C32.9856 24.293 32.3338 23.7059 31.8533 22.8237C31.5179 22.2079 31.4892 21.8746 31.4116 17.7023C31.3226 12.9264 31.2795 12.6962 30.4771 12.6962ZM46.0301 12.6962C45.6501 12.6962 45.5393 12.6218 45.5393 12.3668C45.5393 12.0581 45.6455 12.0383 47.2429 12.0511L48.9466 12.0645L49.7617 12.9978C50.2097 13.5111 51.6706 15.1169 53.0077 16.566C54.3449 18.0152 55.88 19.701 56.419 20.3123C56.9582 20.9238 57.4656 21.424 57.5467 21.424C57.63 21.424 57.6715 19.6969 57.6418 17.4572L57.5894 13.4905L57.123 13.0934C56.8665 12.8748 56.4741 12.6962 56.2505 12.6962C55.9532 12.6962 55.8443 12.6067 55.8443 12.3622C55.8443 12.0406 55.9291 12.0298 58.1296 12.0741C60.0006 12.1115 60.415 12.1635 60.415 12.3601C60.415 12.5002 60.1836 12.6472 59.8594 12.7129C59.5539 12.7749 59.2172 12.9113 59.1114 13.016C58.9749 13.1512 58.9054 14.8992 58.8716 19.0442L58.8239 24.8821H58.3422C57.9275 24.8821 57.4338 24.4181 54.7947 21.5474C53.1084 19.7132 51.1402 17.5334 50.4208 16.7034C49.7013 15.8732 49.0566 15.1877 48.9881 15.1802C48.7951 15.1587 48.8418 22.5755 49.0391 23.2795C49.193 23.8281 49.2988 23.9225 49.9525 24.0959C50.4789 24.2353 50.6918 24.3768 50.6918 24.5869C50.6918 24.8568 50.4911 24.8821 48.3649 24.8821C46.2004 24.8821 46.038 24.8606 46.038 24.5734C46.038 24.3631 46.1945 24.2337 46.529 24.1673C47.5439 23.9663 47.6113 23.6471 47.6683 18.7683C47.7001 16.0358 47.6533 14.1239 47.5445 13.7236C47.3532 13.0197 46.8765 12.6962 46.0301 12.6962ZM63.4582 12.6962C63.1021 12.6962 62.9913 12.6179 62.9913 12.3668C62.9913 12.0521 63.1021 12.0375 65.4844 12.0375C67.8666 12.0375 67.9775 12.0521 67.9775 12.3668C67.9775 12.6083 67.8666 12.6962 67.5619 12.6962C67.3335 12.6962 66.9939 12.8474 66.8073 13.0321C66.4781 13.3584 66.4696 13.5206 66.5166 18.5622C66.5622 23.4839 66.5817 23.7687 66.8873 23.9899C67.0648 24.1184 67.3826 24.2234 67.5937 24.2234C67.8666 24.2234 67.9775 24.3184 67.9775 24.5528C67.9775 24.8675 67.8666 24.8821 65.4844 24.8821C63.1588 24.8821 62.9913 24.8614 62.9913 24.5739C62.9913 24.342 63.1544 24.2397 63.6497 24.1612C64.6333 24.0054 64.6835 23.6863 64.6222 17.9934C64.5732 13.4344 64.5521 13.1502 64.2476 12.9297C64.0701 12.8012 63.7149 12.6962 63.4582 12.6962ZM80.8491 12.6962C80.6217 12.6962 80.4488 12.5709 80.3949 12.3668C80.3111 12.0484 80.39 12.0375 82.7857 12.0375C85.1524 12.0375 85.2632 12.0521 85.2632 12.3668C85.2632 12.6198 85.1523 12.6962 84.7848 12.6962C83.7385 12.6962 83.7621 12.8846 85.3457 17.1911C86.1516 19.3833 86.9343 21.4658 87.0847 21.8187L87.3582 22.4604L88.6276 19.1015C90.122 15.1477 90.3162 14.4165 90.0624 13.6954C89.8855 13.1929 89.1978 12.6962 88.6788 12.6962C88.5321 12.6962 88.4212 12.5545 88.4212 12.3668C88.4212 12.0516 88.5321 12.0375 90.9975 12.0375C93.4629 12.0375 93.5737 12.0516 93.5737 12.3668C93.5737 12.6012 93.4628 12.6962 93.1899 12.6962C92.4911 12.6962 92.183 13.0654 92.2834 13.7826C92.3867 14.5211 95.2453 22.4572 95.3653 22.3385C95.5603 22.1454 98.7262 13.6021 98.7262 13.269C98.7262 12.8701 98.4444 12.6962 97.7984 12.6962C97.5074 12.6962 97.3964 12.6054 97.3964 12.3668C97.3964 12.0558 97.5074 12.0375 99.391 12.0375C101.083 12.0375 101.386 12.0764 101.386 12.2931C101.386 12.4337 101.178 12.6204 100.925 12.7077C100.355 12.9045 100.212 13.1291 99.4973 14.9486C99.1835 15.7476 98.2013 18.2482 97.3144 20.5052C96.7481 21.9459 96.1824 23.3868 95.6174 24.828C95.5707 24.9484 95.2959 25.0468 95.0064 25.0468H94.4803L93.2865 21.9591C92.71 20.4696 92.1354 18.9794 91.5626 17.4884C91.063 16.1848 91.0211 16.1282 90.8332 16.5003C90.7235 16.7177 89.9347 18.7331 89.08 20.9792L87.5263 25.0629L86.9464 25.0137L86.3665 24.9645L84.1548 19.2137C82.9191 16.0008 81.7829 13.2936 81.5798 13.0795C81.3797 12.8686 81.051 12.6962 80.8491 12.6962ZM114.083 12.7659C114.055 12.7034 114.055 12.4786 114.055 12.4786C114.055 12.4786 114.049 12.3976 114.083 12.3542C114.117 12.3112 114.129 12.31 114.252 12.2985L114.253 12.2984C114.701 12.2559 115.602 12.1845 116.353 12.1519C116.422 12.149 116.498 12.1455 116.582 12.1417H116.585C117.412 12.1042 118.892 12.0544 119.909 12.1049C121.86 12.2019 123.248 13.1397 123.721 14.6896C124.194 16.2394 123.944 17.6942 123.299 18.6203C122.655 19.5463 121.57 20.3436 119.768 20.2917C118.281 20.2489 117.883 19.9719 117.565 19.7507C117.497 19.7039 117.434 19.6596 117.364 19.6206V21.597C117.38 22.945 117.391 23.5924 117.496 23.8321C117.638 24.1547 117.957 24.3534 118.58 24.5058C118.58 24.5058 118.862 24.5715 118.935 24.6415C119.008 24.7116 119.008 24.8671 119.008 24.8671C119.008 24.8671 119.022 25.0126 118.964 25.0867C118.906 25.1609 118.793 25.146 118.793 25.146L116.034 25.1239L114.371 25.1196C114.371 25.1196 114.196 25.1528 114.131 25.083C114.065 25.0131 114.071 24.8675 114.071 24.8675C114.071 24.8675 114.086 24.7107 114.162 24.6405C114.239 24.5702 114.522 24.4917 114.522 24.4917C115.164 24.3126 115.442 24.1232 115.588 23.7664C115.705 23.4786 115.705 22.9451 115.704 18.5913C115.703 14.4623 115.697 13.6921 115.602 13.4706C115.461 13.1427 115.108 13.0558 114.606 12.9321H114.605C114.506 12.9076 114.4 12.8816 114.29 12.8521C114.29 12.8521 114.111 12.8286 114.083 12.7659ZM122.116 16.1351C122.116 16.8122 122.104 17.8721 121.379 18.5497C120.654 19.2273 119.226 19.4127 118.258 19.2241C117.952 19.1646 117.778 19.073 117.643 19.0023L117.629 18.9953L117.381 18.8654L117.367 16.4866C117.358 14.9961 117.374 14.0251 117.409 13.8863C117.441 13.1002 118.607 13.0025 119.177 13.0317C121.614 13.0317 122.044 15.0734 122.116 16.1351ZM106.43 12.1297C106.43 12.1297 106.31 12.1752 106.13 12.2432L105.479 12.5774L105.011 13.7406C104.753 14.3804 104.281 15.5548 103.963 16.3505C103.51 17.4833 103.055 18.615 102.597 19.7456C102.478 20.0379 102.12 20.928 101.801 21.7237C101.482 22.5192 101.163 23.2764 101.093 23.4063C101.081 23.4279 101.068 23.4512 101.055 23.4757C100.877 23.809 100.567 24.3881 100.02 24.4756C100.02 24.4756 99.719 24.505 99.6075 24.6144C99.496 24.724 99.5069 24.8134 99.5069 24.8134V24.9514C99.5069 24.9514 99.517 25.0182 99.5801 25.0514C99.6432 25.0848 99.7287 25.0867 99.7287 25.0867L101.73 25.0641H103.799C103.799 25.0641 103.946 25.0811 104.002 25.0346C104.058 24.988 104.074 24.919 104.074 24.919V24.7738C104.074 24.7738 104.045 24.6163 103.963 24.5549C103.881 24.4935 103.574 24.4515 103.574 24.4515C102.746 24.3432 102.604 23.7203 102.706 23.1602C102.756 22.885 103.089 21.8671 103.464 20.8423L103.593 20.4881L105.761 20.4716C106.953 20.4625 107.983 20.4686 108.049 20.4853C108.143 20.5089 108.275 20.7749 108.661 21.7223C109.247 23.1577 109.294 23.3325 109.165 23.6011C109.157 23.6174 109.148 23.6355 109.139 23.6549C109.017 23.9146 108.781 24.4193 108.185 24.4706C108.185 24.4706 107.869 24.4815 107.791 24.5754C107.712 24.6695 107.729 24.7777 107.729 24.7777V24.9213C107.729 24.9213 107.75 25.0056 107.791 25.0389C107.831 25.0723 107.9 25.0638 107.9 25.0638L109.868 25.0498L112.634 25.0496C112.634 25.0496 112.742 25.0612 112.772 25.0197C112.801 24.9782 112.807 24.9294 112.807 24.9294V24.7385C112.807 24.7385 112.795 24.6371 112.742 24.5811C112.689 24.5252 112.33 24.4662 112.33 24.4662C111.872 24.3927 111.644 24.0166 111.474 23.7366C111.431 23.6651 111.391 23.5999 111.352 23.5477C111.274 23.4409 110.992 22.856 110.772 22.2935C110.552 21.731 110.055 20.4602 109.668 19.4697C109.281 18.4793 108.74 17.0976 108.467 16.3994C108.029 15.2786 107.591 14.1576 107.153 13.0365L107.153 13.036C106.911 12.4144 106.813 12.1637 106.786 12.1298C106.699 12.0195 106.43 12.1297 106.43 12.1297ZM106.301 15.9119C106.185 15.6321 106.072 15.3516 105.959 15.0706C105.777 14.6132 105.707 14.5078 105.651 14.6023C105.634 14.6299 105.519 14.9426 105.396 15.2971C104.593 17.5927 104.23 18.6264 104.157 18.8212C104.111 18.9436 104.074 19.0698 104.074 19.1016C104.074 19.1382 104.727 19.1595 105.844 19.1595C106.818 19.1595 107.615 19.1475 107.615 19.1328C107.615 19.1181 107.528 18.899 107.422 18.6457C107.316 18.3924 107.056 17.7601 106.844 17.2405C106.633 16.7209 106.388 16.1231 106.301 15.9119Z" fill="#BCBCBC"/>
</g>
<defs>
<clipPath id="clip0_56_873">
<rect width="123.646" height="30.6859" fill="white" transform="translate(0.548096)"/>
</clipPath>
</defs>
</svg>
